<svg width="95" height="93" viewBox="0 0 95 93" fill="none" xmlns="http://www.w3.org/2000/svg">
<path d="M2.07708 45.2435L12.493 26.7395L23.6904 8.5989C24.1477 7.85812 24.9498 7.40027 25.8202 7.38327L47.5 6.95988L69.1798 7.38327C70.0502 7.40027 70.8523 7.85812 71.3096 8.59889L82.507 26.7395L92.9229 45.2435C93.3621 46.0236 93.3621 46.9764 92.9229 47.7565L82.5069 66.2606L71.3096 84.4011C70.8523 85.1419 70.0502 85.5997 69.1798 85.6167L47.5 86.0401L25.8202 85.6167C24.9498 85.5997 24.1477 85.1419 23.6904 84.4011L12.4931 66.2605L2.07708 47.7565C1.63794 46.9764 1.63794 46.0236 2.07708 45.2435Z" fill="#F8FEFF" stroke="url(#paint0_linear_332_2221)" stroke-width="2.3873"/>
<g clip-path="url(#clip0_332_2221)">
<path d="M63.7819 29.8945H37.9165C35.6717 29.8945 33.8455 31.6585 33.8455 33.8197L33.6788 56.0261H28.631C28.2733 56.0261 28 56.3345 28 56.6833V59.7394C28 62.6003 30.3482 64.9401 33.1822 65.0684V65.105H54.9636V65.0637C55.1255 65.0702 55.2236 65.105 55.3349 65.105H55.3504C58.3729 65.0878 60.8093 62.6857 60.7935 59.7388V40.3156H67.369C67.7267 40.3156 68 39.9998 68 39.6513V34.0439C68.0041 31.7649 66.1193 29.9109 63.7819 29.8945ZM33.4656 63.8419H33.4612C31.1569 63.8419 29.2955 61.9851 29.2955 59.7388V57.2893H49.8623V59.7283C49.8573 61.15 50.4333 62.5149 51.4628 63.5215C51.5722 63.6288 51.6867 63.684 51.8038 63.8419H33.4656ZM59.498 59.7382C59.498 61.9851 57.6546 63.8419 55.3494 63.8419H55.3362C53.0196 63.8255 51.1525 61.9872 51.1579 59.7286V56.6833C51.1598 56.3296 50.8729 56.0384 50.5101 56.0261H34.9743L35.141 33.824C35.141 32.3552 36.3859 31.1577 37.9165 31.1577H60.7236C59.9854 31.9472 59.498 32.946 59.498 34.0609V59.7382ZM66.7044 34.055V39.0524H60.7935V34.0596C60.7935 32.4788 62.1422 31.1577 63.7629 31.1577H63.7809C65.4057 31.1734 66.712 32.4659 66.7044 34.0504V34.055Z" fill="#69CCE5"/>
<path d="M43.2121 45.4398L46.5519 47.6661C46.7698 47.8126 47.0579 47.8126 47.2759 47.6661L50.6055 45.4405C51.7622 44.671 52.6165 43.0625 52.6165 41.6985V37.1942C52.6235 36.9561 52.4887 36.7353 52.2711 36.627L47.186 34.1883C47.0076 34.1019 46.7982 34.1019 46.6199 34.1883L41.5443 36.6202C41.3267 36.7285 41.1922 36.9493 41.1995 37.1874V41.6985C41.1995 43.0625 42.0557 44.671 43.2121 45.4398ZM42.495 37.5815L46.908 35.4585L51.321 37.5874V41.6985C51.321 42.6498 50.6814 43.86 49.8745 44.3963L46.9004 46.3795L43.938 44.3966C43.1311 43.8597 42.495 42.6498 42.495 41.6985V37.5815Z" fill="#69CCE5"/>
<path d="M45.8124 42.6529C45.9333 42.7732 46.0984 42.8413 46.2711 42.8422H46.2727C46.4447 42.8416 46.6095 42.7744 46.7306 42.6554L49.3075 40.142C49.5609 39.8953 49.5609 39.495 49.3078 39.2483C49.0551 39.0013 48.6446 39.0013 48.3915 39.248L46.2749 41.3114L45.4288 40.4785C45.1767 40.2305 44.7665 40.2287 44.5122 40.4744C44.2579 40.7202 44.2563 41.1202 44.508 41.3682L45.8124 42.6529Z" fill="#69CCE5"/>
<path d="M54.9639 49.4731H39.4173C39.0596 49.4731 38.7695 49.7559 38.7695 50.1047C38.7695 50.4535 39.0596 50.7363 39.4173 50.7363H54.9639C55.3216 50.7363 55.6116 50.4535 55.6116 50.1047C55.6116 49.7559 55.3216 49.4731 54.9639 49.4731Z" fill="#69CCE5"/>
<path d="M54.9639 52.3926H39.4173C39.0596 52.3926 38.7695 52.6754 38.7695 53.0242C38.7695 53.3729 39.0596 53.6557 39.4173 53.6557H54.9639C55.3216 53.6557 55.6116 53.3729 55.6116 53.0242C55.6116 52.6754 55.3216 52.3926 54.9639 52.3926Z" fill="#69CCE5"/>
</g>
<defs>
<linearGradient id="paint0_linear_332_2221" x1="-6.18557e-06" y1="86.4995" x2="43.5881" y2="-18.3913" gradientUnits="userSpaceOnUse">
<stop stop-color="white"/>
<stop offset="1" stop-color="#69CCE5"/>
</linearGradient>
<clipPath id="clip0_332_2221">
<rect width="40" height="39" fill="white" transform="translate(28 28)"/>
</clipPath>
</defs>
</svg>
