<svg width="32" height="32" viewBox="0 0 32 32" fill="none" xmlns="http://www.w3.org/2000/svg">
<g clip-path="url(#clip0_331_1827)">
<mask id="path-1-outside-1_331_1827" maskUnits="userSpaceOnUse" x="1.31641" y="1.93262" width="30" height="29" fill="black">
<rect fill="white" x="1.31641" y="1.93262" width="30" height="29"/>
<path fill-rule="evenodd" clip-rule="evenodd" d="M28.4007 14.913C28.1355 14.2794 27.8282 13.6643 27.481 13.0717C27.0394 12.3159 26.5197 11.6086 25.9304 10.9614C25.8925 10.92 25.8631 10.8716 25.844 10.8188C25.8248 10.7661 25.8163 10.7101 25.8188 10.654C25.8212 10.598 25.8348 10.543 25.8585 10.4922C25.8823 10.4413 25.9158 10.3957 25.9572 10.3578C25.9986 10.3199 26.047 10.2906 26.0998 10.2714C26.1525 10.2523 26.2085 10.2437 26.2645 10.2462C26.3206 10.2487 26.3756 10.2622 26.4264 10.286C26.4772 10.3097 26.5229 10.3432 26.5608 10.3846C27.1908 11.076 27.7465 11.8316 28.2187 12.6391C28.5702 13.238 28.8829 13.8588 29.155 14.4978C29.9658 12.78 29.9951 11.2841 29.243 10.01C28.3914 8.5675 26.5507 7.36412 23.7211 6.39986C23.3228 8.8135 23.5445 10.7333 24.3864 12.1593C25.1696 13.4859 26.5077 14.4037 28.4007 14.913ZM17.1927 29.2644C19.0072 29.089 20.7626 28.5246 22.3394 27.6097V17.7302L18.5573 16.4106C18.5346 16.4047 18.5126 16.397 18.4912 16.3875L17.1928 15.9343L17.1927 29.2644ZM12.5889 28.8797V14.3804L18.2362 12.0977V15.3918L16.9373 14.9386C16.872 14.9097 16.8004 14.8976 16.7292 14.9033C16.658 14.9091 16.5894 14.9325 16.5296 14.9715C16.4697 15.0105 16.4205 15.0638 16.3865 15.1266C16.3524 15.1894 16.3346 15.2597 16.3346 15.3311V29.3189C16.2047 29.3228 16.0745 29.3248 15.9438 29.3248C14.8108 29.3256 13.6827 29.1759 12.5891 28.8794L12.5889 28.8797ZM8.18485 26.6977C9.25756 27.5204 10.4544 28.167 11.7305 28.6133V17.5555H8.18485V26.6977ZM29.5359 15.6132C29.5443 15.7393 29.5513 15.8751 29.557 16.0204C29.5649 16.2223 29.5688 16.4015 29.5688 16.5581C29.5672 18.6803 29.0702 20.7729 28.1174 22.6692C27.1646 24.5656 25.7824 26.2134 24.0807 27.4815C22.379 28.7495 20.4047 29.6029 18.3151 29.9737C16.2255 30.3444 14.0783 30.2224 12.0441 29.6171C12.0378 29.6154 12.0316 29.6135 12.0254 29.6112C8.89246 28.6707 6.20238 26.6347 4.44641 23.8749C2.69044 21.1152 1.98576 17.8158 2.46107 14.5795C2.93638 11.3432 4.55995 8.38582 7.03528 6.2475C9.51062 4.10917 12.6725 2.93259 15.9436 2.93262C16.0574 2.93262 16.1666 2.97784 16.2471 3.05834C16.3276 3.13883 16.3728 3.24801 16.3728 3.36185C16.3728 3.47569 16.3276 3.58486 16.2471 3.66536C16.1666 3.74586 16.0574 3.79108 15.9436 3.79108C13.4185 3.79104 10.9501 4.53979 8.85057 5.94263C6.75103 7.34548 5.11465 9.33942 4.14835 11.6723C3.18205 14.0052 2.92923 16.5722 3.42188 19.0487C3.91453 21.5253 5.13051 23.8002 6.91605 25.5856C7.04982 25.7194 7.18662 25.8502 7.32645 25.978V17.1261C7.32644 17.0697 7.33754 17.0139 7.3591 16.9618C7.38067 16.9097 7.41228 16.8624 7.45213 16.8226C7.49198 16.7827 7.5393 16.7511 7.59137 16.7295C7.64344 16.7079 7.69926 16.6968 7.75562 16.6968H11.7305V14.0918C11.7305 14.0007 11.7594 13.9121 11.8131 13.8386C11.8668 13.765 11.9425 13.7105 12.0292 13.6828L18.5059 11.0652C18.5709 11.0392 18.6412 11.0295 18.7108 11.037C18.7804 11.0444 18.847 11.0688 18.905 11.1081C18.963 11.1473 19.0104 11.2001 19.0433 11.2619C19.0761 11.3236 19.0933 11.3925 19.0934 11.4625H19.0944V15.6914L22.8768 17.0115C22.9687 17.0354 23.0501 17.0892 23.1081 17.1644C23.1662 17.2396 23.1977 17.3319 23.1978 17.4269V27.0651C24.8978 25.8901 26.2874 24.3202 27.2475 22.4902C28.2077 20.6602 28.7096 18.6247 28.7104 16.5581C28.7104 16.3644 28.7076 16.1953 28.7019 16.0505C28.6997 15.992 28.6968 15.931 28.6932 15.8676C26.3042 15.3354 24.6227 14.2446 23.6488 12.5951C22.6415 10.8892 22.4138 8.61034 22.9655 5.75864H22.9666C22.9698 5.74215 22.9739 5.72585 22.979 5.70984C23.0132 5.60178 23.089 5.51176 23.1896 5.45956C23.2902 5.40737 23.4074 5.39728 23.5155 5.43151C26.8188 6.48784 28.9738 7.86866 29.9806 9.57397C31.0005 11.3015 30.8524 13.3145 29.5359 15.6132ZM19.2631 18.94H20.0598C20.1157 18.9401 20.1692 18.9623 20.2087 19.0018C20.2482 19.0413 20.2704 19.0948 20.2705 19.1506V19.9474C20.2704 20.0032 20.2482 20.0568 20.2087 20.0962C20.1692 20.1357 20.1157 20.158 20.0598 20.1581H19.2631C19.2073 20.1579 19.1537 20.1357 19.1143 20.0962C19.0748 20.0567 19.0526 20.0032 19.0525 19.9474V19.1506C19.0526 19.0948 19.0748 19.0413 19.1143 19.0018C19.1537 18.9623 19.2073 18.9401 19.2631 18.94ZM19.2631 21.3551H20.0598C20.1157 21.3552 20.1692 21.3774 20.2087 21.4169C20.2482 21.4564 20.2704 21.5099 20.2705 21.5657V22.3625C20.2704 22.4183 20.2482 22.4718 20.2087 22.5113C20.1692 22.5508 20.1157 22.573 20.0598 22.5731H19.2631C19.2073 22.573 19.1538 22.5508 19.1143 22.5113C19.0748 22.4718 19.0526 22.4183 19.0525 22.3625V21.5657C19.0526 21.5099 19.0748 21.4564 19.1143 21.4169C19.1537 21.3774 19.2073 21.3552 19.2631 21.3551ZM19.2631 23.7702H20.0598C20.1157 23.7703 20.1692 23.7925 20.2087 23.832C20.2482 23.8715 20.2704 23.925 20.2705 23.9808V24.7776C20.2704 24.8334 20.2482 24.8869 20.2087 24.9264C20.1692 24.9659 20.1157 24.9881 20.0598 24.9882H19.2631C19.2073 24.9881 19.1538 24.9659 19.1143 24.9264C19.0748 24.8869 19.0526 24.8334 19.0525 24.7776V23.9808C19.0525 23.925 19.0747 23.8714 19.1142 23.8319C19.1537 23.7923 19.2072 23.7703 19.2631 23.7702ZM14.063 18.94C14.0072 18.9401 13.9536 18.9623 13.9142 19.0018C13.8747 19.0413 13.8525 19.0948 13.8524 19.1506V19.9474C13.8525 20.0032 13.8747 20.0567 13.9142 20.0962C13.9536 20.1357 14.0072 20.158 14.063 20.1581H14.8597C14.9156 20.158 14.9691 20.1357 15.0086 20.0962C15.048 20.0567 15.0703 20.0032 15.0704 19.9474V19.1506C15.0703 19.0948 15.048 19.0413 15.0086 19.0018C14.9691 18.9623 14.9156 18.9401 14.8597 18.94H14.063ZM14.063 21.3551C14.0072 21.3552 13.9536 21.3774 13.9142 21.4169C13.8747 21.4564 13.8525 21.5099 13.8524 21.5657V22.3625C13.8525 22.4183 13.8747 22.4718 13.9142 22.5113C13.9537 22.5508 14.0072 22.573 14.063 22.5731H14.8597C14.9156 22.573 14.9691 22.5508 15.0085 22.5113C15.048 22.4718 15.0702 22.4183 15.0704 22.3625V21.5657C15.0703 21.5099 15.048 21.4564 15.0086 21.4169C14.9691 21.3774 14.9156 21.3552 14.8597 21.3551H14.063ZM14.063 23.7702C14.0072 23.7703 13.9537 23.7925 13.9142 23.832C13.8747 23.8715 13.8525 23.925 13.8524 23.9808V24.7776C13.8525 24.8334 13.8747 24.8869 13.9142 24.9264C13.9537 24.9659 14.0072 24.9881 14.063 24.9882H14.8597C14.9156 24.9881 14.9691 24.9659 15.0085 24.9264C15.048 24.8869 15.0702 24.8334 15.0704 24.7776V23.9808C15.0702 23.925 15.048 23.8715 15.0085 23.832C14.9691 23.7925 14.9156 23.7703 14.8597 23.7702H14.063ZM9.559 19.549H10.3557C10.4116 19.5491 10.4651 19.5713 10.5046 19.6108C10.5441 19.6503 10.5663 19.7038 10.5664 19.7596V20.5564C10.5663 20.6122 10.5441 20.6657 10.5046 20.7052C10.4651 20.7447 10.4116 20.767 10.3557 20.7671H9.559C9.50317 20.7669 9.44966 20.7447 9.41018 20.7052C9.3707 20.6657 9.34848 20.6122 9.34837 20.5564V19.7596C9.34848 19.7038 9.37071 19.6503 9.41018 19.6108C9.44966 19.5714 9.50317 19.5491 9.559 19.549ZM9.559 21.9641H10.3557C10.4116 21.9642 10.4651 21.9864 10.5046 22.0259C10.5441 22.0654 10.5663 22.119 10.5664 22.1748V22.9715C10.5663 23.0274 10.5441 23.0809 10.5046 23.1204C10.4651 23.1599 10.4116 23.1821 10.3557 23.1822H9.559C9.50316 23.1821 9.44964 23.1599 9.41016 23.1204C9.37068 23.0809 9.34846 23.0274 9.34837 22.9715V22.1748C9.34848 22.119 9.3707 22.0654 9.41018 22.026C9.44966 21.9865 9.50317 21.9642 9.559 21.9641ZM9.559 24.3792H10.3557C10.4116 24.3793 10.4651 24.4015 10.5046 24.441C10.5441 24.4805 10.5663 24.534 10.5664 24.5899V25.3866C10.5663 25.4425 10.5441 25.496 10.5046 25.5355C10.4651 25.5749 10.4116 25.5972 10.3557 25.5972H9.559C9.50317 25.5971 9.44966 25.5749 9.41018 25.5354C9.37071 25.496 9.34848 25.4424 9.34837 25.3866V24.5899C9.34848 24.5341 9.3707 24.4805 9.41018 24.441C9.44966 24.4016 9.50317 24.3793 9.559 24.3792ZM14.0632 16.5168C14.0074 16.5169 13.9539 16.5391 13.9144 16.5786C13.8749 16.6181 13.8527 16.6716 13.8526 16.7274V17.5241C13.8527 17.58 13.8749 17.6335 13.9144 17.673C13.9539 17.7125 14.0074 17.7347 14.0632 17.7348H14.86C14.9158 17.7347 14.9693 17.7125 15.0088 17.673C15.0483 17.6335 15.0705 17.58 15.0706 17.5241V16.7274C15.0705 16.6716 15.0483 16.6181 15.0088 16.5786C14.9693 16.5391 14.9158 16.5169 14.86 16.5168H14.0632Z"/>
</mask>
<path fill-rule="evenodd" clip-rule="evenodd" d="M28.4007 14.913C28.1355 14.2794 27.8282 13.6643 27.481 13.0717C27.0394 12.3159 26.5197 11.6086 25.9304 10.9614C25.8925 10.92 25.8631 10.8716 25.844 10.8188C25.8248 10.7661 25.8163 10.7101 25.8188 10.654C25.8212 10.598 25.8348 10.543 25.8585 10.4922C25.8823 10.4413 25.9158 10.3957 25.9572 10.3578C25.9986 10.3199 26.047 10.2906 26.0998 10.2714C26.1525 10.2523 26.2085 10.2437 26.2645 10.2462C26.3206 10.2487 26.3756 10.2622 26.4264 10.286C26.4772 10.3097 26.5229 10.3432 26.5608 10.3846C27.1908 11.076 27.7465 11.8316 28.2187 12.6391C28.5702 13.238 28.8829 13.8588 29.155 14.4978C29.9658 12.78 29.9951 11.2841 29.243 10.01C28.3914 8.5675 26.5507 7.36412 23.7211 6.39986C23.3228 8.8135 23.5445 10.7333 24.3864 12.1593C25.1696 13.4859 26.5077 14.4037 28.4007 14.913ZM17.1927 29.2644C19.0072 29.089 20.7626 28.5246 22.3394 27.6097V17.7302L18.5573 16.4106C18.5346 16.4047 18.5126 16.397 18.4912 16.3875L17.1928 15.9343L17.1927 29.2644ZM12.5889 28.8797V14.3804L18.2362 12.0977V15.3918L16.9373 14.9386C16.872 14.9097 16.8004 14.8976 16.7292 14.9033C16.658 14.9091 16.5894 14.9325 16.5296 14.9715C16.4697 15.0105 16.4205 15.0638 16.3865 15.1266C16.3524 15.1894 16.3346 15.2597 16.3346 15.3311V29.3189C16.2047 29.3228 16.0745 29.3248 15.9438 29.3248C14.8108 29.3256 13.6827 29.1759 12.5891 28.8794L12.5889 28.8797ZM8.18485 26.6977C9.25756 27.5204 10.4544 28.167 11.7305 28.6133V17.5555H8.18485V26.6977ZM29.5359 15.6132C29.5443 15.7393 29.5513 15.8751 29.557 16.0204C29.5649 16.2223 29.5688 16.4015 29.5688 16.5581C29.5672 18.6803 29.0702 20.7729 28.1174 22.6692C27.1646 24.5656 25.7824 26.2134 24.0807 27.4815C22.379 28.7495 20.4047 29.6029 18.3151 29.9737C16.2255 30.3444 14.0783 30.2224 12.0441 29.6171C12.0378 29.6154 12.0316 29.6135 12.0254 29.6112C8.89246 28.6707 6.20238 26.6347 4.44641 23.8749C2.69044 21.1152 1.98576 17.8158 2.46107 14.5795C2.93638 11.3432 4.55995 8.38582 7.03528 6.2475C9.51062 4.10917 12.6725 2.93259 15.9436 2.93262C16.0574 2.93262 16.1666 2.97784 16.2471 3.05834C16.3276 3.13883 16.3728 3.24801 16.3728 3.36185C16.3728 3.47569 16.3276 3.58486 16.2471 3.66536C16.1666 3.74586 16.0574 3.79108 15.9436 3.79108C13.4185 3.79104 10.9501 4.53979 8.85057 5.94263C6.75103 7.34548 5.11465 9.33942 4.14835 11.6723C3.18205 14.0052 2.92923 16.5722 3.42188 19.0487C3.91453 21.5253 5.13051 23.8002 6.91605 25.5856C7.04982 25.7194 7.18662 25.8502 7.32645 25.978V17.1261C7.32644 17.0697 7.33754 17.0139 7.3591 16.9618C7.38067 16.9097 7.41228 16.8624 7.45213 16.8226C7.49198 16.7827 7.5393 16.7511 7.59137 16.7295C7.64344 16.7079 7.69926 16.6968 7.75562 16.6968H11.7305V14.0918C11.7305 14.0007 11.7594 13.9121 11.8131 13.8386C11.8668 13.765 11.9425 13.7105 12.0292 13.6828L18.5059 11.0652C18.5709 11.0392 18.6412 11.0295 18.7108 11.037C18.7804 11.0444 18.847 11.0688 18.905 11.1081C18.963 11.1473 19.0104 11.2001 19.0433 11.2619C19.0761 11.3236 19.0933 11.3925 19.0934 11.4625H19.0944V15.6914L22.8768 17.0115C22.9687 17.0354 23.0501 17.0892 23.1081 17.1644C23.1662 17.2396 23.1977 17.3319 23.1978 17.4269V27.0651C24.8978 25.8901 26.2874 24.3202 27.2475 22.4902C28.2077 20.6602 28.7096 18.6247 28.7104 16.5581C28.7104 16.3644 28.7076 16.1953 28.7019 16.0505C28.6997 15.992 28.6968 15.931 28.6932 15.8676C26.3042 15.3354 24.6227 14.2446 23.6488 12.5951C22.6415 10.8892 22.4138 8.61034 22.9655 5.75864H22.9666C22.9698 5.74215 22.9739 5.72585 22.979 5.70984C23.0132 5.60178 23.089 5.51176 23.1896 5.45956C23.2902 5.40737 23.4074 5.39728 23.5155 5.43151C26.8188 6.48784 28.9738 7.86866 29.9806 9.57397C31.0005 11.3015 30.8524 13.3145 29.5359 15.6132ZM19.2631 18.94H20.0598C20.1157 18.9401 20.1692 18.9623 20.2087 19.0018C20.2482 19.0413 20.2704 19.0948 20.2705 19.1506V19.9474C20.2704 20.0032 20.2482 20.0568 20.2087 20.0962C20.1692 20.1357 20.1157 20.158 20.0598 20.1581H19.2631C19.2073 20.1579 19.1537 20.1357 19.1143 20.0962C19.0748 20.0567 19.0526 20.0032 19.0525 19.9474V19.1506C19.0526 19.0948 19.0748 19.0413 19.1143 19.0018C19.1537 18.9623 19.2073 18.9401 19.2631 18.94ZM19.2631 21.3551H20.0598C20.1157 21.3552 20.1692 21.3774 20.2087 21.4169C20.2482 21.4564 20.2704 21.5099 20.2705 21.5657V22.3625C20.2704 22.4183 20.2482 22.4718 20.2087 22.5113C20.1692 22.5508 20.1157 22.573 20.0598 22.5731H19.2631C19.2073 22.573 19.1538 22.5508 19.1143 22.5113C19.0748 22.4718 19.0526 22.4183 19.0525 22.3625V21.5657C19.0526 21.5099 19.0748 21.4564 19.1143 21.4169C19.1537 21.3774 19.2073 21.3552 19.2631 21.3551ZM19.2631 23.7702H20.0598C20.1157 23.7703 20.1692 23.7925 20.2087 23.832C20.2482 23.8715 20.2704 23.925 20.2705 23.9808V24.7776C20.2704 24.8334 20.2482 24.8869 20.2087 24.9264C20.1692 24.9659 20.1157 24.9881 20.0598 24.9882H19.2631C19.2073 24.9881 19.1538 24.9659 19.1143 24.9264C19.0748 24.8869 19.0526 24.8334 19.0525 24.7776V23.9808C19.0525 23.925 19.0747 23.8714 19.1142 23.8319C19.1537 23.7923 19.2072 23.7703 19.2631 23.7702ZM14.063 18.94C14.0072 18.9401 13.9536 18.9623 13.9142 19.0018C13.8747 19.0413 13.8525 19.0948 13.8524 19.1506V19.9474C13.8525 20.0032 13.8747 20.0567 13.9142 20.0962C13.9536 20.1357 14.0072 20.158 14.063 20.1581H14.8597C14.9156 20.158 14.9691 20.1357 15.0086 20.0962C15.048 20.0567 15.0703 20.0032 15.0704 19.9474V19.1506C15.0703 19.0948 15.048 19.0413 15.0086 19.0018C14.9691 18.9623 14.9156 18.9401 14.8597 18.94H14.063ZM14.063 21.3551C14.0072 21.3552 13.9536 21.3774 13.9142 21.4169C13.8747 21.4564 13.8525 21.5099 13.8524 21.5657V22.3625C13.8525 22.4183 13.8747 22.4718 13.9142 22.5113C13.9537 22.5508 14.0072 22.573 14.063 22.5731H14.8597C14.9156 22.573 14.9691 22.5508 15.0085 22.5113C15.048 22.4718 15.0702 22.4183 15.0704 22.3625V21.5657C15.0703 21.5099 15.048 21.4564 15.0086 21.4169C14.9691 21.3774 14.9156 21.3552 14.8597 21.3551H14.063ZM14.063 23.7702C14.0072 23.7703 13.9537 23.7925 13.9142 23.832C13.8747 23.8715 13.8525 23.925 13.8524 23.9808V24.7776C13.8525 24.8334 13.8747 24.8869 13.9142 24.9264C13.9537 24.9659 14.0072 24.9881 14.063 24.9882H14.8597C14.9156 24.9881 14.9691 24.9659 15.0085 24.9264C15.048 24.8869 15.0702 24.8334 15.0704 24.7776V23.9808C15.0702 23.925 15.048 23.8715 15.0085 23.832C14.9691 23.7925 14.9156 23.7703 14.8597 23.7702H14.063ZM9.559 19.549H10.3557C10.4116 19.5491 10.4651 19.5713 10.5046 19.6108C10.5441 19.6503 10.5663 19.7038 10.5664 19.7596V20.5564C10.5663 20.6122 10.5441 20.6657 10.5046 20.7052C10.4651 20.7447 10.4116 20.767 10.3557 20.7671H9.559C9.50317 20.7669 9.44966 20.7447 9.41018 20.7052C9.3707 20.6657 9.34848 20.6122 9.34837 20.5564V19.7596C9.34848 19.7038 9.37071 19.6503 9.41018 19.6108C9.44966 19.5714 9.50317 19.5491 9.559 19.549ZM9.559 21.9641H10.3557C10.4116 21.9642 10.4651 21.9864 10.5046 22.0259C10.5441 22.0654 10.5663 22.119 10.5664 22.1748V22.9715C10.5663 23.0274 10.5441 23.0809 10.5046 23.1204C10.4651 23.1599 10.4116 23.1821 10.3557 23.1822H9.559C9.50316 23.1821 9.44964 23.1599 9.41016 23.1204C9.37068 23.0809 9.34846 23.0274 9.34837 22.9715V22.1748C9.34848 22.119 9.3707 22.0654 9.41018 22.026C9.44966 21.9865 9.50317 21.9642 9.559 21.9641ZM9.559 24.3792H10.3557C10.4116 24.3793 10.4651 24.4015 10.5046 24.441C10.5441 24.4805 10.5663 24.534 10.5664 24.5899V25.3866C10.5663 25.4425 10.5441 25.496 10.5046 25.5355C10.4651 25.5749 10.4116 25.5972 10.3557 25.5972H9.559C9.50317 25.5971 9.44966 25.5749 9.41018 25.5354C9.37071 25.496 9.34848 25.4424 9.34837 25.3866V24.5899C9.34848 24.5341 9.3707 24.4805 9.41018 24.441C9.44966 24.4016 9.50317 24.3793 9.559 24.3792ZM14.0632 16.5168C14.0074 16.5169 13.9539 16.5391 13.9144 16.5786C13.8749 16.6181 13.8527 16.6716 13.8526 16.7274V17.5241C13.8527 17.58 13.8749 17.6335 13.9144 17.673C13.9539 17.7125 14.0074 17.7347 14.0632 17.7348H14.86C14.9158 17.7347 14.9693 17.7125 15.0088 17.673C15.0483 17.6335 15.0705 17.58 15.0706 17.5241V16.7274C15.0705 16.6716 15.0483 16.6181 15.0088 16.5786C14.9693 16.5391 14.9158 16.5169 14.86 16.5168H14.0632Z" fill="#078BCC"/>
<path fill-rule="evenodd" clip-rule="evenodd" d="M28.4007 14.913C28.1355 14.2794 27.8282 13.6643 27.481 13.0717C27.0394 12.3159 26.5197 11.6086 25.9304 10.9614C25.8925 10.92 25.8631 10.8716 25.844 10.8188C25.8248 10.7661 25.8163 10.7101 25.8188 10.654C25.8212 10.598 25.8348 10.543 25.8585 10.4922C25.8823 10.4413 25.9158 10.3957 25.9572 10.3578C25.9986 10.3199 26.047 10.2906 26.0998 10.2714C26.1525 10.2523 26.2085 10.2437 26.2645 10.2462C26.3206 10.2487 26.3756 10.2622 26.4264 10.286C26.4772 10.3097 26.5229 10.3432 26.5608 10.3846C27.1908 11.076 27.7465 11.8316 28.2187 12.6391C28.5702 13.238 28.8829 13.8588 29.155 14.4978C29.9658 12.78 29.9951 11.2841 29.243 10.01C28.3914 8.5675 26.5507 7.36412 23.7211 6.39986C23.3228 8.8135 23.5445 10.7333 24.3864 12.1593C25.1696 13.4859 26.5077 14.4037 28.4007 14.913ZM17.1927 29.2644C19.0072 29.089 20.7626 28.5246 22.3394 27.6097V17.7302L18.5573 16.4106C18.5346 16.4047 18.5126 16.397 18.4912 16.3875L17.1928 15.9343L17.1927 29.2644ZM12.5889 28.8797V14.3804L18.2362 12.0977V15.3918L16.9373 14.9386C16.872 14.9097 16.8004 14.8976 16.7292 14.9033C16.658 14.9091 16.5894 14.9325 16.5296 14.9715C16.4697 15.0105 16.4205 15.0638 16.3865 15.1266C16.3524 15.1894 16.3346 15.2597 16.3346 15.3311V29.3189C16.2047 29.3228 16.0745 29.3248 15.9438 29.3248C14.8108 29.3256 13.6827 29.1759 12.5891 28.8794L12.5889 28.8797ZM8.18485 26.6977C9.25756 27.5204 10.4544 28.167 11.7305 28.6133V17.5555H8.18485V26.6977ZM29.5359 15.6132C29.5443 15.7393 29.5513 15.8751 29.557 16.0204C29.5649 16.2223 29.5688 16.4015 29.5688 16.5581C29.5672 18.6803 29.0702 20.7729 28.1174 22.6692C27.1646 24.5656 25.7824 26.2134 24.0807 27.4815C22.379 28.7495 20.4047 29.6029 18.3151 29.9737C16.2255 30.3444 14.0783 30.2224 12.0441 29.6171C12.0378 29.6154 12.0316 29.6135 12.0254 29.6112C8.89246 28.6707 6.20238 26.6347 4.44641 23.8749C2.69044 21.1152 1.98576 17.8158 2.46107 14.5795C2.93638 11.3432 4.55995 8.38582 7.03528 6.2475C9.51062 4.10917 12.6725 2.93259 15.9436 2.93262C16.0574 2.93262 16.1666 2.97784 16.2471 3.05834C16.3276 3.13883 16.3728 3.24801 16.3728 3.36185C16.3728 3.47569 16.3276 3.58486 16.2471 3.66536C16.1666 3.74586 16.0574 3.79108 15.9436 3.79108C13.4185 3.79104 10.9501 4.53979 8.85057 5.94263C6.75103 7.34548 5.11465 9.33942 4.14835 11.6723C3.18205 14.0052 2.92923 16.5722 3.42188 19.0487C3.91453 21.5253 5.13051 23.8002 6.91605 25.5856C7.04982 25.7194 7.18662 25.8502 7.32645 25.978V17.1261C7.32644 17.0697 7.33754 17.0139 7.3591 16.9618C7.38067 16.9097 7.41228 16.8624 7.45213 16.8226C7.49198 16.7827 7.5393 16.7511 7.59137 16.7295C7.64344 16.7079 7.69926 16.6968 7.75562 16.6968H11.7305V14.0918C11.7305 14.0007 11.7594 13.9121 11.8131 13.8386C11.8668 13.765 11.9425 13.7105 12.0292 13.6828L18.5059 11.0652C18.5709 11.0392 18.6412 11.0295 18.7108 11.037C18.7804 11.0444 18.847 11.0688 18.905 11.1081C18.963 11.1473 19.0104 11.2001 19.0433 11.2619C19.0761 11.3236 19.0933 11.3925 19.0934 11.4625H19.0944V15.6914L22.8768 17.0115C22.9687 17.0354 23.0501 17.0892 23.1081 17.1644C23.1662 17.2396 23.1977 17.3319 23.1978 17.4269V27.0651C24.8978 25.8901 26.2874 24.3202 27.2475 22.4902C28.2077 20.6602 28.7096 18.6247 28.7104 16.5581C28.7104 16.3644 28.7076 16.1953 28.7019 16.0505C28.6997 15.992 28.6968 15.931 28.6932 15.8676C26.3042 15.3354 24.6227 14.2446 23.6488 12.5951C22.6415 10.8892 22.4138 8.61034 22.9655 5.75864H22.9666C22.9698 5.74215 22.9739 5.72585 22.979 5.70984C23.0132 5.60178 23.089 5.51176 23.1896 5.45956C23.2902 5.40737 23.4074 5.39728 23.5155 5.43151C26.8188 6.48784 28.9738 7.86866 29.9806 9.57397C31.0005 11.3015 30.8524 13.3145 29.5359 15.6132ZM19.2631 18.94H20.0598C20.1157 18.9401 20.1692 18.9623 20.2087 19.0018C20.2482 19.0413 20.2704 19.0948 20.2705 19.1506V19.9474C20.2704 20.0032 20.2482 20.0568 20.2087 20.0962C20.1692 20.1357 20.1157 20.158 20.0598 20.1581H19.2631C19.2073 20.1579 19.1537 20.1357 19.1143 20.0962C19.0748 20.0567 19.0526 20.0032 19.0525 19.9474V19.1506C19.0526 19.0948 19.0748 19.0413 19.1143 19.0018C19.1537 18.9623 19.2073 18.9401 19.2631 18.94ZM19.2631 21.3551H20.0598C20.1157 21.3552 20.1692 21.3774 20.2087 21.4169C20.2482 21.4564 20.2704 21.5099 20.2705 21.5657V22.3625C20.2704 22.4183 20.2482 22.4718 20.2087 22.5113C20.1692 22.5508 20.1157 22.573 20.0598 22.5731H19.2631C19.2073 22.573 19.1538 22.5508 19.1143 22.5113C19.0748 22.4718 19.0526 22.4183 19.0525 22.3625V21.5657C19.0526 21.5099 19.0748 21.4564 19.1143 21.4169C19.1537 21.3774 19.2073 21.3552 19.2631 21.3551ZM19.2631 23.7702H20.0598C20.1157 23.7703 20.1692 23.7925 20.2087 23.832C20.2482 23.8715 20.2704 23.925 20.2705 23.9808V24.7776C20.2704 24.8334 20.2482 24.8869 20.2087 24.9264C20.1692 24.9659 20.1157 24.9881 20.0598 24.9882H19.2631C19.2073 24.9881 19.1538 24.9659 19.1143 24.9264C19.0748 24.8869 19.0526 24.8334 19.0525 24.7776V23.9808C19.0525 23.925 19.0747 23.8714 19.1142 23.8319C19.1537 23.7923 19.2072 23.7703 19.2631 23.7702ZM14.063 18.94C14.0072 18.9401 13.9536 18.9623 13.9142 19.0018C13.8747 19.0413 13.8525 19.0948 13.8524 19.1506V19.9474C13.8525 20.0032 13.8747 20.0567 13.9142 20.0962C13.9536 20.1357 14.0072 20.158 14.063 20.1581H14.8597C14.9156 20.158 14.9691 20.1357 15.0086 20.0962C15.048 20.0567 15.0703 20.0032 15.0704 19.9474V19.1506C15.0703 19.0948 15.048 19.0413 15.0086 19.0018C14.9691 18.9623 14.9156 18.9401 14.8597 18.94H14.063ZM14.063 21.3551C14.0072 21.3552 13.9536 21.3774 13.9142 21.4169C13.8747 21.4564 13.8525 21.5099 13.8524 21.5657V22.3625C13.8525 22.4183 13.8747 22.4718 13.9142 22.5113C13.9537 22.5508 14.0072 22.573 14.063 22.5731H14.8597C14.9156 22.573 14.9691 22.5508 15.0085 22.5113C15.048 22.4718 15.0702 22.4183 15.0704 22.3625V21.5657C15.0703 21.5099 15.048 21.4564 15.0086 21.4169C14.9691 21.3774 14.9156 21.3552 14.8597 21.3551H14.063ZM14.063 23.7702C14.0072 23.7703 13.9537 23.7925 13.9142 23.832C13.8747 23.8715 13.8525 23.925 13.8524 23.9808V24.7776C13.8525 24.8334 13.8747 24.8869 13.9142 24.9264C13.9537 24.9659 14.0072 24.9881 14.063 24.9882H14.8597C14.9156 24.9881 14.9691 24.9659 15.0085 24.9264C15.048 24.8869 15.0702 24.8334 15.0704 24.7776V23.9808C15.0702 23.925 15.048 23.8715 15.0085 23.832C14.9691 23.7925 14.9156 23.7703 14.8597 23.7702H14.063ZM9.559 19.549H10.3557C10.4116 19.5491 10.4651 19.5713 10.5046 19.6108C10.5441 19.6503 10.5663 19.7038 10.5664 19.7596V20.5564C10.5663 20.6122 10.5441 20.6657 10.5046 20.7052C10.4651 20.7447 10.4116 20.767 10.3557 20.7671H9.559C9.50317 20.7669 9.44966 20.7447 9.41018 20.7052C9.3707 20.6657 9.34848 20.6122 9.34837 20.5564V19.7596C9.34848 19.7038 9.37071 19.6503 9.41018 19.6108C9.44966 19.5714 9.50317 19.5491 9.559 19.549ZM9.559 21.9641H10.3557C10.4116 21.9642 10.4651 21.9864 10.5046 22.0259C10.5441 22.0654 10.5663 22.119 10.5664 22.1748V22.9715C10.5663 23.0274 10.5441 23.0809 10.5046 23.1204C10.4651 23.1599 10.4116 23.1821 10.3557 23.1822H9.559C9.50316 23.1821 9.44964 23.1599 9.41016 23.1204C9.37068 23.0809 9.34846 23.0274 9.34837 22.9715V22.1748C9.34848 22.119 9.3707 22.0654 9.41018 22.026C9.44966 21.9865 9.50317 21.9642 9.559 21.9641ZM9.559 24.3792H10.3557C10.4116 24.3793 10.4651 24.4015 10.5046 24.441C10.5441 24.4805 10.5663 24.534 10.5664 24.5899V25.3866C10.5663 25.4425 10.5441 25.496 10.5046 25.5355C10.4651 25.5749 10.4116 25.5972 10.3557 25.5972H9.559C9.50317 25.5971 9.44966 25.5749 9.41018 25.5354C9.37071 25.496 9.34848 25.4424 9.34837 25.3866V24.5899C9.34848 24.5341 9.3707 24.4805 9.41018 24.441C9.44966 24.4016 9.50317 24.3793 9.559 24.3792ZM14.0632 16.5168C14.0074 16.5169 13.9539 16.5391 13.9144 16.5786C13.8749 16.6181 13.8527 16.6716 13.8526 16.7274V17.5241C13.8527 17.58 13.8749 17.6335 13.9144 17.673C13.9539 17.7125 14.0074 17.7347 14.0632 17.7348H14.86C14.9158 17.7347 14.9693 17.7125 15.0088 17.673C15.0483 17.6335 15.0705 17.58 15.0706 17.5241V16.7274C15.0705 16.6716 15.0483 16.6181 15.0088 16.5786C14.9693 16.5391 14.9158 16.5169 14.86 16.5168H14.0632Z" stroke="#078BCC" stroke-width="0.141666" mask="url(#path-1-outside-1_331_1827)"/>
</g>
<defs>
<clipPath id="clip0_331_1827">
<rect width="32" height="32" fill="white"/>
</clipPath>
</defs>
</svg>
