<svg width="34" height="35" viewBox="0 0 34 35" fill="none" xmlns="http://www.w3.org/2000/svg">
<path d="M25.3883 22.2609C25.3883 26.4494 21.6937 29.9121 17.0505 29.9121C12.4071 29.9121 8.71263 26.4497 8.71263 22.2609C8.71263 18.5751 10.8449 14.4021 13.0464 11.0938C14.1389 9.45207 15.2323 8.04674 16.0527 7.05179C16.4627 6.55459 16.804 6.16055 17.0422 5.89147C17.0449 5.88834 17.0477 5.88522 17.0505 5.88212C17.0532 5.88522 17.056 5.88834 17.0587 5.89147C17.2969 6.16055 17.6382 6.55459 18.0482 7.05179C18.8686 8.04674 19.962 9.45207 21.0545 11.0938C23.256 14.4021 25.3883 18.5751 25.3883 22.2609Z" stroke="#00D3D3" stroke-width="0.991661"/>
</svg>
