<svg width="35" height="35" viewBox="0 0 35 35" fill="none" xmlns="http://www.w3.org/2000/svg">
<path d="M16.4173 3.68095C16.6323 3.45093 16.8291 3.24629 17.0032 3.06892V17.8926V31.5369C14.9401 31.3132 12.9572 29.7168 11.4254 27.4489C9.78218 25.0161 8.75364 21.9427 8.75364 19.3859C8.75364 14.9775 10.9921 10.7085 13.2818 7.5048C14.4215 5.91027 15.5619 4.59614 16.4173 3.68095ZM17.9949 17.8926V3.11701C18.1462 3.28058 18.3145 3.46575 18.4964 3.67116C19.3069 4.58609 20.3878 5.90006 21.4679 7.49457C23.6372 10.6968 25.762 14.9696 25.762 19.3859C25.762 21.9558 24.8457 25.0339 23.3223 27.4629C21.9027 29.7262 20.0335 31.3127 17.9949 31.5367V17.8926Z" stroke="#5EB700" stroke-width="0.991661"/>
<path opacity="0.99" d="M14.5 21.8926L17.5 24.8926L20.5 21.8926" stroke="#5EB700" stroke-width="0.99" stroke-linecap="round" stroke-linejoin="round"/>
<path opacity="0.99" d="M19.5 13.8926L17.5 15.8926L15.5 13.8926" stroke="#5EB700" stroke-width="0.99" stroke-linecap="round" stroke-linejoin="round"/>
</svg>
