<svg width="35" height="35" viewBox="0 0 35 35" fill="none" xmlns="http://www.w3.org/2000/svg">
<path d="M29.7196 25.3402C28.9119 25.3402 28.2532 25.9989 28.2532 26.8066V26.8836H21.9979V26.2681C21.9979 25.5181 21.3873 24.9026 20.6324 24.9026H19.1179V23.7727H19.892C20.142 23.7727 20.3487 23.5708 20.3487 23.316V21.3687C24.1952 20.1715 26.9983 16.5751 26.9983 12.3344C26.9983 7.11766 22.7576 2.87695 17.5408 2.87695C12.3241 2.87695 8.0834 7.11766 8.0834 12.3344C8.0834 16.5703 10.8865 20.1667 14.7329 21.3687V23.316C14.7329 23.566 14.9349 23.7727 15.1897 23.7727H15.9638V24.9026H14.4493C13.6992 24.9026 13.0838 25.5133 13.0838 26.2681V26.8836H6.8333V26.8066C6.8333 25.9989 6.1746 25.3402 5.36685 25.3402C4.55909 25.3402 3.90039 25.9989 3.90039 26.8066V30.8791C3.90039 31.6868 4.55909 32.3455 5.36685 32.3455C6.1746 32.3455 6.8333 31.6868 6.8333 30.8791V30.5425H13.0886V31.1579C13.0886 31.908 13.6992 32.5234 14.4541 32.5234H20.6372C21.3873 32.5234 22.0027 31.9128 22.0027 31.1579V30.5425H28.258V30.8791C28.258 31.6868 28.9167 32.3455 29.7244 32.3455C30.5322 32.3455 31.1909 31.6868 31.1909 30.8791V26.8066C31.1861 25.9989 30.5274 25.3402 29.7196 25.3402ZM5.91977 27.3403V30.0905V30.8839C5.91977 31.1916 5.66975 31.4416 5.36204 31.4416C5.05432 31.4416 4.8043 31.1916 4.8043 30.8839V26.8114C4.8043 26.5037 5.05432 26.2537 5.36204 26.2537C5.66975 26.2537 5.91977 26.5037 5.91977 26.8114V27.3403ZM13.0838 29.6338H6.8333V27.7923H13.0886V29.6338H13.0838ZM8.99212 12.344C8.99212 7.63212 12.8289 3.79529 17.5408 3.79529C22.2527 3.79529 26.0896 7.63212 26.0896 12.344C26.0896 17.0559 22.2527 20.8927 17.5408 20.8927C12.8289 20.8927 8.99212 17.0607 8.99212 12.344ZM15.6417 22.8688V21.6091C16.2571 21.7341 16.8917 21.8014 17.5408 21.8014C18.1899 21.8014 18.8246 21.7341 19.44 21.6091V22.8688H15.6417ZM18.2092 23.7776V24.9074H16.8725V23.7776H18.2092ZM21.0844 31.1579C21.0844 31.4079 20.8824 31.6147 20.6276 31.6147H14.4493C14.1992 31.6147 13.9925 31.4127 13.9925 31.1579V26.2729C13.9925 26.0229 14.1944 25.8162 14.4493 25.8162H20.6324C20.8824 25.8162 21.0892 26.0181 21.0892 26.2729V31.1579H21.0844ZM28.2484 29.6338H21.9979V27.7923H28.2532V29.6338H28.2484ZM30.2774 30.8791C30.2774 31.1868 30.0273 31.4368 29.7196 31.4368C29.4119 31.4368 29.1619 31.1868 29.1619 30.8791V30.0857V27.3355V26.8018C29.1619 26.4941 29.4119 26.2441 29.7196 26.2441C30.0273 26.2441 30.2774 26.4941 30.2774 26.8018V30.8791Z" fill="#0675AA"/>
<path d="M14.804 6.70189C15.5252 6.3509 16.2993 6.14896 17.0782 6.09126V6.37013C17.0782 6.62015 17.2801 6.8269 17.5349 6.8269C17.785 6.8269 17.9917 6.62496 17.9917 6.37013V6.09126C18.7754 6.14896 19.5495 6.3509 20.2707 6.69708L20.1313 6.94229C20.0063 7.15865 20.0784 7.43752 20.2996 7.56253C20.3717 7.6058 20.4486 7.62503 20.5256 7.62503C20.6842 7.62503 20.8333 7.5433 20.9198 7.39905L21.0641 7.15384C21.3862 7.37501 21.6987 7.62503 21.9824 7.90871C22.2661 8.19238 22.5113 8.5001 22.7324 8.82224L22.4872 8.96648C22.2709 9.09149 22.1939 9.37036 22.319 9.58672C22.4055 9.73096 22.5545 9.8127 22.7132 9.8127C22.7901 9.8127 22.8671 9.79346 22.9392 9.75019L23.1892 9.60595C23.5354 10.3224 23.7373 11.0964 23.795 11.885H23.5114C23.2613 11.885 23.0546 12.0869 23.0546 12.3417C23.0546 12.5966 23.2565 12.7985 23.5114 12.7985H23.7902C23.7373 13.5774 23.5354 14.3515 23.1844 15.0775L22.9344 14.9333C22.718 14.8083 22.4392 14.8804 22.3141 15.1016C22.1891 15.3179 22.2613 15.5968 22.4824 15.7218L23.1363 16.1016C23.1892 16.1305 23.2421 16.1449 23.295 16.1545C23.3046 16.1545 23.3142 16.1593 23.3286 16.1593C23.3383 16.1593 23.3527 16.1641 23.3623 16.1641C23.4008 16.1641 23.4392 16.1593 23.4777 16.1497C23.4873 16.1449 23.5017 16.1401 23.5114 16.1353C23.545 16.1209 23.5787 16.1064 23.6075 16.0872C23.6267 16.0728 23.6412 16.0632 23.6604 16.0487C23.6844 16.0295 23.7037 16.0055 23.7229 15.9766C23.7325 15.9622 23.7469 15.9526 23.7566 15.9382C24.396 14.8227 24.7037 13.5918 24.7086 12.3706C24.7086 12.361 24.7134 12.3562 24.7134 12.3513C24.7134 12.3417 24.7086 12.3369 24.7086 12.3273C24.7037 11.0868 24.3816 9.85116 23.7518 8.75973C23.444 8.22604 23.0642 7.726 22.6171 7.27405C22.1651 6.82209 21.6699 6.45668 21.141 6.14896C21.1362 6.14415 21.1314 6.13934 21.1218 6.13454C21.1169 6.12973 21.1073 6.12973 21.1025 6.12973C20.0015 5.49987 18.7706 5.17773 17.5349 5.17773C16.2993 5.17773 15.0684 5.50468 13.9674 6.13454C13.9626 6.13934 13.9529 6.13934 13.9481 6.13934C13.9433 6.14415 13.9385 6.14896 13.9289 6.15377C13.4048 6.45668 12.9096 6.8269 12.4624 7.27405C12.0105 7.726 11.6307 8.23085 11.3229 8.76454C10.6931 9.85597 10.3709 11.0868 10.3661 12.3321C10.3661 12.3417 10.3613 12.3465 10.3613 12.3562C10.3613 12.361 10.3661 12.3706 10.3661 12.3754C10.3709 13.6014 10.6787 14.8323 11.3229 15.9478C11.3854 16.0535 11.4816 16.1305 11.6018 16.1593C11.6403 16.1689 11.6787 16.1737 11.7172 16.1737C11.7989 16.1737 11.8759 16.1545 11.9432 16.1112L12.6019 15.7314C12.8182 15.6064 12.8952 15.3275 12.7654 15.1112C12.6403 14.8948 12.3615 14.8227 12.1451 14.9477L11.8951 15.0919C11.5441 14.3659 11.3422 13.5918 11.2845 12.8129H11.5681C11.8182 12.8129 12.0249 12.611 12.0249 12.3562C12.0249 12.1061 11.823 11.8994 11.5681 11.8994H11.2893C11.347 11.1109 11.5537 10.3368 11.8999 9.62038L12.1451 9.75981C12.2172 9.80308 12.2942 9.82231 12.3711 9.82231C12.5298 9.82231 12.6788 9.74058 12.7654 9.59633C12.8904 9.37997 12.8182 9.10111 12.5971 8.9761L12.3519 8.83185C12.573 8.50491 12.8182 8.19719 13.1067 7.91352C13.3904 7.62984 13.6981 7.37982 14.0203 7.16346L14.1645 7.40867C14.251 7.55291 14.4001 7.63465 14.5588 7.63465C14.6357 7.63465 14.7126 7.61542 14.7847 7.57214C15.0011 7.44714 15.078 7.16827 14.953 6.95191L14.804 6.70189Z" fill="#0675AA"/>
<path d="M19.3439 13.9037C19.3439 13.4085 19.1468 12.9613 18.8342 12.6248L20.2766 10.4034C20.4113 10.1919 20.3536 9.91303 20.142 9.77359C19.9305 9.63897 19.6516 9.69666 19.5122 9.90822L18.0697 12.1343C17.8774 12.067 17.6755 12.0238 17.4639 12.0238C16.4254 12.0238 15.584 12.8652 15.584 13.9037C15.584 14.9422 16.4254 15.7837 17.4639 15.7837C18.5025 15.7837 19.3439 14.9422 19.3439 13.9037ZM17.4639 14.8749C16.9302 14.8749 16.4927 14.4422 16.4927 13.9037C16.4927 13.3652 16.9302 12.9325 17.4639 12.9325C17.9976 12.9325 18.4352 13.37 18.4352 13.9037C18.4352 14.4374 17.9976 14.8749 17.4639 14.8749Z" fill="#0675AA"/>
</svg>
