<svg width="29" height="29" viewBox="0 0 29 29" fill="none" xmlns="http://www.w3.org/2000/svg">
<path d="M7.93259 18.287C7.93259 21.7378 10.9764 24.5903 14.8014 24.5903C18.6264 24.5903 21.6701 21.738 21.6701 18.287C21.6701 15.2509 19.9137 11.8138 18.1007 9.08925C17.2009 7.73712 16.3005 6.57972 15.6248 5.76031C15.2871 5.35082 15.006 5.0263 14.8099 4.80468C14.807 4.80145 14.8042 4.79824 14.8014 4.79505C14.7985 4.79824 14.7957 4.80145 14.7928 4.80468C14.5967 5.0263 14.3156 5.35082 13.9779 5.76031C13.3022 6.57972 12.4018 7.73712 11.502 9.08925C9.68898 11.8138 7.93259 15.2509 7.93259 18.287Z" stroke="#111622" stroke-width="0.812113"/>
</svg>
