<svg width="50" height="50" viewBox="0 0 50 50" fill="none" xmlns="http://www.w3.org/2000/svg">
<g clip-path="url(#clip0_310_2451)">
<path d="M49.8706 32.598L44.596 23.3973C44.422 23.0937 44.0986 22.9064 43.7487 22.9064H35.4783V15.9622C35.4783 15.4228 35.041 14.9854 34.5015 14.9854H30.9744C30.4349 14.9854 29.9976 15.4228 29.9976 15.9622C29.9976 16.5016 30.4349 16.939 30.9744 16.939H33.5246V40.7245H16.947C16.1944 39.7681 15.0275 39.1521 13.7189 39.1521C12.4104 39.1521 11.2435 39.7681 10.4909 40.7245H7.21745V37.1128H26.6873C27.2268 37.1128 27.6641 36.6754 27.6641 36.136C27.6641 35.5967 27.2268 35.1593 26.6873 35.1593H7.21745V26.4619C8.82375 27.2143 10.6148 27.6357 12.5027 27.6357C19.3967 27.6357 25.0053 22.027 25.0053 15.133C25.0053 8.23908 19.3967 2.63037 12.5027 2.63037C5.60862 2.63037 0 8.23908 0 15.133C0 19.3314 2.08013 23.0531 5.26391 25.3216V41.7012C5.26391 42.2406 5.70121 42.678 6.24068 42.678H9.65362C9.62656 42.8679 9.61171 43.0618 9.61171 43.2592C9.61171 45.524 11.4542 47.3665 13.7189 47.3665C15.9837 47.3665 17.8262 45.524 17.8262 43.2592C17.8262 43.0618 17.8113 42.8679 17.7843 42.678H34.5015H38.3492C38.3221 42.8679 38.3073 43.0618 38.3073 43.2592C38.3073 45.524 40.1498 47.3665 42.4145 47.3665C44.6792 47.3665 46.5217 45.524 46.5217 43.2592C46.5217 43.0618 46.5069 42.8679 46.4798 42.678H49.0232C49.5627 42.678 50 42.2406 50 41.7012V33.0837C50 32.9134 49.9554 32.7459 49.8706 32.598ZM1.95354 15.133C1.95354 9.31617 6.6859 4.58391 12.5027 4.58391C18.3194 4.58391 23.0518 9.31617 23.0518 15.133C23.0518 20.9499 18.3194 25.6822 12.5027 25.6822C10.4088 25.6822 8.45551 25.0688 6.81278 24.0126C6.78982 23.9959 6.76599 23.9803 6.74157 23.9657C3.86088 22.0803 1.95354 18.8255 1.95354 15.133ZM13.7189 45.4129C12.5314 45.4129 11.5653 44.4468 11.5653 43.2592C11.5653 42.0717 12.5314 41.1056 13.7189 41.1056C14.9065 41.1056 15.8726 42.0717 15.8726 43.2592C15.8726 44.4468 14.9064 45.4129 13.7189 45.4129ZM47.3373 32.1071H39.8416V24.8599H43.1827L47.3373 32.1071ZM42.4145 45.4129C41.2269 45.4129 40.2608 44.4468 40.2608 43.2592C40.2608 42.0717 41.2269 41.1056 42.4145 41.1056C43.6021 41.1056 44.5682 42.0717 44.5682 43.2592C44.5682 44.4468 43.6021 45.4129 42.4145 45.4129ZM45.6425 40.7244C44.8899 39.768 43.7231 39.152 42.4145 39.152C41.0873 39.152 39.9058 39.7853 39.1544 40.7651C39.0663 40.7389 38.9731 40.7243 38.8764 40.7243H35.4783V24.8598H37.888V33.0837C37.888 33.6231 38.3253 34.0605 38.8648 34.0605H48.0465V34.891H47.3528C46.8133 34.891 46.376 35.3284 46.376 35.8678C46.376 36.4072 46.8133 36.8446 47.3528 36.8446H48.0465V40.7244H45.6425Z" fill="#3077DD"/>
<path d="M27.4963 16.9394C27.7532 16.9394 28.0052 16.8349 28.1869 16.6531C28.3686 16.4715 28.4731 16.2195 28.4731 15.9626C28.4731 15.7056 28.3686 15.4537 28.1869 15.272C28.0052 15.0904 27.7532 14.9858 27.4963 14.9858C27.2394 14.9858 26.9874 15.0903 26.8057 15.272C26.624 15.4537 26.5195 15.7047 26.5195 15.9626C26.5195 16.2195 26.624 16.4715 26.8057 16.6531C26.9875 16.8348 27.2395 16.9394 27.4963 16.9394Z" fill="#3077DD"/>
<path d="M30.594 37.1122C30.8508 37.1122 31.1029 37.0087 31.2845 36.827C31.4662 36.6444 31.5707 36.3924 31.5707 36.1355C31.5707 35.8786 31.4662 35.6266 31.2845 35.445C31.1029 35.2633 30.8508 35.1587 30.594 35.1587C30.3371 35.1587 30.0851 35.2632 29.9034 35.445C29.7217 35.6266 29.6172 35.8786 29.6172 36.1355C29.6172 36.3924 29.7217 36.6444 29.9034 36.827C30.085 37.0087 30.337 37.1122 30.594 37.1122Z" fill="#3077DD"/>
<path d="M12.4924 24.2973C13.0319 24.2973 13.4692 23.8599 13.4692 23.3206V22.611C13.4692 22.0717 13.0319 21.6343 12.4924 21.6343C11.9529 21.6343 11.5156 22.0717 11.5156 22.611V23.3206C11.5156 23.8599 11.9529 24.2973 12.4924 24.2973Z" fill="#3077DD"/>
<path d="M12.5119 8.63133C13.0514 8.63133 13.4887 8.19393 13.4887 7.65456V6.94503C13.4887 6.40566 13.0514 5.96826 12.5119 5.96826C11.9725 5.96826 11.5352 6.40566 11.5352 6.94503V7.65456C11.5352 8.19393 11.9725 8.63133 12.5119 8.63133Z" fill="#3077DD"/>
<path d="M5.02409 14.147H4.31466C3.77519 14.147 3.33789 14.5844 3.33789 15.1237C3.33789 15.6631 3.77519 16.1005 4.31466 16.1005H5.02409C5.56356 16.1005 6.00086 15.6631 6.00086 15.1237C6.00086 14.5844 5.56356 14.147 5.02409 14.147Z" fill="#3077DD"/>
<path d="M12.5022 16.1098H19.9481C20.4876 16.1098 20.9249 15.6724 20.9249 15.133C20.9249 14.5936 20.4876 14.1562 19.9481 14.1562H13.4789V12.0051C13.4789 11.4657 13.0416 11.0283 12.5022 11.0283C11.9627 11.0283 11.5254 11.4657 11.5254 12.0051V15.133C11.5254 15.6725 11.9627 16.1098 12.5022 16.1098Z" fill="#3077DD"/>
</g>
<defs>
<clipPath id="clip0_310_2451">
<rect width="50" height="50" fill="white"/>
</clipPath>
</defs>
</svg>
