<svg width="50" height="50" viewBox="0 0 50 50" fill="none" xmlns="http://www.w3.org/2000/svg">
<path d="M12.7099 14.6748C14.5842 14.9374 16.3024 15.7137 17.6782 16.9198C20.0136 18.9668 23.018 20.1669 26.1381 20.2991C26.3296 20.3071 26.5207 20.3112 26.7119 20.3112C29.6786 20.3112 32.5912 19.3393 34.97 17.5453C35.9343 16.818 36.7894 15.974 37.5251 15.0318C38.3616 15.7849 39.1256 16.6191 39.7984 17.5204C39.9634 17.7413 40.2163 17.858 40.4722 17.858C40.647 17.858 40.8233 17.8036 40.9741 17.6911C41.3459 17.4135 41.4223 16.8872 41.1448 16.5154C40.2636 15.3349 39.2396 14.2595 38.1077 13.3152C37.6473 11.9527 36.9725 10.6685 36.0987 9.49485C34.3059 7.0863 31.8314 5.37228 28.9426 4.53804C26.1482 3.73119 23.111 3.8346 20.3906 4.82945C19.9548 4.98872 19.7308 5.47116 19.8902 5.90688C20.0494 6.34253 20.5318 6.56665 20.9676 6.40729C23.3555 5.53399 26.0222 5.44344 28.4764 6.15217C31.0095 6.88368 33.1793 8.38642 34.7511 10.498C34.972 10.7948 35.1765 11.1004 35.3682 11.4123C35.1293 11.2761 34.8885 11.1435 34.644 11.0181C32.1996 9.76475 29.574 9.08004 26.8295 8.97528L24.9184 7.29034C24.5703 6.98356 24.0396 7.01691 23.7327 7.36493C23.426 7.71296 23.4593 8.24378 23.8073 8.55056L24.3602 9.03795C23.0842 9.15438 21.8269 9.39992 20.6048 9.7724C20.161 9.90764 19.9108 10.3771 20.0462 10.8208C20.1813 11.2646 20.6512 11.515 21.0945 11.3795C22.7058 10.8884 24.3854 10.6394 26.0869 10.6394C27.5643 10.6394 29.0054 10.8237 30.3998 11.1863L28.3801 12.8426C28.0214 13.1368 27.969 13.6661 28.2632 14.0249C28.4294 14.2274 28.6703 14.3323 28.9132 14.3323C29.1006 14.3323 29.2892 14.2699 29.4455 14.1418L32.2978 11.8025C32.8327 12.0119 33.3598 12.2476 33.8774 12.5131C34.6965 12.933 35.4812 13.4226 36.2237 13.9709C35.5734 14.8088 34.8143 15.5581 33.9582 16.204C31.7362 17.8798 28.9838 18.7379 26.209 18.6206C23.4702 18.5047 20.8339 17.4519 18.7855 15.6564C17.4133 14.4537 15.7567 13.6139 13.948 13.1969C14.3177 12.2764 14.7976 11.409 15.3807 10.6089C15.6539 10.234 15.5714 9.70847 15.1965 9.43529C14.8216 9.16219 14.296 9.24452 14.0228 9.61951C13.1458 10.8233 12.4735 12.1598 12.0247 13.592C11.951 13.8275 11.9845 14.0835 12.1165 14.2921C12.2484 14.5005 12.4654 14.6406 12.7099 14.6748Z" fill="#6DB745"/>
<path d="M20.7611 38.2453C21.3662 35.1992 20.9034 31.9973 19.4577 29.2291C17.9921 26.4227 15.5768 24.1953 12.6569 22.9574C11.545 22.486 10.3868 22.1654 9.20292 21.9994C9.43678 20.899 9.77717 19.8209 10.221 18.7882C10.4043 18.362 10.2072 17.8679 9.78103 17.6847C9.35438 17.5014 8.86069 17.6986 8.67748 18.1248C8.09583 19.4782 7.67649 20.9027 7.42456 22.3552C6.4749 23.4349 5.70014 24.6616 5.12051 26.0051C3.6738 29.3582 3.62651 33.0811 4.98728 36.4878C6.35511 39.9126 8.97628 42.596 12.368 44.044C14.0725 44.7717 15.8778 45.1393 17.7007 45.1393C18.7016 45.1393 19.7082 45.0284 20.7056 44.8054C20.9465 44.7515 21.1516 44.5945 21.2662 44.3759C21.3809 44.1573 21.3937 43.8993 21.3011 43.6706C20.5915 41.9157 20.4046 40.0398 20.7611 38.2453ZM13.0277 42.4986C10.0499 41.2274 7.74848 38.8714 6.54756 35.8645C5.3537 32.8756 5.39478 29.6105 6.66315 26.6705C6.80974 26.3308 6.97203 26.0008 7.14643 25.6789C7.14785 25.9539 7.1534 26.2287 7.16709 26.5032C7.30385 29.2467 8.02368 31.863 9.30532 34.2922L8.80172 36.7898C8.70999 37.2446 9.00433 37.6876 9.45913 37.7792C9.51516 37.7905 9.57102 37.796 9.62605 37.796C10.0177 37.796 10.3682 37.5205 10.4486 37.1218L10.5943 36.3994C11.3331 37.4462 12.1745 38.4124 13.108 39.2844C13.27 39.4357 13.4758 39.5106 13.6812 39.5106C13.9059 39.5106 14.1299 39.421 14.2953 39.2439C14.6121 38.9049 14.5939 38.3733 14.2549 38.0566C13.0241 36.9068 11.9686 35.5767 11.1178 34.1032C10.3791 32.8237 9.81816 31.4835 9.43494 30.0947L11.8793 31.0156C11.9768 31.0524 12.0769 31.0698 12.1752 31.0698C12.5148 31.0698 12.8346 30.8623 12.9614 30.5257C13.125 30.0916 12.9057 29.6069 12.4715 29.4434L9.01945 28.1428C8.93335 27.5749 8.87396 27.0005 8.84498 26.4194C8.7992 25.5002 8.8307 24.5757 8.93427 23.6586C9.98516 23.8029 11.0137 24.0855 12.001 24.5041C14.5633 25.5904 16.6825 27.5447 17.9684 30.0068C19.2373 32.4366 19.6438 35.2461 19.1131 37.9178C18.7576 39.7077 18.8585 41.5622 19.4019 43.3372C17.2359 43.647 15.0503 43.3621 13.0277 42.4986Z" fill="#6DB745"/>
<path d="M46.8975 29.2952C46.5535 26.4449 45.34 23.8163 43.388 21.6938C43.221 21.512 42.9806 21.4128 42.7358 21.4231C42.4891 21.433 42.2595 21.5509 42.1076 21.7455C40.943 23.2375 39.4117 24.3372 37.6792 24.9257C34.7388 25.9247 32.1972 27.9266 30.5228 30.5626C28.8252 33.2351 28.1038 36.4405 28.4917 39.5882C28.6394 40.7868 28.9409 41.9501 29.389 43.0584C28.3191 43.406 27.2153 43.6504 26.0989 43.7823C25.6382 43.8367 25.3089 44.2544 25.3633 44.715C25.4138 45.1423 25.7766 45.4565 26.1965 45.4565C26.2294 45.4565 26.2626 45.4546 26.2962 45.4506C27.7596 45.2777 29.2034 44.9284 30.5876 44.4201C31.4693 44.5967 32.3662 44.6863 33.2701 44.6863C33.8113 44.6863 34.355 44.6545 34.8991 44.591C38.5264 44.1673 41.7741 42.3469 44.0441 39.4651C46.3262 36.568 47.3394 32.9563 46.8975 29.2952ZM42.7244 38.4254C40.7328 40.9538 37.8845 42.5508 34.7043 42.9223C34.3367 42.9652 33.9698 42.9897 33.6038 42.9997C33.8412 42.861 34.0765 42.7187 34.3073 42.5697C36.6149 41.0795 38.5208 39.1479 39.9837 36.8235L42.3985 36.0108C42.8382 35.8628 43.0747 35.3864 42.9267 34.9467C42.7788 34.5072 42.3026 34.2703 41.8626 34.4185L41.1641 34.6537C41.7013 33.4905 42.1172 32.2788 42.4057 31.0342C42.5105 30.5823 42.2291 30.1309 41.7771 30.0261C41.3253 29.9213 40.8739 30.2028 40.7691 30.6547C40.3887 32.2958 39.7645 33.875 38.9138 35.3484C38.1751 36.6278 37.2949 37.7836 36.2838 38.8099L35.8591 36.2326C35.7837 35.7749 35.3528 35.465 34.8937 35.5402C34.4359 35.6157 34.126 36.0479 34.2014 36.5057L34.8011 40.1456C34.3524 40.5041 33.8846 40.8427 33.3959 41.1583C32.6226 41.6576 31.8064 42.0925 30.9603 42.4614C30.5598 41.4792 30.2903 40.4471 30.1592 39.3828C29.8189 36.6206 30.4516 33.8082 31.941 31.4635C33.4108 29.1497 35.6406 27.3928 38.2197 26.5166C39.9475 25.9295 41.5032 24.9149 42.7686 23.5569C44.1202 25.2779 44.9661 27.3132 45.2296 29.4965C45.6175 32.7109 44.7278 35.882 42.7244 38.4254Z" fill="#6DB745"/>
<path d="M17.3557 8.26357C17.8196 8.26357 18.1957 7.88747 18.1957 7.42353C18.1957 6.95959 17.8196 6.5835 17.3557 6.5835C16.8917 6.5835 16.5156 6.95959 16.5156 7.42353C16.5156 7.88747 16.8917 8.26357 17.3557 8.26357Z" fill="#6DB745"/>
</svg>
