<svg width="50" height="50" viewBox="0 0 50 50" fill="none" xmlns="http://www.w3.org/2000/svg">
<g clip-path="url(#clip0_310_2463)">
<path d="M8.31575 6.04053H35.4744C37.8314 6.04053 39.749 7.9402 39.749 10.2676L39.924 34.1822H45.2242C45.5998 34.1822 45.8867 34.5143 45.8867 34.89V38.1812C45.8867 41.2621 43.4211 43.7819 40.4454 43.92V43.9595H17.575V43.915C17.4049 43.922 17.302 43.9595 17.1851 43.9595H17.1688C13.9952 43.941 11.4369 41.3541 11.4535 38.1805V17.2632H4.54929C4.17367 17.2632 3.88673 16.9231 3.88673 16.5478V10.5091C3.88241 8.05478 5.86145 6.05813 8.31575 6.04053ZM40.1479 42.5992H40.1525C42.5719 42.5992 44.5264 40.5996 44.5264 38.1805V35.5425H22.9313V38.1692C22.9366 39.7002 22.3318 41.1702 21.2508 42.2542C21.1359 42.3697 21.0156 42.4292 20.8928 42.5992H40.1479ZM12.8138 38.1798C12.8138 40.5996 14.7494 42.5992 17.1698 42.5992H17.1838C19.6161 42.5816 21.5766 40.6019 21.5709 38.1695V34.89C21.5689 34.509 21.8702 34.1955 22.2511 34.1822H38.5637L38.3887 10.2723C38.3887 8.69044 37.0815 7.40085 35.4744 7.40085H11.5269C12.3021 8.25105 12.8138 9.32676 12.8138 10.5273V38.1798ZM5.24705 10.521V15.9029H11.4535V10.526C11.4535 8.82361 10.0374 7.40085 8.33567 7.40085H8.31674C6.61069 7.41779 5.23908 8.80966 5.24705 10.516V10.521Z" fill="#02A2DD"/>
<path d="M29.9158 22.782L26.409 25.1795C26.1802 25.3373 25.8777 25.3373 25.6488 25.1795L22.1527 22.7827C20.9382 21.9541 20.0411 20.2218 20.0411 18.7528V13.902C20.0338 13.6456 20.1753 13.4079 20.4038 13.2913L25.7432 10.665C25.9305 10.572 26.1503 10.572 26.3376 10.665L31.667 13.284C31.8955 13.4006 32.0366 13.6383 32.029 13.8947V18.7528C32.029 20.2218 31.13 21.9541 29.9158 22.782ZM30.6687 14.3192L26.0351 12.0329L21.4015 14.3255V18.7528C21.4015 19.7774 22.073 21.0806 22.9202 21.6581L26.043 23.7939L29.1536 21.6585C30.0008 21.0803 30.6687 19.7774 30.6687 18.7528V14.3192Z" fill="#02A2DD"/>
<path d="M24.8812 19.7796C25.0081 19.9092 25.1814 19.9825 25.3627 19.9835H25.3644C25.5451 19.9829 25.7181 19.9105 25.8453 19.7823L28.551 17.0756C28.817 16.8099 28.817 16.3788 28.5513 16.1131C28.286 15.8471 27.8549 15.8471 27.5892 16.1128L25.3667 18.3349L24.4783 17.4379C24.2136 17.1709 23.7829 17.1689 23.5159 17.4336C23.2489 17.6983 23.2472 18.129 23.5116 18.3961L24.8812 19.7796Z" fill="#02A2DD"/>
<path d="M17.5741 27.1255H33.898C34.2736 27.1255 34.5781 27.43 34.5781 27.8057C34.5781 28.1813 34.2736 28.4858 33.898 28.4858H17.5741C17.1985 28.4858 16.8939 28.1813 16.8939 27.8057C16.8939 27.43 17.1985 27.1255 17.5741 27.1255Z" fill="#02A2DD"/>
<path d="M17.5741 30.2715H33.898C34.2736 30.2715 34.5781 30.576 34.5781 30.9516C34.5781 31.3273 34.2736 31.6318 33.898 31.6318H17.5741C17.1985 31.6318 16.8939 31.3273 16.8939 30.9516C16.8939 30.576 17.1985 30.2715 17.5741 30.2715Z" fill="#02A2DD"/>
</g>
<defs>
<clipPath id="clip0_310_2463">
<rect width="42" height="42" fill="white" transform="matrix(-1 0 0 1 45.8867 4)"/>
</clipPath>
</defs>
</svg>
