<svg width="1920" height="155" viewBox="0 0 1920 155" fill="none" xmlns="http://www.w3.org/2000/svg">
<path fill-rule="evenodd" clip-rule="evenodd" d="M0 0V154.313C49.5396 141.213 106.932 119.748 172.757 95.13L172.757 95.13L172.789 95.118L172.893 95.0791C178.931 92.821 185.039 90.5364 191.219 88.2293C267.132 59.8904 327.077 80.9085 386.12 101.61C417.364 112.565 448.356 123.431 481.328 126.848C536.415 132.556 546.459 134.103 570.039 137.737L570.042 137.737L570.047 137.738C575.281 138.544 581.182 139.454 588.39 140.534C662.153 151.588 874.194 157.169 1079.13 108.186C1194.44 80.6277 1285.09 94.0524 1361.47 105.364C1403.7 111.618 1441.57 117.226 1476.83 114.902C1500.29 113.355 1547.54 94.9194 1591.56 77.7441L1591.56 77.7437C1630.82 62.4281 1667.5 48.1149 1682.46 47.6741C1727.21 46.3553 1748.68 66.643 1769.1 85.9413C1791 106.645 1811.7 126.21 1858.66 116.734L1858.67 116.733L1858.7 116.726L1858.71 116.724L1858.81 116.704C1868.61 114.726 1878.44 112.742 1888.31 110.771C1898.65 108.707 1909.27 107.212 1920 106.199V1.21896C1915.13 0.886403 1909.92 0.4822 1904.36 0H0Z" fill="url(#paint0_linear_354_2341)"/>
<defs>
<linearGradient id="paint0_linear_354_2341" x1="1953.62" y1="56.8742" x2="85.709" y2="162.571" gradientUnits="userSpaceOnUse">
<stop offset="0.035" stop-color="#E8F785"/>
<stop offset="0.495" stop-color="#C6F1F9"/>
<stop offset="0.975" stop-color="#69CCE5"/>
</linearGradient>
</defs>
</svg>
