<svg width="139" height="158" viewBox="0 0 139 158" fill="none" xmlns="http://www.w3.org/2000/svg">
<path d="M34.1408 78.2733C34.8992 78.6921 35.8196 78.6921 36.578 78.2733L52.6094 69.419L68.2798 59.9285C69.0187 59.481 69.477 58.6863 69.4941 57.8227L69.8594 39.4733L69.4941 21.1239C69.477 20.2602 69.0187 19.4655 68.2798 19.0181L52.6094 9.52753L36.578 0.673293C35.8196 0.254424 34.8992 0.254424 34.1408 0.673292L18.1094 9.52753L2.4389 19.0181C1.70004 19.4655 1.24179 20.2602 1.2246 21.1239L0.859375 39.4733L1.2246 57.8227C1.24179 58.6863 1.70004 59.481 2.43891 59.9285L18.1094 69.419L34.1408 78.2733Z" fill="#DAF5FC"/>
<path d="M103.141 157.327C103.899 157.746 104.82 157.746 105.578 157.327L121.609 148.473L137.28 138.982C138.019 138.535 138.477 137.74 138.494 136.876L138.859 118.527L138.494 100.178C138.477 99.3139 138.019 98.5193 137.28 98.0718L121.609 88.5812L105.578 79.727C104.82 79.3081 103.899 79.3081 103.141 79.727L87.1094 88.5812L71.4389 98.0718C70.7 98.5193 70.2418 99.3139 70.2246 100.178L69.8594 118.527L70.2246 136.876C70.2418 137.74 70.7 138.535 71.4389 138.982L87.1094 148.473L103.141 157.327Z" fill="#DAF5FC"/>
</svg>
