<svg width="1920" height="267" viewBox="0 0 1920 267" fill="none" xmlns="http://www.w3.org/2000/svg">
<path fill-rule="evenodd" clip-rule="evenodd" d="M1708.12 109.453C1789.03 122.515 1862.61 131.238 1920 136.753V267H0V116.339C18.3256 116.58 36.7021 117.362 54.344 118.885C63.8092 119.702 73.2398 120.525 82.6432 121.345L82.6504 121.346L83.5557 121.425L83.6238 121.431C173.21 129.247 260.355 136.85 351.226 137.898C382.31 138.257 416.576 135.422 456.625 132.108L456.625 132.108C546.372 124.682 665.161 114.853 842.268 133.174C1044.97 154.143 1254.5 137.672 1310.49 131.296C1328.48 129.566 1351.1 126.246 1377.09 122.433L1377.19 122.418C1465.51 109.454 1592.59 90.8035 1708.12 109.453Z" fill="#F8FEFF"/>
<path d="M0 125.764V61.8568C56.3886 60.4225 195.138 49.9316 363.177 16.8733C540.03 -17.9192 760.803 9.05758 849.083 26.8951C911.297 41.2782 1094.81 62.0685 1331.14 30.1639C1537.67 2.28271 1636.14 19.8672 1716.05 34.1398C1750.45 40.2826 1781.41 45.8118 1816.07 46.8391C1850.84 47.8696 1885.44 47.5725 1920 46.3828V155.063C1862.61 147.147 1789.03 134.628 1708.12 115.88C1592.59 89.1136 1465.51 115.882 1377.19 134.488C1351.16 139.97 1328.5 144.744 1310.49 147.23C1254.5 156.382 1044.97 180.022 842.268 149.926C665.161 123.631 546.372 137.738 456.625 148.396C416.576 153.152 382.31 157.221 351.226 156.706C260.355 155.202 173.21 144.29 83.6238 133.072L83.5557 133.063C73.8499 131.848 64.1154 130.629 54.344 129.418C36.7021 127.232 18.3256 126.109 0 125.764Z" fill="white"/>
<path d="M0 125.764V61.8568C56.3886 60.4225 195.138 49.9316 363.177 16.8733C540.03 -17.9192 760.803 9.05758 849.083 26.8951C911.297 41.2782 1094.81 62.0685 1331.14 30.1639C1537.67 2.28271 1636.14 19.8672 1716.05 34.1398C1750.45 40.2826 1781.41 45.8118 1816.07 46.8391C1850.84 47.8696 1885.44 47.5725 1920 46.3828V155.063C1862.61 147.147 1789.03 134.628 1708.12 115.88C1592.59 89.1136 1465.51 115.882 1377.19 134.488C1351.16 139.97 1328.5 144.744 1310.49 147.23C1254.5 156.382 1044.97 180.022 842.268 149.926C665.161 123.631 546.372 137.738 456.625 148.396C416.576 153.152 382.31 157.221 351.226 156.706C260.355 155.202 173.21 144.29 83.6238 133.072L83.5557 133.063C73.8499 131.848 64.1154 130.629 54.344 129.418C36.7021 127.232 18.3256 126.109 0 125.764Z" fill="url(#paint0_linear_310_2378)" fill-opacity="0.6"/>
<defs>
<linearGradient id="paint0_linear_310_2378" x1="2027.56" y1="82.4128" x2="126.131" y2="159.917" gradientUnits="userSpaceOnUse">
<stop offset="0.035" stop-color="#E8F785"/>
<stop offset="0.495" stop-color="#C6F1F9"/>
<stop offset="0.975" stop-color="#69CCE5"/>
</linearGradient>
</defs>
</svg>
