<svg width="146" height="40" viewBox="0 0 146 40" fill="none" xmlns="http://www.w3.org/2000/svg">
<g clip-path="url(#clip0_432_2101)">
<path d="M51.6399 21.822C51.6585 21.8778 51.6585 21.9524 51.6585 22.0084C51.6585 22.2134 51.5841 22.3811 51.4539 22.5116C51.3051 22.6422 51.1377 22.6981 50.9331 22.6981C50.7099 22.6981 50.5239 22.5675 50.3379 22.3066L49.0916 20.4985H43.1767L41.9305 22.3066C41.8933 22.3811 41.8561 22.4371 41.8189 22.4744C41.7259 22.5675 41.6329 22.6048 41.5026 22.6048C41.2423 22.6048 41.0377 22.5116 40.9075 22.3252C40.8516 22.2321 40.8145 22.1574 40.8145 22.0829C40.8145 22.027 40.8145 21.9897 40.833 21.9524L45.26 15.1672C45.446 14.869 45.7436 14.7385 46.1156 14.7571C46.562 14.7757 46.841 14.9063 46.934 15.1672L51.6399 21.822ZM48.2733 19.3427L46.1528 16.1925L44.0137 19.3427H48.2733ZM58.3918 17.1058C58.3918 17.4414 58.2244 17.5905 57.8896 17.5905H54.9693C54.4857 17.5905 54.151 17.6091 54.0021 17.6651C53.6487 17.7583 53.4814 18.0006 53.4814 18.3548V22.0456C53.4814 22.3811 53.3139 22.5489 52.9977 22.5489H52.6258C52.2909 22.5489 52.1421 22.3811 52.1421 22.0456V18.3734C52.1421 17.721 52.3839 17.2177 52.8675 16.8635C53.0907 16.7144 53.3697 16.6026 53.7046 16.5467C53.965 16.5093 54.43 16.4907 55.0624 16.4907H57.9082C58.243 16.4907 58.4104 16.6585 58.4104 16.9941V17.1058H58.3918ZM67.3572 20.6103C67.3572 21.8592 66.39 22.493 64.4741 22.493H60.3263V23.7233C60.3263 24.0588 60.1588 24.208 59.8427 24.208H59.4892C59.1545 24.208 59.0056 24.0402 59.0056 23.7233V18.2803C59.0056 17.5346 59.3591 17.0313 60.0473 16.7517C60.4937 16.5653 61.1633 16.4721 62.0561 16.4721H64.1766C66.3156 16.4721 67.3758 17.0686 67.3758 18.2615V20.6103H67.3572ZM65.9994 20.6103V18.2615C65.9994 17.9447 65.7576 17.7396 65.2554 17.6278C65.0508 17.5905 64.6787 17.5718 64.158 17.5718H62.0747C60.9029 17.5718 60.3077 17.8142 60.3077 18.2803V21.356H64.4555C65.4972 21.3746 65.9994 21.1136 65.9994 20.6103ZM76.6388 20.6475C76.6388 21.356 76.2854 21.8592 75.5785 22.1947C75.0949 22.4185 74.4625 22.5303 73.6814 22.5303H71.4678C70.0357 22.5303 69.087 22.1761 68.6406 21.4677C68.4733 21.2068 68.3802 20.9458 68.3802 20.6475V18.4107C68.3802 17.9261 68.6034 17.4973 69.0684 17.1245C69.6265 16.6771 70.4263 16.4534 71.4678 16.4534H73.6814C75.653 16.4534 76.6388 17.1058 76.6388 18.3921V20.6475ZM75.281 20.6475V18.3175C75.281 17.8328 74.7415 17.5905 73.6441 17.5905H71.4864C71.0959 17.5905 70.7425 17.6465 70.4263 17.7396C69.9612 17.8888 69.7194 18.1125 69.7194 18.4107V20.6475C69.7194 20.9458 69.9612 21.1509 70.4449 21.2813C70.761 21.3746 71.1145 21.4118 71.5051 21.4118H73.6627C73.9975 21.4118 74.3324 21.356 74.6485 21.2627C75.0763 21.1323 75.281 20.9272 75.281 20.6475ZM81.4935 14.8317H83.4279C84.2835 14.8317 84.8601 14.869 85.195 14.9249C86.5714 15.1858 87.2596 15.8196 87.2596 16.8635V22.0456C87.2596 22.3811 87.0922 22.5303 86.776 22.5303H86.3668C86.0319 22.5303 85.8646 22.3625 85.8646 22.0456V16.8635C85.8646 16.4534 85.5297 16.1925 84.8787 16.062C84.1905 16.0061 83.7255 15.9874 83.4465 15.9874H81.4935C80.8052 15.9874 80.3216 16.0061 80.0613 16.062C79.4102 16.1738 79.0754 16.4534 79.0754 16.8635V22.0456C79.0754 22.3811 78.9081 22.5303 78.5732 22.5303H78.164C77.8292 22.5303 77.6804 22.3625 77.6804 22.0456V16.8635C77.6804 15.8569 78.3686 15.2045 79.745 14.9249C80.0241 14.8504 80.6192 14.8317 81.4935 14.8317ZM96.5412 20.6475C96.5412 21.356 96.1877 21.8592 95.481 22.1947C94.9974 22.4185 94.3649 22.5303 93.5837 22.5303H91.3703C89.938 22.5303 88.9894 22.1761 88.543 21.4677C88.3756 21.2068 88.2826 20.9458 88.2826 20.6475V18.4107C88.2826 17.9261 88.5058 17.4973 88.9708 17.1245C89.5288 16.6771 90.3286 16.4534 91.3703 16.4534H93.5837C95.5553 16.4534 96.5412 17.1058 96.5412 18.3921V20.6475ZM95.1834 20.6475V18.3175C95.1834 17.8328 94.6439 17.5905 93.5465 17.5905H91.3889C90.9982 17.5905 90.6449 17.6465 90.3286 17.7396C89.8636 17.8888 89.6218 18.1125 89.6218 18.4107V20.6475C89.6218 20.9458 89.8636 21.1509 90.3472 21.2813C90.6635 21.3746 91.0168 21.4118 91.4074 21.4118H93.5651C93.9 21.4118 94.2347 21.356 94.551 21.2627C94.9602 21.1323 95.1834 20.9272 95.1834 20.6475ZM106.66 21.7101C106.771 21.8592 106.827 21.9897 106.827 22.1202C106.827 22.3811 106.641 22.5303 106.269 22.5303H105.897C105.729 22.5303 105.618 22.4744 105.507 22.3438L101.917 17.8142L98.3082 22.3438C98.2151 22.4557 98.085 22.5303 97.9176 22.5303H97.5455C97.1736 22.5303 96.9876 22.3997 96.9876 22.1202C96.9876 21.9897 97.0434 21.8592 97.155 21.7101L101.303 16.5653C101.433 16.3975 101.638 16.323 101.917 16.323C102.196 16.323 102.4 16.4162 102.549 16.584L106.66 21.7101ZM107.98 22.5303C107.609 22.5303 107.423 22.3811 107.423 22.0829V16.9754C107.423 16.6398 107.59 16.4721 107.925 16.4721H108.26C108.594 16.4721 108.762 16.6398 108.762 16.9754V20.8526L114.602 16.584C114.695 16.5093 114.788 16.4907 114.9 16.4907H115.309C115.681 16.4907 115.866 16.6398 115.866 16.9381V22.0643C115.866 22.3997 115.699 22.5675 115.364 22.5675H115.03C114.695 22.5675 114.527 22.3997 114.527 22.0643V18.1311L108.687 22.4185C108.594 22.4744 108.501 22.5116 108.408 22.5116H107.98V22.5303ZM118.713 16.8822L122.173 20.9272L125.632 16.8822C125.874 16.6026 126.153 16.4721 126.507 16.4721H126.655C126.86 16.4721 127.028 16.5653 127.158 16.733C127.269 16.8822 127.344 17.0686 127.344 17.2736V22.0456C127.344 22.3811 127.176 22.5489 126.842 22.5489H126.507C126.172 22.5489 126.005 22.3811 126.005 22.0456V18.5971L122.935 22.1015C122.675 22.3997 122.414 22.5489 122.173 22.5489C121.912 22.5489 121.671 22.3997 121.41 22.1015L118.341 18.5971V22.0456C118.341 22.3811 118.173 22.5489 117.839 22.5489H117.504C117.169 22.5489 117.002 22.3811 117.002 22.0456V17.1617C117.002 16.9941 117.076 16.8449 117.206 16.6957C117.355 16.5467 117.504 16.4907 117.671 16.4907H117.82C118.192 16.4721 118.489 16.6026 118.713 16.8822ZM136.68 19.6037C136.68 19.9765 136.55 20.1629 136.309 20.1629H129.687C129.687 21.0017 130.264 21.4118 131.417 21.4118H132.402C132.737 21.4118 132.886 21.5796 132.886 21.9151V22.027C132.886 22.3625 132.718 22.5303 132.402 22.5303H131.547C130.691 22.5303 130.003 22.4185 129.463 22.1947C128.701 21.8778 128.31 21.356 128.31 20.6103V18.3734C128.31 17.6651 128.701 17.1617 129.463 16.8263C130.022 16.584 130.71 16.4534 131.509 16.4534H134.002C134.672 16.4534 135.249 16.5653 135.732 16.789C136.364 17.0872 136.68 17.5346 136.68 18.1311V19.6037ZM135.397 18.9886V18.2429C135.397 18.0192 135.137 17.8328 134.634 17.721C134.281 17.6278 133.927 17.5905 133.611 17.5905H131.678C130.338 17.5905 129.668 17.8328 129.668 18.2989V18.9886H135.397ZM145.999 20.6103C145.999 21.8592 145.033 22.493 143.117 22.493H138.969V23.7233C138.969 24.0588 138.801 24.208 138.485 24.208H138.132C137.797 24.208 137.648 24.0402 137.648 23.7233V18.2803C137.648 17.5346 138.002 17.0313 138.69 16.7517C139.136 16.5653 139.805 16.4721 140.698 16.4721H142.8C144.939 16.4721 145.999 17.0686 145.999 18.2615V20.6103ZM144.66 20.6103V18.2615C144.66 17.9447 144.418 17.7396 143.916 17.6278C143.711 17.5905 143.34 17.5718 142.819 17.5718H140.736C139.564 17.5718 138.969 17.8142 138.969 18.2803V21.356H143.117C144.139 21.3746 144.66 21.1136 144.66 20.6103Z" fill="#E3EAF4"/>
<path d="M0.625699 28.5983L3.39906 27.8527C3.29759 27.6154 3.19613 27.3781 3.11158 27.1409C2.79027 26.1749 2.79027 25.0902 2.79027 22.921V16.8538C2.79027 14.6845 2.79027 13.5999 3.11158 12.6339C3.38215 11.7696 3.83874 10.99 4.44753 10.3121C4.97176 9.71897 5.6651 9.26139 6.81504 8.5835C5.30998 8.60044 3.78801 8.80381 2.29987 9.21055C2.04621 9.27834 1.77563 9.36308 1.52197 9.43086C1.04847 10.1257 0.69334 10.8714 0.422769 11.6679C0 12.9898 0 14.4812 0 17.447V22.3448C0 25.3106 0 26.785 0.422769 28.1238C0.507323 28.2763 0.558057 28.4458 0.625699 28.5983Z" fill="url(#paint0_linear_432_2101)"/>
<path d="M0.154297 13.092C0.22194 12.5666 0.306494 12.0921 0.458691 11.6515C0.847638 10.4822 1.45642 9.39753 2.28505 8.48237C3.21515 7.44859 4.50036 6.70291 7.05389 5.22849L11.2985 2.77113C13.869 1.29671 15.1372 0.551028 16.5069 0.262923C17.7076 0.00871321 18.959 0.00871321 20.1597 0.262923C21.5294 0.551028 22.7978 1.29671 25.3682 2.77113L29.6128 5.22849C32.1832 6.71986 33.4516 7.44859 34.3816 8.48237C34.9228 9.09248 35.3794 9.75343 35.7345 10.4822C35.4301 12.5497 34.7875 14.5156 33.8574 16.312C33.8574 14.4986 33.8236 13.5157 33.5361 12.6344C33.2655 11.7701 32.8089 10.9905 32.2002 10.3127C31.5237 9.55006 30.5767 9.00774 28.7165 7.92311L23.4742 4.88954C21.5971 3.80491 20.667 3.2626 19.6693 3.05924C18.7899 2.87282 17.8767 2.87282 16.9974 3.05924C15.9996 3.27955 15.0695 3.80491 13.1925 4.88954L7.95015 7.92311C6.07306 9.00774 5.14297 9.55006 4.46653 10.3127C3.85776 10.9905 3.40115 11.7701 3.13059 12.6344C2.80929 13.6004 2.80929 14.6851 2.80929 16.8543V18.5152C1.64244 16.8882 0.729263 15.0579 0.154297 13.092Z" fill="url(#paint1_linear_432_2101)"/>
<path d="M10.7031 33.4288L13.1889 34.8693C15.066 35.954 15.9961 36.4963 16.9938 36.6996C17.8732 36.8861 18.7864 36.8861 19.6657 36.6996C20.6635 36.4793 21.5936 35.954 23.4707 34.8693L28.713 31.8357C30.5901 30.7511 31.5202 30.2088 32.1966 29.4462C32.8054 28.7683 33.262 27.9887 33.5326 27.1244C33.8539 26.1584 33.8539 25.0737 33.8539 22.9045V16.8373C33.8539 14.6682 33.8539 13.5835 33.5326 12.6175C33.262 11.7532 32.8054 10.9736 32.1966 10.2957C31.5202 9.53307 30.5732 8.99076 28.713 7.90613L27.4954 7.19434C28.9498 7.22823 30.4379 7.4316 31.9092 7.82139C32.8731 8.0756 33.8032 8.41455 34.6825 8.80434C35.359 9.63476 35.8832 10.6008 36.2045 11.6346C36.6273 12.9565 36.6273 14.4478 36.6273 17.4135V22.3113C36.6273 25.2771 36.6273 26.7515 36.2045 28.0904C35.8155 29.2597 35.2068 30.3444 34.3781 31.2595C33.448 32.2933 32.1628 33.039 29.6093 34.5134L25.3647 36.9708C22.7942 38.4622 21.5259 39.1909 20.1562 39.479C18.9555 39.7332 17.7041 39.7332 16.5034 39.479C15.9115 39.3434 15.3197 39.1401 14.6432 38.8181C13.0029 37.2928 11.667 35.4625 10.7031 33.4288Z" fill="url(#paint2_linear_432_2101)"/>
<path d="M20.2909 39.4794C21.2717 38.4456 22.1342 37.2932 22.8613 36.0221C23.0812 35.6493 23.2841 35.2595 23.4701 34.8697C21.593 35.9544 20.6629 36.4967 19.6652 36.7C18.7858 36.8865 17.8726 36.8865 16.9933 36.7C15.9955 36.4797 15.0655 35.9544 13.1884 34.8697L7.94607 31.8361C6.06897 30.7515 5.13889 30.2092 4.46246 29.4466C4.03969 28.972 3.68456 28.4297 3.41399 27.8535L0.640625 28.5992C1.02957 29.5821 1.58762 30.4973 2.29788 31.2769C3.22797 32.3107 4.51319 33.0564 7.06671 34.5308L11.3113 36.9881C13.8817 38.4795 15.15 39.2083 16.5198 39.4964C17.7204 39.7506 18.9718 39.7506 20.1725 39.4964C20.2063 39.5133 20.2402 39.4964 20.2909 39.4794Z" fill="url(#paint3_linear_432_2101)"/>
<path d="M14.0024 5.4481C15.5751 4.53294 16.3699 4.07537 17.1985 3.9059C17.9426 3.75337 18.7036 3.75337 19.4476 3.9059C20.2932 4.09232 21.0711 4.53294 22.6438 5.4481L28.6302 8.90535C30.2029 9.82051 30.9977 10.2781 31.5727 10.9051C32.08 11.4644 32.469 12.1423 32.7057 12.8541C32.9763 13.6676 32.9763 14.5827 32.9763 16.413V23.3445C32.9763 25.1748 32.9763 26.09 32.7057 26.9034C32.469 27.6322 32.08 28.2931 31.5727 28.8524C30.9977 29.4964 30.2029 29.954 28.6302 30.8522L22.6438 34.3094C21.0711 35.2246 20.2763 35.6822 19.4476 35.8516C18.7036 36.0041 17.9426 36.0041 17.1985 35.8516C16.353 35.6652 15.5751 35.2246 14.0024 34.3094L8.01599 30.8522C6.44328 29.937 5.64847 29.4794 5.07352 28.8524C4.56619 28.2931 4.17725 27.6152 3.94049 26.9034C3.66992 26.09 3.66992 25.1748 3.66992 23.3445V16.413C3.66992 14.5827 3.66992 13.6676 3.94049 12.8541C4.17725 12.1253 4.56619 11.4644 5.07352 10.9051C5.64847 10.2611 6.44328 9.80356 8.01599 8.90535L14.0024 5.4481Z" fill="#9CC8DF"/>
<path d="M9.63876 13.5326L7.71094 12.1598C8.47192 11.0752 9.40201 10.1261 10.4505 9.32959L11.8879 11.2277C11.0255 11.8717 10.2645 12.6513 9.63876 13.5326Z" fill="#C8EBCC"/>
<path d="M27.293 13.9394L29.2884 12.6514C29.9987 13.7529 30.5568 14.9901 30.9119 16.2949L28.6289 16.922C28.3245 15.8374 27.8679 14.8375 27.293 13.9394Z" fill="#C8EBCC"/>
<path d="M7.38776 26.7854L9.38324 25.4974C8.79136 24.5822 8.35168 23.5823 8.0642 22.5146L5.78125 23.1417C6.11947 24.4466 6.6606 25.6838 7.38776 26.7854Z" fill="#C8EBCC"/>
<path d="M22.3402 29.6157C21.816 29.836 21.2749 30.0055 20.7168 30.1241L21.241 32.429C21.9175 32.2765 22.5939 32.0561 23.2196 31.8019L22.3402 29.6157Z" fill="#E3F286"/>
<path d="M31.2874 18.3296C31.3382 18.7872 31.3551 19.2617 31.3551 19.7193H28.9876C28.9876 19.3295 28.9707 18.9566 28.9199 18.5838L31.2874 18.3296Z" fill="#6368C0"/>
<path d="M5.37819 21.1084C5.32746 20.6509 5.31055 20.1763 5.31055 19.7188H7.67805C7.67805 20.1085 7.69497 20.4814 7.7457 20.8542L5.37819 21.1084Z" fill="#6368C0"/>
<path d="M8.05248 16.9216L5.76953 16.2945C6.05701 15.2608 6.46287 14.2609 6.9702 13.3457L9.0333 14.4981C8.61053 15.2608 8.27232 16.0573 8.05248 16.9216Z" fill="#7AC600"/>
<path d="M30.8986 23.1417L28.6156 22.5146C28.3788 23.362 28.0575 24.1755 27.6348 24.9212L29.6979 26.0736C30.2052 25.1754 30.6111 24.1924 30.8986 23.1417Z" fill="#7AC600"/>
<path d="M14.324 9.82044L13.4277 7.61729C14.0703 7.36308 14.7299 7.14276 15.4063 6.99023L15.9305 9.29508C15.3725 9.43066 14.8313 9.61708 14.324 9.82044Z" fill="#DEEBF3"/>
<path d="M24.793 11.2273L26.2304 9.34619C26.9575 9.90544 27.6171 10.5325 28.2259 11.2273L26.4333 12.7695C25.926 12.1933 25.3848 11.6849 24.793 11.2273Z" fill="#DEEBF3"/>
<path d="M10.4356 30.0904L11.873 28.2092C11.2812 27.7516 10.74 27.2432 10.2496 26.667L8.45703 28.2092C9.04891 28.904 9.70843 29.5311 10.4356 30.0904Z" fill="#DEEBF3"/>
<path d="M17.4516 9.07595C17.7391 9.059 18.0435 9.04205 18.331 9.04205C19.7853 9.04205 21.172 9.33016 22.4403 9.85553L23.3535 7.66932C21.8146 7.02533 20.1235 6.66943 18.3479 6.66943C17.9759 6.66943 17.6208 6.68638 17.2656 6.72028L17.4516 9.07595Z" fill="#EFF491"/>
<path d="M28.9504 27.2775L27.0226 25.9048C26.3969 26.786 25.6359 27.5656 24.7734 28.2266L26.2109 30.1247C27.2593 29.3112 28.1725 28.3622 28.9504 27.2775Z" fill="#EFF491"/>
<path d="M19.4141 32.7168C19.0589 32.7507 18.7038 32.7676 18.3318 32.7676C16.5561 32.7676 14.8651 32.4118 13.3262 31.7678L14.2394 29.5815C15.5077 30.1069 16.8943 30.395 18.3487 30.395C18.6531 30.395 18.9406 30.3781 19.228 30.3611L19.4141 32.7168Z" fill="#EFF491"/>
<path d="M18.3327 27.1758C22.0699 27.1758 25.0969 24.8201 25.0969 21.9221C25.0969 21.0408 24.9447 20.2273 24.4881 19.4647C22.3236 15.9227 21.0046 14.2788 18.3327 10.7368C15.6608 14.2788 14.3417 15.9227 12.1771 19.4647C11.7036 20.2273 11.5684 21.0408 11.5684 21.9221C11.5684 24.8201 14.5954 27.1758 18.3327 27.1758Z" fill="white"/>
<path d="M16.3019 22.091C16.3019 22.2097 16.2343 22.2775 16.1159 22.2775H15.9806C15.8622 22.2775 15.7946 22.2097 15.7946 22.091V21.1081H13.3765V22.091C13.3765 22.2097 13.3088 22.2775 13.1904 22.2775H13.0382C12.9199 22.2775 12.8691 22.2097 12.8691 22.091V19.6846C12.8691 19.566 12.9199 19.5151 13.0382 19.5151H13.1904C13.3088 19.5151 13.3765 19.566 13.3765 19.6846V20.7013H15.8115V19.6846C15.8115 19.566 15.8792 19.5151 15.9975 19.5151H16.1328C16.2512 19.5151 16.3188 19.566 16.3188 19.6846V22.091H16.3019ZM18.0437 19.5151H18.7371C19.0415 19.5151 19.2444 19.5321 19.3628 19.549C19.8532 19.6338 20.1069 19.8709 20.1069 20.2438V22.108C20.1069 22.2266 20.0561 22.2775 19.9377 22.2775H19.7855C19.6672 22.2775 19.5995 22.2266 19.5995 22.108V20.2438C19.5995 20.0912 19.4812 20.0065 19.2444 19.9557C19.0077 19.9387 18.8385 19.9218 18.7371 19.9218H18.0437C17.7901 19.9218 17.621 19.9387 17.5364 19.9557C17.2997 20.0065 17.1813 20.0912 17.1813 20.2438V22.108C17.1813 22.2266 17.1136 22.2775 16.9953 22.2775H16.8431C16.7247 22.2775 16.674 22.2266 16.674 22.108V20.2438C16.674 19.8879 16.9276 19.6506 17.418 19.549C17.5195 19.5321 17.7393 19.5151 18.0437 19.5151ZM23.8103 21.5318C23.8103 22.0232 23.3875 22.2775 22.542 22.2775H21.7641C21.1553 22.2775 20.7664 22.1419 20.5804 21.8707C20.5127 21.769 20.4789 21.6673 20.4789 21.5318V20.2607C20.4789 19.7692 20.9017 19.5151 21.7472 19.5151H22.5251C22.914 19.5151 23.1846 19.5489 23.3706 19.6167C23.6581 19.7353 23.8103 19.9387 23.8103 20.2607V21.5318ZM23.303 21.5318V20.2777C23.303 20.0404 23.0493 19.9218 22.542 19.9218H21.7472C21.2399 19.9218 20.9862 20.0404 20.9862 20.2777V21.5318C20.9862 21.7521 21.2399 21.8707 21.7472 21.8707H22.542C23.0493 21.8707 23.303 21.7521 23.303 21.5318Z" fill="#6285C3"/>
</g>
<defs>
<linearGradient id="paint0_linear_432_2101" x1="1.26881" y1="9.48372" x2="10.7608" y2="44.8325" gradientUnits="userSpaceOnUse">
<stop stop-color="white"/>
<stop offset="1" stop-color="#7797CB"/>
</linearGradient>
<linearGradient id="paint1_linear_432_2101" x1="0.0687289" y1="9.29118" x2="36.5959" y2="9.29118" gradientUnits="userSpaceOnUse">
<stop stop-color="#7797CB"/>
<stop offset="1" stop-color="white"/>
</linearGradient>
<linearGradient id="paint2_linear_432_2101" x1="29.7411" y1="7.26806" x2="20.2489" y2="42.6166" gradientUnits="userSpaceOnUse">
<stop stop-color="#7797CB"/>
<stop offset="1" stop-color="white"/>
</linearGradient>
<linearGradient id="paint3_linear_432_2101" x1="15.2307" y1="43.6326" x2="5.7385" y2="8.28391" gradientUnits="userSpaceOnUse">
<stop stop-color="#7797CB"/>
<stop offset="1" stop-color="white"/>
</linearGradient>
<clipPath id="clip0_432_2101">
<rect width="146" height="40" fill="white"/>
</clipPath>
</defs>
</svg>
