<svg width="266" height="69" viewBox="0 0 266 69" fill="none" xmlns="http://www.w3.org/2000/svg">
<g clip-path="url(#clip0_389_5036)">
<path d="M95.0055 39.1947C95.0392 39.2957 95.0392 39.4304 95.0392 39.5314C95.0392 39.9016 94.9045 40.2046 94.6689 40.4402C94.3996 40.6759 94.0966 40.7769 93.7263 40.7769C93.3224 40.7769 92.9858 40.5412 92.6491 40.07L90.3938 36.8047H79.6892L77.4338 40.07C77.3665 40.2046 77.2991 40.3056 77.2318 40.3729C77.0635 40.5412 76.8952 40.6086 76.6596 40.6086C76.1883 40.6086 75.818 40.4402 75.5824 40.1036C75.4814 39.9353 75.4141 39.8007 75.4141 39.666C75.4141 39.565 75.4141 39.4977 75.4477 39.4304L83.4593 27.1773C83.796 26.6387 84.3346 26.4031 85.0078 26.4367C85.8157 26.4704 86.3206 26.706 86.4889 27.1773L95.0055 39.1947ZM88.9126 34.7177L85.0751 29.0287L81.204 34.7177H88.9126ZM107.225 30.6782C107.225 31.2841 106.922 31.5534 106.316 31.5534H101.031C100.156 31.5534 99.5499 31.5871 99.2806 31.6881C98.641 31.8564 98.3381 32.294 98.3381 32.9336V39.5987C98.3381 40.2046 98.0351 40.5076 97.4628 40.5076H96.7896C96.1837 40.5076 95.9144 40.2046 95.9144 39.5987V32.9672C95.9144 31.789 96.352 30.8802 97.2272 30.2406C97.6312 29.9713 98.1361 29.7693 98.742 29.6683C99.2133 29.601 100.055 29.5673 101.199 29.5673H106.35C106.956 29.5673 107.259 29.8703 107.259 30.4762V30.6782H107.225ZM123.45 37.0067C123.45 39.2621 121.7 40.4066 118.232 40.4066H110.726V42.6283C110.726 43.2342 110.423 43.5035 109.851 43.5035H109.211C108.605 43.5035 108.336 43.2005 108.336 42.6283V32.7989C108.336 31.4524 108.975 30.5435 110.221 30.0386C111.029 29.702 112.241 29.5337 113.856 29.5337H117.694C121.565 29.5337 123.484 30.6109 123.484 32.7653V37.0067H123.45ZM120.993 37.0067V32.7653C120.993 32.193 120.555 31.8227 119.646 31.6207C119.276 31.5534 118.603 31.5197 117.66 31.5197H113.89C111.769 31.5197 110.692 31.9573 110.692 32.7989V38.3532H118.199C120.084 38.3868 120.993 37.9156 120.993 37.0067ZM140.248 37.074C140.248 38.3532 139.608 39.2621 138.329 39.868C137.454 40.2719 136.309 40.4739 134.895 40.4739H130.889C128.297 40.4739 126.581 39.8343 125.773 38.5552C125.47 38.0839 125.302 37.6126 125.302 37.074V33.0345C125.302 32.1593 125.705 31.3851 126.547 30.7119C127.557 29.904 129.004 29.5 130.889 29.5H134.895C138.463 29.5 140.248 30.6782 140.248 33.0009V37.074ZM137.79 37.074V32.8662C137.79 31.991 136.814 31.5534 134.828 31.5534H130.923C130.216 31.5534 129.577 31.6544 129.004 31.8227C128.163 32.092 127.725 32.4959 127.725 33.0345V37.074C127.725 37.6126 128.163 37.9829 129.038 38.2185C129.61 38.3868 130.25 38.4542 130.957 38.4542H134.862C135.468 38.4542 136.073 38.3532 136.646 38.1849C137.42 37.9492 137.79 37.579 137.79 37.074ZM149.033 26.5714H152.534C154.083 26.5714 155.126 26.6387 155.732 26.7397C158.223 27.211 159.469 28.3555 159.469 30.2406V39.5987C159.469 40.2046 159.166 40.4739 158.593 40.4739H157.853C157.247 40.4739 156.944 40.1709 156.944 39.5987V30.2406C156.944 29.5 156.338 29.0287 155.16 28.7931C153.914 28.6921 153.073 28.6585 152.568 28.6585H149.033C147.788 28.6585 146.913 28.6921 146.441 28.7931C145.263 28.9951 144.657 29.5 144.657 30.2406V39.5987C144.657 40.2046 144.354 40.4739 143.748 40.4739H143.008C142.402 40.4739 142.133 40.1709 142.133 39.5987V30.2406C142.133 28.4228 143.378 27.2446 145.869 26.7397C146.374 26.6051 147.451 26.5714 149.033 26.5714ZM176.266 37.074C176.266 38.3532 175.627 39.2621 174.347 39.868C173.472 40.2719 172.328 40.4739 170.914 40.4739H166.908C164.316 40.4739 162.599 39.8343 161.791 38.5552C161.488 38.0839 161.32 37.6126 161.32 37.074V33.0345C161.32 32.1593 161.724 31.3851 162.566 30.7119C163.576 29.904 165.023 29.5 166.908 29.5H170.914C174.482 29.5 176.266 30.6782 176.266 33.0009V37.074ZM173.809 37.074V32.8662C173.809 31.991 172.833 31.5534 170.847 31.5534H166.942C166.235 31.5534 165.595 31.6544 165.023 31.8227C164.181 32.092 163.744 32.4959 163.744 33.0345V37.074C163.744 37.6126 164.181 37.9829 165.057 38.2185C165.629 38.3868 166.268 38.4542 166.975 38.4542H170.88C171.486 38.4542 172.092 38.3532 172.664 38.1849C173.405 37.9492 173.809 37.579 173.809 37.074ZM194.578 38.9928C194.78 39.2621 194.881 39.4977 194.881 39.7333C194.881 40.2046 194.545 40.4739 193.872 40.4739H193.198C192.895 40.4739 192.693 40.3729 192.491 40.1373L185.995 31.9573L179.464 40.1373C179.296 40.3393 179.06 40.4739 178.757 40.4739H178.084C177.411 40.4739 177.074 40.2383 177.074 39.7333C177.074 39.4977 177.175 39.2621 177.377 38.9928L184.884 29.702C185.119 29.399 185.49 29.2644 185.995 29.2644C186.499 29.2644 186.87 29.4327 187.139 29.7356L194.578 38.9928ZM196.968 40.4739C196.295 40.4739 195.959 40.2046 195.959 39.666V30.4425C195.959 29.8366 196.262 29.5337 196.867 29.5337H197.473C198.079 29.5337 198.382 29.8366 198.382 30.4425V37.4443L208.952 29.7356C209.121 29.601 209.289 29.5673 209.491 29.5673H210.231C210.905 29.5673 211.241 29.8366 211.241 30.3752V39.6323C211.241 40.2383 210.938 40.5412 210.332 40.5412H209.726C209.121 40.5412 208.818 40.2383 208.818 39.6323V32.5296L198.248 40.2719C198.079 40.3729 197.911 40.4402 197.743 40.4402H196.968V40.4739ZM216.392 30.2742L222.653 37.579L228.914 30.2742C229.352 29.7693 229.856 29.5337 230.496 29.5337H230.765C231.136 29.5337 231.439 29.702 231.674 30.0049C231.876 30.2742 232.011 30.6109 232.011 30.9811V39.5987C232.011 40.2046 231.708 40.5076 231.102 40.5076H230.496C229.89 40.5076 229.587 40.2046 229.587 39.5987V33.3712L224.033 39.6997C223.562 40.2383 223.09 40.5076 222.653 40.5076C222.181 40.5076 221.744 40.2383 221.273 39.6997L215.718 33.3712V39.5987C215.718 40.2046 215.415 40.5076 214.809 40.5076H214.204C213.598 40.5076 213.295 40.2046 213.295 39.5987V30.7792C213.295 30.4762 213.429 30.2069 213.665 29.9376C213.934 29.6683 214.204 29.5673 214.506 29.5673H214.776C215.449 29.5337 215.988 29.7693 216.392 30.2742ZM248.909 35.1889C248.909 35.8622 248.674 36.1988 248.236 36.1988H236.252C236.252 37.7136 237.296 38.4542 239.383 38.4542H241.167C241.773 38.4542 242.042 38.7571 242.042 39.363V39.565C242.042 40.1709 241.739 40.4739 241.167 40.4739H239.619C238.07 40.4739 236.825 40.2719 235.848 39.868C234.468 39.2957 233.761 38.3532 233.761 37.0067V32.9672C233.761 31.6881 234.468 30.7792 235.848 30.1733C236.858 29.7356 238.104 29.5 239.551 29.5H244.062C245.274 29.5 246.317 29.702 247.193 30.1059C248.337 30.6445 248.909 31.4524 248.909 32.5296V35.1889ZM246.587 34.0781V32.7316C246.587 32.3276 246.115 31.991 245.206 31.789C244.567 31.6207 243.927 31.5534 243.355 31.5534H239.854C237.43 31.5534 236.219 31.991 236.219 32.8326V34.0781H246.587ZM265.774 37.0067C265.774 39.2621 264.024 40.4066 260.556 40.4066H253.05V42.6283C253.05 43.2342 252.747 43.5035 252.175 43.5035H251.535C250.929 43.5035 250.66 43.2005 250.66 42.6283V32.7989C250.66 31.4524 251.299 30.5435 252.545 30.0386C253.353 29.702 254.565 29.5337 256.18 29.5337H259.984C263.855 29.5337 265.774 30.6109 265.774 32.7653V37.0067ZM263.35 37.0067V32.7653C263.35 32.193 262.913 31.8227 262.004 31.6207C261.634 31.5534 260.96 31.5197 260.018 31.5197H256.248C254.127 31.5197 253.05 31.9573 253.05 32.7989V38.3532H260.556C262.408 38.3868 263.35 37.9156 263.35 37.0067Z" fill="#5A96C9"/>
<path d="M1.09681 49.4793L5.87177 48.1982C5.69707 47.7906 5.52238 47.383 5.3768 46.9753C4.82361 45.3157 4.8236 43.4523 4.8236 39.7255V29.3022C4.8236 25.5754 4.82361 23.712 5.3768 22.0524C5.84265 20.5675 6.62877 19.2282 7.67693 18.0635C8.57952 17.0445 9.77326 16.2584 11.7531 15.0938C9.16183 15.1229 6.54143 15.4723 3.97925 16.171C3.54252 16.2875 3.07667 16.4331 2.63993 16.5495C1.8247 17.7433 1.21327 19.0244 0.747421 20.3928C0.0195312 22.6638 0.0195312 25.226 0.0195312 30.3212V38.7356C0.0195312 43.8308 0.0195312 46.3639 0.747421 48.664C0.892999 48.9261 0.980349 49.2172 1.09681 49.4793Z" fill="url(#paint0_linear_389_5036)"/>
<path d="M0.28125 22.8388C0.397712 21.9362 0.543291 21.1209 0.805332 20.3639C1.47499 18.355 2.52315 16.4916 3.94981 14.9193C5.55117 13.1433 7.76396 11.8622 12.1604 9.32913L19.4684 5.10736C23.894 2.57431 26.0777 1.29322 28.436 0.798254C30.5032 0.36152 32.6578 0.36152 34.725 0.798254C37.0834 1.29322 39.267 2.57431 43.6926 5.10736L51.0006 9.32913C55.4262 11.8913 57.6099 13.1433 59.2112 14.9193C60.1429 15.9675 60.929 17.103 61.5405 18.355C61.0164 21.9071 59.91 25.2845 58.3086 28.3707C58.3086 25.2554 58.2504 23.5667 57.7554 22.0526C57.2896 20.5677 56.5035 19.2284 55.4553 18.0638C54.2907 16.7536 52.6602 15.8219 49.4575 13.9585L40.4317 8.74681C37.1998 6.88341 35.5985 5.95171 33.8807 5.60233C32.3666 5.28206 30.7944 5.28206 29.2804 5.60233C27.5626 5.98083 25.9612 6.88341 22.7294 8.74681L13.7035 13.9585C10.4717 15.8219 8.87035 16.7536 7.70573 18.0638C6.65757 19.2284 5.87144 20.5677 5.40559 22.0526C4.8524 23.7122 4.8524 25.5756 4.8524 29.3024V32.1558C2.84342 29.3607 1.27118 26.2162 0.28125 22.8388Z" fill="url(#paint1_linear_389_5036)"/>
<path d="M18.4453 57.778L22.7253 60.2528C25.9571 62.1162 27.5585 63.0479 29.2763 63.3973C30.7903 63.7176 32.3626 63.7176 33.8766 63.3973C35.5944 63.0188 37.1958 62.1162 40.4276 60.2528L49.4534 55.0411C52.6853 53.1777 54.2866 52.246 55.4512 50.9358C56.4994 49.7712 57.2855 48.4319 57.7514 46.947C58.3046 45.2874 58.3046 43.424 58.3046 39.6972V29.2738C58.3046 25.547 58.3046 23.6836 57.7514 22.024C57.2855 20.5391 56.4994 19.1998 55.4512 18.0352C54.2866 16.725 52.6561 15.7933 49.4534 13.9299L47.3571 12.707C49.861 12.7653 52.4232 13.1146 54.9563 13.7843C56.6159 14.221 58.2172 14.8034 59.7312 15.473C60.8958 16.8997 61.7984 18.5593 62.3516 20.3353C63.0795 22.6063 63.0795 25.1685 63.0795 30.2637V38.6781C63.0795 43.7734 63.0795 46.3064 62.3516 48.6066C61.682 50.6155 60.6338 52.4789 59.2071 54.0512C57.6058 55.8272 55.393 57.1083 50.9965 59.6414L43.6885 63.8631C39.263 66.4253 37.0793 67.6773 34.7209 68.1722C32.6537 68.609 30.4992 68.609 28.432 68.1722C27.4129 67.9393 26.3939 67.5899 25.2292 67.0367C22.405 64.4163 20.1049 61.2718 18.4453 57.778Z" fill="url(#paint2_linear_389_5036)"/>
<path d="M34.9534 68.1706C36.6421 66.3945 38.127 64.4147 39.379 62.231C39.7575 61.5904 40.1069 60.9208 40.4272 60.2511C37.1953 62.1145 35.594 63.0462 33.8761 63.3956C32.3621 63.7159 30.7899 63.7159 29.2759 63.3956C27.5581 63.0171 25.9567 62.1145 22.7249 60.2511L13.699 55.0394C10.4672 53.176 8.86584 52.2443 7.70122 50.9341C6.97333 50.1189 6.3619 49.1872 5.89605 48.1973L1.12109 49.4783C1.79075 51.1671 2.75157 52.7393 3.97442 54.0786C5.57578 55.8547 7.78857 57.1358 12.185 59.6688L19.493 63.8906C23.9186 66.4527 26.1023 67.7047 28.4606 68.1997C30.5278 68.6364 32.6824 68.6364 34.7496 68.1997C34.8078 68.2288 34.8661 68.1997 34.9534 68.1706Z" fill="url(#paint3_linear_389_5036)"/>
<path d="M24.1256 9.70542C26.8333 8.13318 28.2017 7.34706 29.6284 7.05591C30.9095 6.79386 32.2197 6.79386 33.5008 7.05591C34.9566 7.37618 36.2959 8.13318 39.0036 9.70542L49.3106 15.645C52.0183 17.2172 53.3867 18.0034 54.3767 19.0806C55.2501 20.0415 55.9198 21.2061 56.3274 22.4289C56.7933 23.8265 56.7933 25.3987 56.7933 28.5432V40.4515C56.7933 43.596 56.7933 45.1682 56.3274 46.5658C55.9198 47.8177 55.2501 48.9533 54.3767 49.9141C53.3867 51.0205 52.0183 51.8066 49.3106 53.3497L39.0036 59.2893C36.2959 60.8615 34.9274 61.6477 33.5008 61.9388C32.2197 62.2009 30.9095 62.2009 29.6284 61.9388C28.1726 61.6185 26.8333 60.8615 24.1256 59.2893L13.8186 53.3497C11.1109 51.7775 9.74246 50.9913 8.75253 49.9141C7.87906 48.9533 7.2094 47.7886 6.80178 46.5658C6.33593 45.1682 6.33594 43.596 6.33594 40.4515V28.5432C6.33594 25.3987 6.33593 23.8265 6.80178 22.4289C7.2094 21.177 7.87906 20.0415 8.75253 19.0806C9.74246 17.9743 11.1109 17.1881 13.8186 15.645L24.1256 9.70542Z" fill="#9CC8DF"/>
<path d="M16.6121 23.5937L13.293 21.2354C14.6032 19.372 16.2045 17.7415 18.0097 16.373L20.4845 19.634C18.9996 20.7404 17.6894 22.0797 16.6121 23.5937Z" fill="#C8EBCC"/>
<path d="M47.0078 24.2948L50.4435 22.082C51.6663 23.9745 52.6271 26.1 53.2386 28.3419L49.308 29.4192C48.7839 27.5558 47.9977 25.8379 47.0078 24.2948Z" fill="#C8EBCC"/>
<path d="M12.7425 46.3664L16.1782 44.1536C15.1591 42.5814 14.4021 40.8636 13.9072 39.0293L9.97656 40.1066C10.5589 42.3485 11.4906 44.4739 12.7425 46.3664Z" fill="#C8EBCC"/>
<path d="M38.4748 51.2246C37.5722 51.6031 36.6405 51.8943 35.6797 52.0981L36.5823 56.0578C37.7469 55.7958 38.9115 55.4173 39.9888 54.9805L38.4748 51.2246Z" fill="#E3F286"/>
<path d="M53.8809 31.834C53.9682 32.6201 53.9973 33.4353 53.9973 34.2215H49.9211C49.9211 33.5518 49.892 32.9113 49.8047 32.2707L53.8809 31.834Z" fill="#6368C0"/>
<path d="M9.27663 36.6082C9.18928 35.8221 9.16016 35.0068 9.16016 34.2207H13.2363C13.2363 34.8904 13.2655 35.5309 13.3528 36.1714L9.27663 36.6082Z" fill="#6368C0"/>
<path d="M13.8759 29.4168L9.94531 28.3396C10.4403 26.5635 11.1391 24.8457 12.0125 23.2734L15.5646 25.2533C14.8367 26.5635 14.2544 27.9319 13.8759 29.4168Z" fill="#7AC600"/>
<path d="M53.2131 40.1066L49.2825 39.0293C48.8748 40.4851 48.3216 41.8826 47.5938 43.1637L51.1459 45.1436C52.0193 43.6004 52.7181 41.9117 53.2131 40.1066Z" fill="#7AC600"/>
<path d="M24.6799 17.2178L23.1367 13.4327C24.2431 12.996 25.3786 12.6175 26.5432 12.3555L27.4458 16.3152C26.485 16.5481 25.5533 16.8684 24.6799 17.2178Z" fill="#DEEBF3"/>
<path d="M42.6992 19.6342L45.174 16.4023C46.426 17.3632 47.5615 18.4404 48.6097 19.6342L45.5234 22.2837C44.65 21.2938 43.7183 20.4203 42.6992 19.6342Z" fill="#DEEBF3"/>
<path d="M17.9807 52.0415L20.4556 48.8097C19.4365 48.0236 18.5048 47.1501 17.6605 46.1602L14.5742 48.8097C15.5933 50.0034 16.7288 51.0807 17.9807 52.0415Z" fill="#DEEBF3"/>
<path d="M30.0703 15.9371C30.5652 15.908 31.0893 15.8789 31.5843 15.8789C34.0882 15.8789 36.4757 16.3739 38.6594 17.2765L40.2316 13.5206C37.5821 12.4142 34.6705 11.8027 31.6134 11.8027C30.9729 11.8027 30.3614 11.8318 29.75 11.8901L30.0703 15.9371Z" fill="#EFF491"/>
<path d="M49.8634 47.208L46.5443 44.8496C45.467 46.3636 44.1568 47.7029 42.6719 48.8384L45.1467 52.0994C46.9519 50.7018 48.5241 49.0714 49.8634 47.208Z" fill="#EFF491"/>
<path d="M33.4426 56.5544C32.8311 56.6126 32.2197 56.6417 31.5791 56.6417C28.522 56.6417 25.6105 56.0303 22.9609 54.9239L24.5332 51.168C26.7168 52.0706 29.1043 52.5655 31.6083 52.5655C32.1323 52.5655 32.6273 52.5364 33.1223 52.5073L33.4426 56.5544Z" fill="#EFF491"/>
<path d="M31.5798 47.0331C38.0144 47.0331 43.2261 42.9861 43.2261 38.0073C43.2261 36.4933 42.964 35.0957 42.1779 33.7855C38.4511 27.7004 36.1801 24.8762 31.5798 18.791C26.9796 24.8762 24.7086 27.7004 20.9818 33.7855C20.1665 35.0957 19.9336 36.4933 19.9336 38.0073C19.9336 42.9861 25.1453 47.0331 31.5798 47.0331Z" fill="white"/>
<path d="M28.0823 38.2967C28.0823 38.5005 27.9659 38.6169 27.7621 38.6169H27.5291C27.3253 38.6169 27.2089 38.5005 27.2089 38.2967V36.608H23.0453V38.2967C23.0453 38.5005 22.9289 38.6169 22.7251 38.6169H22.463C22.2592 38.6169 22.1719 38.5005 22.1719 38.2967V34.1622C22.1719 33.9584 22.2592 33.8711 22.463 33.8711H22.7251C22.9289 33.8711 23.0453 33.9584 23.0453 34.1622V35.9092H27.238V34.1622C27.238 33.9584 27.3545 33.8711 27.5583 33.8711H27.7912C27.995 33.8711 28.1115 33.9584 28.1115 34.1622V38.2967H28.0823ZM31.0812 33.8711H32.275C32.7991 33.8711 33.1485 33.9002 33.3523 33.9293C34.1966 34.0749 34.6333 34.4825 34.6333 35.1231V38.3258C34.6333 38.5296 34.546 38.6169 34.3422 38.6169H34.0802C33.8763 38.6169 33.7599 38.5296 33.7599 38.3258V35.1231C33.7599 34.861 33.5561 34.7154 33.1485 34.6281C32.7408 34.599 32.4497 34.5699 32.275 34.5699H31.0812C30.6445 34.5699 30.3534 34.599 30.2078 34.6281C29.8002 34.7154 29.5964 34.861 29.5964 35.1231V38.3258C29.5964 38.5296 29.4799 38.6169 29.2761 38.6169H29.014C28.8102 38.6169 28.7229 38.5296 28.7229 38.3258V35.1231C28.7229 34.5116 29.1596 34.104 30.004 33.9293C30.1787 33.9002 30.5572 33.8711 31.0812 33.8711ZM41.0097 37.3358C41.0097 38.1802 40.2818 38.6169 38.826 38.6169H37.4867C36.4385 38.6169 35.7689 38.384 35.4486 37.9182C35.3321 37.7435 35.2739 37.5688 35.2739 37.3358V35.1522C35.2739 34.3078 36.0018 33.8711 37.4576 33.8711H38.7969C39.4665 33.8711 39.9324 33.9293 40.2527 34.0458C40.7476 34.2496 41.0097 34.599 41.0097 35.1522V37.3358ZM40.1362 37.3358V35.1813C40.1362 34.7737 39.6995 34.5699 38.826 34.5699H37.4576C36.5841 34.5699 36.1474 34.7737 36.1474 35.1813V37.3358C36.1474 37.7144 36.5841 37.9182 37.4576 37.9182H38.826C39.6995 37.9182 40.1362 37.7144 40.1362 37.3358Z" fill="#6285C3"/>
</g>
<defs>
<linearGradient id="paint0_linear_389_5036" x1="2.20408" y1="16.6403" x2="18.4809" y2="77.3873" gradientUnits="userSpaceOnUse">
<stop stop-color="white"/>
<stop offset="1" stop-color="#7797CB"/>
</linearGradient>
<linearGradient id="paint1_linear_389_5036" x1="0.133925" y1="16.3089" x2="63.0236" y2="16.3089" gradientUnits="userSpaceOnUse">
<stop stop-color="#7797CB"/>
<stop offset="1" stop-color="white"/>
</linearGradient>
<linearGradient id="paint2_linear_389_5036" x1="51.2234" y1="12.8337" x2="34.9464" y2="73.5804" gradientUnits="userSpaceOnUse">
<stop stop-color="#7797CB"/>
<stop offset="1" stop-color="white"/>
</linearGradient>
<linearGradient id="paint3_linear_389_5036" x1="26.2411" y1="75.3057" x2="9.96398" y2="14.5589" gradientUnits="userSpaceOnUse">
<stop stop-color="#7797CB"/>
<stop offset="1" stop-color="white"/>
</linearGradient>
<clipPath id="clip0_389_5036">
<rect width="265.754" height="68" fill="white" transform="translate(0.0195312 0.470703)"/>
</clipPath>
</defs>
</svg>
