<svg width="34" height="34" viewBox="0 0 34 34" fill="none" xmlns="http://www.w3.org/2000/svg">
<path d="M25.3883 21.3683C25.3883 25.5569 21.6937 29.0195 17.0505 29.0195C12.4071 29.0195 8.71263 25.5571 8.71263 21.3683C8.71263 17.6825 10.8449 13.5095 13.0464 10.2013C14.1389 8.55949 15.2323 7.15416 16.0527 6.15921C16.4627 5.66201 16.804 5.26797 17.0422 4.99889C17.0449 4.99576 17.0477 4.99264 17.0505 4.98954C17.0532 4.99264 17.056 4.99576 17.0587 4.99889C17.2969 5.26797 17.6382 5.66201 18.0482 6.15921C18.8686 7.15416 19.962 8.55949 21.0545 10.2013C23.256 13.5095 25.3883 17.6825 25.3883 21.3683Z" stroke="#00D3D3" stroke-width="0.991661"/>
</svg>
