<?xml version="1.0" standalone="no"?>
  <!DOCTYPE svg PUBLIC "-//W3C//DTD SVG 1.1//EN" "http://www.w3.org/Graphics/SVG/1.1/DTD/svg11.dtd" >
  <svg>
  <metadata>
  Created by font-carrier
  </metadata>
  <defs>
  <font id="NeuropolMedium" horiz-adv-x="2434" vert-adv-y="2434" >
    <font-face
      
      font-family="Neuropol"
      
      font-weight="400"
      
      font-stretch="normal"
      
      units-per-em="2048"
      
      ascent="1507"
      
      descent="-393"
      
    />
      <missing-glyph />

      

      
      <glyph glyph-name="uni21" unicode="&#x21;" d="M399 331Q399 248 317 248L248 248Q165 248 165 331L165 1199Q165 1282 248 1282L317 1282Q399 1282 399 1199L399 331M426 107Q426 53 380 21Q340-8 284-8Q228-8 185 21Q137 53 137 107Q137 161 185 193Q227 221 284 221Q341 221 381 193Q426 162 426 107Z"  horiz-adv-x="564" vert-adv-y="2048"  />

      
      <glyph glyph-name="uni22" unicode="&#x22;" d="M683 1163L632 858Q620 789 551 789L483 789Q399 789 399 862L399 873Q401 881 401 885L451 1190Q462 1259 533 1259L601 1259Q685 1259 685 1186L685 1175Q683 1167 683 1163M386 1163L335 858Q323 789 254 789L186 789Q102 789 102 862L102 873Q104 881 104 885L154 1190Q165 1259 236 1259L304 1259Q388 1259 388 1186L388 1175Q386 1167 386 1163Z"  horiz-adv-x="763" vert-adv-y="2048"  />

      
      <glyph glyph-name="uni23" unicode="&#x23;" d="M1541 787L1532 760Q1513 704 1454 704L1184 704L1133 563L1339 563Q1424 563 1424 496Q1424 476 1417 455L1408 428Q1389 371 1330 371L1061 371L954 80Q934 26 877 26L810 26Q724 26 724 93Q724 113 733 137L819 371L635 371L528 80Q508 26 451 26L384 26Q298 26 298 93Q298 113 307 137L393 371L187 371Q99 371 99 437Q99 460 110 485L122 512Q145 563 198 563L465 563L517 704L311 704Q226 704 226 771Q226 791 233 812L242 839Q261 896 320 896L589 896L696 1187Q716 1241 773 1241L840 1241Q926 1241 926 1175Q926 1155 917 1130L832 896L1014 896L1121 1187Q1141 1241 1199 1241L1266 1241Q1352 1241 1352 1175Q1352 1154 1343 1130L1257 896L1463 896Q1548 896 1548 828Q1548 808 1541 787M944 704L758 704L707 563L892 563L944 704Z"  horiz-adv-x="1650" vert-adv-y="2048"  />

      
      <glyph glyph-name="uni24" unicode="&#x24;" d="M956 734L1011 734Q1353 734 1483 602Q1559 525 1559 423L1559 307Q1559-5 1006-5L956-5L956-38Q956-120 873-120L804-120Q722-120 722-38L722-5L336-6Q218-6 205-4Q126 8 108 67Q106 73 106 83Q106 96 108 104Q108 186 191 186L722 186L722 542L696 542Q210 542 127 777Q114 814 114 883Q114 929 117 947Q117 1127 319 1211Q466 1272 675 1272L722 1272L722 1289Q722 1371 804 1371L873 1371Q956 1371 956 1289L956 734M1327 305L1327 416Q1327 501 1202 529Q1144 542 1011 542L956 542L956 186L1008 186Q1178 186 1246 208Q1327 234 1327 305M722 729L722 1081L672 1081Q350 1081 350 950L350 855Q350 729 696 729L722 729Z"  horiz-adv-x="1635" vert-adv-y="2048"  />

      
      <glyph glyph-name="uni25" unicode="&#x25;" d="M2055 185Q2055-3 1746-33L1538-33Q1456-33 1389-34Q1113-5 1094 179L1094 344Q1094 531 1388 563L1746 563Q2055 533 2055 344L2055 185M1776 1135L612 22Q590 1 559-1L443-8Q407-10 378 8Q345 28 345 63Q345 101 381 135L1551 1252Q1573 1273 1605 1274L1717 1277Q1813 1280 1813 1208Q1813 1170 1776 1135M1046 879Q1046 690 737 660L381 660Q104 689 85 873L85 1038Q85 1226 379 1256L738 1256Q1046 1228 1046 1038L1046 879M1776 248L1776 272Q1776 371 1638 371L1476 371Q1344 358 1344 272L1344 245Q1352 165 1477 149L1637 151Q1776 153 1776 248M768 942L768 966Q768 1065 629 1065L468 1065Q336 1052 336 966L336 939Q344 859 468 843L628 843Q768 843 768 942Z"  horiz-adv-x="2128" vert-adv-y="2048"  />

      
      <glyph glyph-name="uni26" unicode="&#x26;" d="M1751 147Q1804 116 1804 68Q1804 32 1774.50 12.50Q1745-7 1708-7L1628-6Q1601-6 1586 6L1485 67Q1344-8 1086-8L639-8Q455-8 300 56Q95 141 95 300L95 387Q95 543 275 623Q324 645 419 672Q254 810 235 876Q228 899 230 921L240 1052Q275 1171 423 1229Q537 1274 685 1274L933 1274Q1098 1274 1221 1211Q1376 1132 1375 983Q1375 893 1370 877Q1337 763 1042 647Q950 611 940 611L1442 326L1443 592Q1443 674 1526 674L1594 674Q1676 674 1676 592L1676 338Q1676 267 1646 209L1751 147M1140 922L1140 984Q1140 1071 979 1080L928 1083L679 1083Q607 1083 550 1067Q464 1043 464 988L464 920Q464 894 506 857L692 746L980 827Q1140 872 1140 922M1263 194L658 538Q652 538 573 512Q329 432 329 390L329 305Q329 265 404 229Q498 184 653 184L1088 184Q1219 184 1263 194Z"  horiz-adv-x="1878" vert-adv-y="2048"  />

      
      <glyph glyph-name="uni27" unicode="&#x27;" d="M386 1163L335 858Q323 789 254 789L186 789Q102 789 102 862L102 873Q104 881 104 885L154 1190Q165 1259 236 1259L304 1259Q388 1259 388 1186L388 1175Q386 1167 386 1163Z"  horiz-adv-x="482" vert-adv-y="2048"  />

      
      <glyph glyph-name="uni28" unicode="&#x28;" d="M543 1121Q371 1020 371 905L371 362Q371 303 427 237Q476 178 535.50 149Q595 120 595 68Q595-8 500-8L438-8Q419-8 401 1Q288 58 208 180Q137 288 137 362L137 905Q137 1058 272 1182Q323 1229 404 1267Q414 1272 500 1274Q537 1275 566.50 1255Q596 1235 596 1199Q596 1152 543 1121Z"  horiz-adv-x="668" vert-adv-y="2048"  />

      
      <glyph glyph-name="uni29" unicode="&#x29;" d="M534 362Q534 286 464 180Q384 59 270 1Q252-8 233-8L170-8Q76-8 76 69Q76 108 143 158Q236 228 244 237Q300 303 300 362L300 905Q300 1022 128 1121Q75 1152 75 1199Q75 1275 170 1274Q254 1273 267 1267Q424 1193 494 1060Q534 984 534 905L534 362Z"  horiz-adv-x="668" vert-adv-y="2048"  />

      
      <glyph glyph-name="uni2a" unicode="&#x2a;" d="M1094 1160Q1126 1125 1126 1093Q1126 1040 1051 1024L928 997L1046 968Q1121 950 1121 898Q1121 864 1083 828L1041 788Q1017 765 984 765Q968 765 950 773L726 874L753 763Q757 747 757 730Q757 661 672 661L579 661Q495 661 495 731Q495 743 499 761L524 875L304 772Q287 764 268 764Q235 764 213 785L168 827Q129 863 129 898Q129 950 204 968L318 996L204 1022Q129 1039 129 1092Q129 1127 164 1161L209 1205Q235 1230 267 1230Q284 1230 301 1222L524 1120L498 1232Q494 1249 494 1265Q494 1333 578 1333L675 1333Q760 1333 760 1264Q760 1248 755 1229L727 1124L956 1226Q974 1234 993 1234Q1026 1234 1050 1208L1094 1160Z"  horiz-adv-x="1233" vert-adv-y="2048"  />

      
      <glyph glyph-name="uni2b" unicode="&#x2b;" d="M1737 620Q1737 538 1655 538L1048 538L1048 206Q1048 123 965 123L908 123Q825 123 825 206L825 538L223 538Q140 538 140 620L140 643Q140 725 223 725L822 725L822 1049Q822 1131 905 1131L965 1131Q1048 1131 1048 1049L1048 725L1655 725Q1737 725 1737 643L1737 620Z"  horiz-adv-x="1878" vert-adv-y="2048"  />

      
      <glyph glyph-name="uni2c" unicode="&#x2c;" d="M367 211L317-95Q306-164 235-164L167-164Q84-164 84-92L84-80Q86-72 86-68L135 238Q146 307 217 307L285 307Q369 307 369 234L369 223Q367 215 367 211Z"  horiz-adv-x="434" vert-adv-y="2048"  />

      
      <glyph glyph-name="uni2d" unicode="&#x2d;" d="M942 500Q942 418 859 418L168 418Q85 418 85 500L85 556Q85 638 168 638L859 638Q942 638 942 556L942 500Z"  horiz-adv-x="986" vert-adv-y="2048"  />

      
      <glyph glyph-name="uni2010" unicode="&#x2010;" d="M942 500Q942 418 859 418L168 418Q85 418 85 500L85 556Q85 638 168 638L859 638Q942 638 942 556L942 500Z"  horiz-adv-x="986" vert-adv-y="2048"  />

      
      <glyph glyph-name="uni2e" unicode="&#x2e;" d="M329 107Q329 53 283 21Q243-8 187-8Q131-8 88 21Q39 53 39 107Q39 161 88 193Q130 221 187 221Q242 221 283 192Q329 160 329 107Z"  horiz-adv-x="364" vert-adv-y="2048"  />

      
      <glyph glyph-name="uni2f" unicode="&#x2f;" d="M1426 1133L271 16Q246-8 214-8L140-8Q46-8 46 61Q46 98 83 134L1238 1251Q1262 1274 1295 1274L1369 1274Q1463 1274 1463 1205Q1463 1169 1426 1133Z"  horiz-adv-x="1509" vert-adv-y="2048"  />

      
      <glyph glyph-name="uni30" unicode="&#x30;" d="M1719 336Q1719-8 1126-8L762-8Q335-8 212 159Q166 222 166 303L169 926Q171 1274 762 1274L1126 1274Q1719 1274 1719 927L1719 336M1485 343L1485 921Q1485 1083 1131 1083L759 1083Q610 1083 538 1064Q402 1028 402 920L402 341Q402 184 759 184L1131 184Q1313 184 1391 214Q1485 250 1485 343Z"  horiz-adv-x="1842" vert-adv-y="2048"  />

      
      <glyph glyph-name="uni31" unicode="&#x31;" d="M376 75Q376-8 294-8L225-8Q142-8 142 75L142 1192Q142 1274 225 1274L294 1274Q376 1274 376 1192L376 75Z"  horiz-adv-x="518" vert-adv-y="2048"  />

      
      <glyph glyph-name="uni32" unicode="&#x32;" d="M1784 960Q1784 930 1781 883Q1777 803 1772 788Q1694 531 1232 531L700 531Q376 531 376 410L376 184L1697 184Q1779 184 1779 101L1779 75Q1779-8 1697-8L226-8Q144-8 144 75L144 407Q144 587 349 667Q492 723 705 723L1223 723Q1332 723 1415 743Q1551 776 1551 850L1551 959Q1551 1024 1404 1059Q1303 1083 1207 1083L1009 1083Q927 1083 927 1166L927 1192Q927 1274 1009 1274L1212 1274Q1349 1274 1442 1259Q1572 1238 1669 1166Q1786 1079 1784 960Z"  horiz-adv-x="1904" vert-adv-y="2048"  />

      
      <glyph glyph-name="uni33" unicode="&#x33;" d="M1772 329Q1772 139 1582 54Q1444-8 1227-8L212-8Q130-8 130 75L130 101Q130 184 212 184L1227 184Q1538 184 1538 320L1538 441Q1538 548 1237 548L212 548Q130 548 130 631L130 659Q130 741 212 741L1238 741Q1538 741 1538 856L1538 977Q1538 1054 1411 1075Q1363 1083 1227 1083L1016 1083Q934 1083 934 1166L934 1192Q934 1274 1016 1274L1227 1274Q1462 1274 1581 1231Q1772 1162 1772 969L1772 851Q1772 725 1662 649Q1772 571 1772 444L1772 329Z"  horiz-adv-x="1925" vert-adv-y="2048"  />

      
      <glyph glyph-name="uni34" unicode="&#x34;" d="M1835 75Q1835-8 1752-8L1654-8Q1572-8 1572 75L1572 318L218 318Q100 318 100 452L100 1191Q100 1274 182 1274L281 1274Q363 1274 363 1191L363 539L1572 539L1572 1191Q1572 1274 1654 1274L1752 1274Q1835 1274 1835 1191L1835 75Z"  horiz-adv-x="1946" vert-adv-y="2048"  />

      
      <glyph glyph-name="uni35" unicode="&#x35;" d="M1792 314Q1792-8 1215-8L204-8Q122-8 122 75L122 101Q122 184 204 184L1198 184Q1558 184 1558 315L1558 502Q1558 584 1445 622Q1367 648 1265 648L204 648Q122 648 122 731L122 1192Q122 1274 204 1274L970 1274Q1052 1274 1052 1192L1052 1166Q1052 1083 970 1083L353 1083L353 839L1260 839Q1456 839 1603 769Q1792 679 1792 503L1792 314Z"  horiz-adv-x="1918" vert-adv-y="2048"  />

      
      <glyph glyph-name="uni36" unicode="&#x36;" d="M1837 314Q1837 140 1651 56Q1510-8 1314-8L694-8Q372-8 236 116Q199 150 152 237Q137 293 137 335L137 947Q137 1274 697 1274L960 1274Q1042 1274 1042 1192L1042 1166Q1042 1083 960 1083L697 1083Q371 1083 371 950L371 842L1267 842Q1490 842 1632 785Q1837 703 1837 514L1837 314M1605 317L1605 510Q1605 590 1470 627Q1382 651 1273 651L371 651L371 336Q371 258 494 216Q588 184 698 184L1314 184Q1410 184 1489 208Q1605 243 1605 317Z"  horiz-adv-x="1939" vert-adv-y="2048"  />

      
      <glyph glyph-name="uni37" unicode="&#x37;" d="M1778 1191Q1779 1186 1779 1179Q1779 1153 1757 1113Q1752 1104 1734 1079L843 22Q818-8 714-8Q679-8 653 14Q627 36 627 70Q627 100 651 128L1459 1083L225 1083Q143 1083 143 1166L143 1192Q143 1274 225 1274L1623 1274Q1699 1274 1723 1265Q1766 1249 1778 1191Z"  horiz-adv-x="1881" vert-adv-y="2048"  />

      
      <glyph glyph-name="uni38" unicode="&#x38;" d="M1737 851Q1737 727 1603 644Q1735 546 1735 433L1735 321Q1735 142 1539 56Q1394-8 1190-8L689-8Q488-8 341 57Q144 144 144 320L144 433Q144 567 272 644Q137 710 137 853L137 946Q137 1274 719 1274L1160 1274Q1737 1274 1737 947L1737 851M1505 854L1505 947Q1505 1083 1160 1083L719 1083Q577 1083 510 1069Q371 1040 371 946L371 854Q371 741 697 741L1182 741Q1283 741 1368 759Q1505 788 1505 854M1503 323L1503 433Q1503 495 1358 527Q1263 548 1167 548L707 548Q604 548 517 530Q376 501 376 433L376 321Q376 286 447 242Q541 184 689 184L1190 184Q1294 184 1378 208Q1503 244 1503 323Z"  horiz-adv-x="1876" vert-adv-y="2048"  />

      
      <glyph glyph-name="uni39" unicode="&#x39;" d="M1737 321Q1737 136 1539 52Q1397-8 1182-8L980-8Q898-8 898 75L898 101Q898 184 980 184L1179 184Q1505 184 1505 339L1505 425L710 425Q140 425 140 753L140 955Q140 1123 328 1209Q470 1274 662 1274L1184 1274Q1401 1274 1544 1209Q1737 1121 1737 930L1737 321M1505 616L1505 930Q1505 1011 1383 1052Q1291 1083 1175 1083L665 1083Q564 1083 489 1061Q373 1027 373 952L373 757Q373 675 507 639Q592 616 705 616L1505 616Z"  horiz-adv-x="1876" vert-adv-y="2048"  />

      
      <glyph glyph-name="uni3a" unicode="&#x3a;" d="M344 605Q344 551 299 519Q259 490 203 490Q147 490 104 519Q55 551 55 605Q55 659 104 691Q146 719 203 719Q258 719 299 690Q344 658 344 605M344 114Q344 60 299 28Q259-1 203-1Q147-1 104 28Q55 60 55 114Q55 168 104 200Q146 228 203 228Q258 228 299 199Q344 167 344 114Z"  horiz-adv-x="404" vert-adv-y="2048"  />

      
      <glyph glyph-name="uni3b" unicode="&#x3b;" d="M410 602Q410 549 365 517Q324 488 269 488Q212 488 170 516Q121 548 121 602Q121 656 170 688Q212 716 269 716Q324 716 365 687Q410 655 410 602M367 211L317-95Q306-164 235-164L167-164Q84-164 84-92L84-80Q86-72 86-68L135 238Q146 307 217 307L285 307Q369 307 369 234L369 223Q367 215 367 211Z"  horiz-adv-x="473" vert-adv-y="2048"  />

      
      <glyph glyph-name="uni3c" unicode="&#x3c;" d="M1111 266Q1111 219 1042 219Q1010 219 976 233L120 589Q96 605 96 629Q96 656 123 672L976 1026Q1012 1041 1044 1041Q1111 1041 1111 994L1111 962Q1111 942 1081 930L346 630L1081 329Q1111 317 1111 297L1111 266Z"  horiz-adv-x="1246" vert-adv-y="2048"  />

      
      <glyph glyph-name="uni3d" unicode="&#x3d;" d="M968 673Q968 590 885 590L194 590Q111 590 111 673L111 728Q111 811 194 811L885 811Q968 811 968 728L968 673M968 403Q968 320 885 320L194 320Q111 320 111 403L111 458Q111 541 194 541L885 541Q968 541 968 458L968 403Z"  horiz-adv-x="1084" vert-adv-y="2048"  />

      
      <glyph glyph-name="uni3e" unicode="&#x3e;" d="M1123 629Q1123 607 1098 589L242 233Q208 219 175 219Q107 219 107 266L107 297Q107 317 137 329L872 630L137 930Q107 942 107 962L107 994Q107 1041 174 1041Q206 1041 242 1026L1096 672Q1123 655 1123 629Z"  horiz-adv-x="1235" vert-adv-y="2048"  />

      
      <glyph glyph-name="uni3f" unicode="&#x3f;" d="M1238 785Q1238 705 1170 635Q1113 576 1029 542Q900 490 715 490L467 490Q414 490 414 461L414 334Q414 251 332 251L276 251Q193 251 193 334L193 468Q193 674 537 674L714 674Q808 674 890 694Q1017 725 1017 791L1017 934Q1017 1020 903 1060Q824 1088 719 1088L666 1088Q583 1088 583 1170L583 1192Q583 1274 666 1274L720 1274Q923 1274 1060 1207Q1238 1120 1238 937L1238 785M441 114Q441 60 396 28Q356-1 300-1Q244-1 201 28Q152 60 152 114Q152 168 201 200Q243 228 300 228Q355 228 396 199Q441 167 441 114Z"  horiz-adv-x="1364" vert-adv-y="2048"  />

      
      <glyph glyph-name="uni41" unicode="&#x41;" d="M1859 111Q1862 96 1862 80Q1862 28 1827-4Q1792-36 1739-36Q1684-36 1640 28L1433 330L447 330L240 28Q230 9 221 1Q199-20 168-20Q101-20 69 28Q55 49 55 68Q55 81 59 89L798 1219Q846 1292 941 1288Q1054 1284 1076 1219L1859 111M1296 523L941 1046L584 523L1296 523Z"  horiz-adv-x="1903" vert-adv-y="2048"  />

      
      <glyph glyph-name="uni42" unicode="&#x42;" d="M1747 333Q1747 112 1504 33Q1430 9 1330-2Q1275-8 1234-8L242-8Q160-8 160 75L160 1192Q160 1274 242 1274L1205 1274Q1368 1274 1453 1255Q1574 1228 1655 1152Q1747 1067 1747 951L1747 852Q1747 736 1665 659Q1653 648 1653 634Q1653 625 1659 614L1665 605Q1747 529 1747 413L1747 333M1519 842L1513 950Q1506 1083 1210 1083L399 1083L399 723L1219 723Q1436 723 1500 793Q1520 815 1519 842M1513 409Q1515 531 1223 531L394 531L394 184L1207 184Q1478 184 1511 305L1513 409Z"  horiz-adv-x="1879" vert-adv-y="2048"  />

      
      <glyph glyph-name="uni43" unicode="&#x43;" d="M1612 1166Q1612 1083 1529 1083L697 1083Q394 1083 394 962L394 327Q394 236 528 200Q587 184 730 184L1524 184Q1606 184 1606 101L1606 75Q1606-8 1524-8L730-8Q586-8 527 0Q424 14 336 61Q160 155 160 323L160 961Q160 1081 272 1167Q367 1240 496 1262Q567 1274 693 1274L1529 1274Q1612 1274 1612 1192L1612 1166Z"  horiz-adv-x="1729" vert-adv-y="2048"  />

      
      <glyph glyph-name="uni44" unicode="&#x44;" d="M1735 338Q1735 249 1701 194L1704 201Q1651 92 1486 36Q1357-8 1208-8L219-8Q137-8 137 75L137 1192Q137 1274 219 1274L1214 1274Q1314 1274 1384 1262Q1735 1202 1735 947L1735 338M1503 339L1503 946Q1503 1024 1370 1065Q1312 1083 1207 1083L371 1083L371 184L1203 184Q1465 184 1500 310Q1503 321 1503 339Z"  horiz-adv-x="1873" vert-adv-y="2048"  />

      
      <glyph glyph-name="uni45" unicode="&#x45;" d="M1580 636L1578 609Q1572 531 1496 531L371 531L371 320Q371 184 671 184L1496 184Q1578 184 1578 101L1578 75Q1578-8 1496-8L660-8Q621-8 563-2Q137 42 137 312L137 947Q137 1127 346 1215Q486 1274 680 1274L908 1274Q990 1274 990 1192L990 1166Q990 1083 908 1083L671 1083L606 1079Q368 1064 368 947L368 723L1497 723Q1586 723 1580 636Z"  horiz-adv-x="1682" vert-adv-y="2048"  />

      
      <glyph glyph-name="uni46" unicode="&#x46;" d="M1573 614Q1573 531 1490 531L371 531L371 75Q371-8 288-8L219-8Q137-8 137 75L137 975Q137 1089 269 1175Q420 1274 667 1274L842 1274Q925 1274 925 1192L925 1166Q925 1083 842 1083L683 1083Q593 1083 503 1061Q371 1029 371 966L371 723L1490 723Q1573 723 1573 641L1573 614Z"  horiz-adv-x="1675" vert-adv-y="2048"  />

      
      <glyph glyph-name="uni47" unicode="&#x47;" d="M1716 318Q1716 143 1542 57Q1410-8 1214-8L683-8Q474-8 332 51Q137 132 137 314L137 956Q137 1128 338 1212Q486 1274 685 1274L896 1274Q978 1274 978 1192L978 1166Q978 1083 896 1083L697 1083Q371 1083 371 956L371 315Q371 184 686 184L1214 184Q1287 184 1372 212Q1482 248 1482 309L1482 641Q1482 723 1565 723L1634 723Q1716 723 1716 641L1716 318Z"  horiz-adv-x="1853" vert-adv-y="2048"  />

      
      <glyph glyph-name="uni48" unicode="&#x48;" d="M1735 75Q1735-8 1652-8L1586-8Q1503-8 1503 75L1503 531L371 531L371 75Q371-8 288-8L219-8Q137-8 137 75L137 1192Q137 1274 219 1274L288 1274Q371 1274 371 1192L371 723L1503 723L1503 1192Q1503 1274 1586 1274L1652 1274Q1735 1274 1735 1192L1735 75Z"  horiz-adv-x="1873" vert-adv-y="2048"  />

      
      <glyph glyph-name="uni49" unicode="&#x49;" d="M371 75Q371-8 288-8L219-8Q137-8 137 75L137 1192Q137 1274 219 1274L288 1274Q371 1274 371 1192L371 75Z"  horiz-adv-x="509" vert-adv-y="2048"  />

      
      <glyph glyph-name="uni4a" unicode="&#x4a;" d="M727 359Q727-8 148-8L97-8Q14-8 14 75L14 101Q14 184 97 184L142 184Q291 184 363 205Q493 243 493 356L493 1192Q493 1274 575 1274L645 1274Q727 1274 727 1192L727 359Z"  horiz-adv-x="853" vert-adv-y="2048"  />

      
      <glyph glyph-name="uni4b" unicode="&#x4b;" d="M1509 148Q1565 118 1565 68Q1565-8 1471-8L1388-8Q1368-8 1349 2L365 521L365 75Q365-8 282-8L219-8Q137-8 137 75L137 1192Q137 1274 219 1274L282 1274Q365 1274 365 1192L365 761L1313 1265Q1340 1274 1352 1274L1440 1274Q1534 1274 1534 1198Q1534 1148 1478 1119L571 644L1509 148Z"  horiz-adv-x="1676" vert-adv-y="2048"  />

      
      <glyph glyph-name="uni4c" unicode="&#x4c;" d="M1592 75Q1592-8 1509-8L775-8Q555-8 481 7Q137 77 137 329L137 1192Q137 1274 219 1274L288 1274Q371 1274 371 1192L371 329Q371 226 534 196Q599 184 773 184L1509 184Q1592 184 1592 101L1592 75Z"  horiz-adv-x="1640" vert-adv-y="2048"  />

      
      <glyph glyph-name="uni4d" unicode="&#x4d;" d="M2294 75Q2294-8 2212-8L2142-8Q2060-8 2060 75L2060 904L1371 54Q1316-14 1223-14Q1129-14 1073 54L371 908L371 75Q371-8 288-8L219-8Q137-8 137 75L137 1151Q137 1204 180 1239Q220 1272 275 1272Q350 1272 404 1208L1225 237L2027 1210Q2076 1269 2165 1269Q2294 1269 2294 1141L2294 75Z"  horiz-adv-x="2430" vert-adv-y="2048"  />

      
      <glyph glyph-name="uni4e" unicode="&#x4e;" d="M1724 129Q1724 40 1678 8Q1645-15 1569-15Q1539-15 1498 15Q1492 19 1462 45L371 973L371 75Q371-8 288-8L219-8Q137-8 137 75L137 1190Q137 1233 197 1268Q224 1284 257 1284Q305 1284 364 1250Q392 1234 413 1216L1490 299L1490 1192Q1490 1274 1573 1274L1641 1274Q1724 1274 1724 1192L1724 129Z"  horiz-adv-x="1862" vert-adv-y="2048"  />

      
      <glyph glyph-name="uni4f" unicode="&#x4f;" d="M1688 336Q1688-8 1094-8L730-8Q305-8 182 181Q137 250 137 335L137 926Q137 1274 729 1274L1094 1274Q1361 1274 1487 1225Q1688 1147 1688 926L1688 336M1454 341L1454 921Q1454 1083 1099 1083L728 1083Q371 1083 371 921L371 341Q371 184 728 184L1100 184Q1454 184 1454 341Z"  horiz-adv-x="1824" vert-adv-y="2048"  />

      
      <glyph glyph-name="uni50" unicode="&#x50;" d="M1732 789Q1732 598 1540 512Q1400 449 1182 449L371 449L371 75Q371-8 288-8L219-8Q137-8 137 75L137 1192Q137 1274 219 1274L1193 1274Q1381 1274 1527 1220Q1732 1144 1732 988L1732 789M1500 797L1500 972Q1500 1083 1195 1083L371 1083L371 641L1196 641Q1339 641 1408 668Q1500 704 1500 797Z"  horiz-adv-x="1860" vert-adv-y="2048"  />

      
      <glyph glyph-name="uni51" unicode="&#x51;" d="M1724 334Q1724 128 1514 49L1610-6Q1651-29 1651-63Q1651-119 1568-160Q1554-167 1535-167Q1491-167 1458-149L1196-5L746-5Q137-5 137 334L137 938Q137 1195 429 1252Q542 1274 745 1274L1120 1274Q1325 1274 1428 1257Q1724 1208 1724 939L1724 334M1490 327L1490 941Q1490 1038 1337 1069Q1268 1083 1112 1083L746 1083Q553 1083 475 1059Q371 1027 371 941L371 330Q371 218 552 196Q618 188 746 188L1112 188Q1306 188 1390 215Q1490 247 1490 327Z"  horiz-adv-x="1862" vert-adv-y="2048"  />

      
      <glyph glyph-name="uni52" unicode="&#x52;" d="M1721 795Q1721 632 1556 550Q1419 482 1203 482L818 482L1599 151Q1661 125 1661 70Q1661-9 1567-8Q1473-7 1437-1L371 455L371 75Q371-8 288-8L219-8Q137-8 137 75L137 1192Q137 1274 219 1274L1160 1274Q1379 1274 1520 1217Q1721 1136 1721 950L1721 795M1487 793L1487 955Q1487 1083 1159 1083L371 1083L371 673L1201 673Q1487 673 1487 793Z"  horiz-adv-x="1814" vert-adv-y="2048"  />

      
      <glyph glyph-name="uni53" unicode="&#x53;" d="M1580 309Q1580 95 1384 33Q1254-8 1019-8L210-8Q128-8 128 75L128 101Q128 184 210 184L1019 184Q1346 184 1346 305L1346 416Q1346 545 1022 545L713 545Q125 545 125 851L125 947Q125 1151 319 1226Q443 1274 690 1274L809 1274Q892 1274 892 1192L892 1166Q892 1083 809 1083L687 1083Q359 1083 359 949L359 860Q359 776 504 751Q562 741 709 741L1022 741Q1231 741 1376 683Q1580 601 1580 424L1580 309Z"  horiz-adv-x="1704" vert-adv-y="2048"  />

      
      <glyph glyph-name="uni54" unicode="&#x54;" d="M1452 1166Q1452 1083 1369 1083L851 1083L851 75Q851-8 769-8L700-8Q618-8 618 75L618 1083L103 1083Q20 1083 20 1166L20 1192Q20 1274 103 1274L1369 1274Q1452 1274 1452 1192L1452 1166Z"  horiz-adv-x="1450" vert-adv-y="2048"  />

      
      <glyph glyph-name="uni55" unicode="&#x55;" d="M1735 353Q1735-8 1109-8L781-8Q293-8 191 172Q154 237 154 353L154 1192Q154 1274 236 1274L305 1274Q388 1274 388 1192L388 368Q388 247 538 206Q619 184 784 184L1106 184Q1278 184 1353 204Q1502 244 1502 367L1502 1192Q1502 1274 1585 1274L1653 1274Q1735 1274 1735 1192L1735 353Z"  horiz-adv-x="1873" vert-adv-y="2048"  />

      
      <glyph glyph-name="uni56" unicode="&#x56;" d="M1827 1145L1069 67Q1040 25 1014 10Q978-11 930-11Q869-11 823 27Q807 40 789 66L30 1145Q6 1179 6 1209Q6 1274 97 1274L107 1274Q113 1274 123 1275Q210 1275 235 1239L930 247L1621 1239Q1646 1275 1731 1275L1748 1275Q1755 1275 1759 1274Q1850 1266 1850 1208Q1850 1178 1827 1145Z"  horiz-adv-x="1851" vert-adv-y="2048"  />

      
      <glyph glyph-name="uni57" unicode="&#x57;" d="M2421 1157L1915 86Q1870-9 1777-9Q1674-9 1632 80L1227 944L810 78Q773 1 672 1Q566 1 528 83L24 1157Q14 1178 14 1197Q14 1247 99 1274Q118 1280 142 1280Q216 1280 241 1227L673 311L1083 1192Q1098 1224 1126 1248Q1170 1286 1224 1286Q1276 1286 1323 1243Q1338 1229 1359 1200L1776 311L2201 1226Q2225 1278 2304 1278Q2432 1278 2432 1199Q2432 1180 2421 1157Z"  horiz-adv-x="2434" vert-adv-y="2048"  />

      
      <glyph glyph-name="uni58" unicode="&#x58;" d="M1587 138Q1628 103 1628 63Q1628-8 1533-8Q1521-10 1498-10Q1434-10 1408 12L825 504L236 12Q210-10 143-10Q123-10 111-8Q16-8 16 64Q16 103 57 138L658 644L77 1129Q35 1164 35 1204Q35 1274 130 1274L201 1274Q232 1274 254 1256L825 779L1392 1255Q1415 1274 1445 1274L1514 1274Q1608 1274 1608 1203Q1608 1163 1567 1129L990 644L1587 138Z"  horiz-adv-x="1634" vert-adv-y="2048"  />

      
      <glyph glyph-name="uni59" unicode="&#x59;" d="M1552 1133L921 527L919 75Q919-8 837-8L769-8Q686-8 686 74L686 527L54 1133Q17 1168 17 1205Q17 1274 112 1274L184 1274Q217 1274 241 1251L802 713L1365 1251Q1389 1274 1422 1274L1495 1274Q1589 1274 1589 1205Q1589 1169 1552 1133Z"  horiz-adv-x="1588" vert-adv-y="2048"  />

      
      <glyph glyph-name="uni5a" unicode="&#x5a;" d="M1548 75Q1548-8 1466-8L295-8Q220-8 168 19Q102 52 102 120Q102 168 139 199L1330 1211Q1383 1256 1441 1256Q1485 1256 1517.50 1230Q1550 1204 1550 1161Q1550 1114 1502 1073L452 184L1466 184Q1548 184 1548 101L1548 75Z"  horiz-adv-x="1659" vert-adv-y="2048"  />

      
      <glyph glyph-name="uni5b" unicode="&#x5b;" d="M612 1166Q612 1083 530 1083L371 1083L371 184L524 184Q607 184 607 101L607 75Q607-8 524-8L219-8Q137-8 137 75L137 1192Q137 1274 219 1274L530 1274Q612 1274 612 1192L612 1166Z"  horiz-adv-x="649" vert-adv-y="2048"  />

      
      <glyph glyph-name="uni5c" unicode="&#x5c;" d="M1425 134Q1462 98 1462 61Q1462-8 1368-8L1294-8Q1262-8 1237 16L82 1133Q45 1169 45 1206Q45 1274 139 1274L213 1274Q246 1274 270 1251L1425 134Z"  horiz-adv-x="1509" vert-adv-y="2048"  />

      
      <glyph glyph-name="uni5d" unicode="&#x5d;" d="M512 75Q512-8 430-8L119-8Q36-8 36 75L36 101Q36 184 119 184L278 184L278 1083L124 1083Q41 1083 41 1166L41 1192Q41 1274 124 1274L430 1274Q512 1274 512 1192L512 75Z"  horiz-adv-x="649" vert-adv-y="2048"  />

      
      <glyph glyph-name="uni5f" unicode="&#x5f;" d="M1558-257Q1558-339 1476-339L77-339Q-5-339-5-257L-5-200Q-5-117 77-117L1476-117Q1558-117 1558-200L1558-257Z"  horiz-adv-x="1566" vert-adv-y="2048"  />

      
      <glyph glyph-name="uni61" unicode="&#x61;" d="M1614 295Q1614-8 1159-8L616-8Q537-8 444 14Q142 85 142 284L142 413Q142 570 306 650Q431 711 608 711L1394 711Q1377 814 1132 814L964 814Q882 814 882 896L882 918Q882 1001 964 1001L1086 1001Q1614 1001 1614 691L1614 295M1392 284L1392 524L603 524Q540 524 466 501Q364 469 364 414L364 286Q364 223 483 197Q524 188 610 178L1161 178Q1392 178 1392 284Z"  horiz-adv-x="1739" vert-adv-y="2048"  />

      
      <glyph glyph-name="uni62" unicode="&#x62;" d="M1570 309Q1570 77 1287 15Q1182-8 1044-8L703-8Q595-8 481 20Q160 99 160 304L160 1190Q160 1273 242 1273L300 1273Q382 1273 382 1190L382 993L1044 993Q1570 993 1570 680L1570 309M1348 317L1348 676Q1348 806 1048 806L382 806L382 305Q382 246 502 209Q603 178 730 178L1046 178Q1216 178 1274 200Q1348 228 1348 317Z"  horiz-adv-x="1684" vert-adv-y="2048"  />

      
      <glyph glyph-name="uni63" unicode="&#x63;" d="M1565 75Q1565-8 1462-8L640-8Q413-8 299 37Q120 108 120 297L120 695Q120 1001 594 1001L1474 1001Q1557 1001 1557 918L1557 896Q1557 814 1474 814L609 814Q494 814 442 801Q342 776 342 701L342 306Q342 178 646 178L1482 178Q1565 178 1565 95L1565 75Z"  horiz-adv-x="1680" vert-adv-y="2048"  />

      
      <glyph glyph-name="uni64" unicode="&#x64;" d="M1564 302Q1564 181 1432 93Q1281-8 1021-8L682-8Q149-8 151 277L154 679Q156 993 679 993L1342 993L1342 1190Q1342 1273 1424 1273L1481 1273Q1564 1273 1564 1190L1564 302M1342 306L1342 806L674 806Q376 806 376 675L376 317Q376 219 488 191Q540 178 679 178L999 178Q1342 178 1342 306Z"  horiz-adv-x="1684" vert-adv-y="2048"  />

      
      <glyph glyph-name="uni65" unicode="&#x65;" d="M1527 479Q1527 387 1465 387L361 387Q361 178 649 178L815 178Q897 178 897 95L897 75Q897-8 815-8L673-8Q460-8 325 48Q132 128 132 311L132 682Q132 857 323 941Q462 1002 664 1002L1079 1002Q1247 1002 1368 945Q1527 870 1527 722L1527 479M1311 580L1311 704Q1311 761 1183 792Q1093 814 1011 814L689 814Q354 814 354 696L354 580L1311 580Z"  horiz-adv-x="1651" vert-adv-y="2048"  />

      
      <glyph glyph-name="uni66" unicode="&#x66;" d="M780 890Q780 807 698 807L359 807L359 75Q359-8 277-8L219-8Q137-8 137 75L137 977Q137 1131 256 1207Q355 1271 518 1271Q454 1271 698 1274Q780 1275 780 1192L780 1172Q780 1089 698 1089L595 1089Q362 1089 362 993L698 993Q780 993 780 911L780 890Z"  horiz-adv-x="914" vert-adv-y="2048"  />

      
      <glyph glyph-name="uni67" unicode="&#x67;" d="M1532 25Q1532-149 1312-230Q1158-287 950-287L857-287Q774-287 774-205L774-183Q774-101 857-101L1018-101Q1077-101 1183-69Q1303-33 1303 0L694 0Q480 0 340 54Q137 132 137 312L137 686Q137 845 301 930Q438 1001 635 1001L962 1001Q1172 1001 1321 943Q1532 861 1532 684L1532 25M1307 185L1307 675Q1307 751 1182 789Q1096 815 998 815L647 815Q525 815 470 802Q359 776 359 691L359 315Q359 185 689 185L1307 185Z"  horiz-adv-x="1669" vert-adv-y="2048"  />

      
      <glyph glyph-name="uni68" unicode="&#x68;" d="M1532 75Q1532-8 1450-8L1392-8Q1310-8 1310 75L1310 670Q1310 762 1198 792Q1142 807 1012 807L359 807L359 75Q359-8 277-8L219-8Q137-8 137 75L137 1192Q137 1274 219 1274L277 1274Q359 1274 359 1192L359 993L959 993Q1217 993 1334 951Q1532 880 1532 673L1532 75Z"  horiz-adv-x="1669" vert-adv-y="2048"  />

      
      <glyph glyph-name="uni69" unicode="&#x69;" d="M396 1055Q396 1001 350 969Q310 940 254 940Q198 940 155 969Q107 1001 107 1055Q107 1109 155 1141Q197 1169 254 1169Q311 1169 351 1141Q396 1110 396 1055M365 75Q365-8 282-8L227-8Q144-8 144 75L144 838Q144 920 227 920L282 920Q365 920 365 838L365 75Z"  horiz-adv-x="503" vert-adv-y="2048"  />

      
      <glyph glyph-name="uni6a" unicode="&#x6a;" d="M417 1059Q417 1005 371 973Q331 944 275 944Q219 944 176 973Q127 1005 127 1059Q127 1113 176 1145Q218 1173 275 1173Q332 1173 372 1145Q417 1114 417 1059M385 86Q385-155 133-204Q51-220-87-220L-195-220Q-277-220-277-137L-277-116Q-277-33-195-33L-90-33Q-20-33 57-12Q163 17 163 68L163 839Q163 921 246 921L303 921Q385 921 385 839L385 86Z"  horiz-adv-x="499" vert-adv-y="2048"  />

      
      <glyph glyph-name="uni6b" unicode="&#x6b;" d="M1260 149Q1318 120 1318 68Q1318-8 1223-8L1153-8Q1134-8 1116 1L357 381L357 75Q357-8 275-8L219-8Q137-8 137 75L137 1192Q137 1274 219 1274L275 1274Q357 1274 357 1192L357 610L1106 984Q1133 993 1143 993L1207 993Q1301 993 1301 917Q1301 865 1244 837L564 498L1260 149Z"  horiz-adv-x="1421" vert-adv-y="2048"  />

      
      <glyph glyph-name="uni6c" unicode="&#x6c;" d="M359 75Q359-8 277-8L219-8Q137-8 137 75L137 1192Q137 1274 219 1274L277 1274Q359 1274 359 1192L359 75Z"  horiz-adv-x="496" vert-adv-y="2048"  />

      
      <glyph glyph-name="uni6d" unicode="&#x6d;" d="M2046 75Q2046-8 1964-8L1906-8Q1823-8 1823 75L1823 697Q1823 814 1574 814L1427 814Q1205 814 1205 668L1205 75Q1205-8 1122-8L1064-8Q981-8 981 75L981 671Q981 760 918 792Q874 814 773 814L626 814Q359 814 359 695L359 75Q359-8 277-8L219-8Q137-8 137 75L137 672Q137 1001 621 1001L773 1001Q957 1001 1099 915Q1241 1001 1426 1001L1580 1001Q2046 1001 2046 672L2046 75Z"  horiz-adv-x="2183" vert-adv-y="2048"  />

      
      <glyph glyph-name="uni6e" unicode="&#x6e;" d="M1514 75Q1514-8 1431-8L1373-8Q1290-8 1290 75L1290 717Q1290 776 1217 797Q1158 814 1009 814L647 814Q492 814 434 798Q359 777 359 716L359 75Q359-8 277-8L219-8Q137-8 137 75L137 714Q137 1001 646 1001L1009 1001Q1514 1001 1514 716L1514 75Z"  horiz-adv-x="1650" vert-adv-y="2048"  />

      
      <glyph glyph-name="uni6f" unicode="&#x6f;" d="M1514 305Q1514 130 1336 48Q1215-8 1021-8L652-8Q295-8 179 169Q137 233 137 305L137 677Q137 800 252 890Q393 1001 651 1001L1021 1001Q1514 1001 1514 679L1514 305M1288 305L1288 694Q1288 814 1015 814L654 814Q556 814 477 790Q359 754 359 677L359 305Q359 231 479 199Q557 178 655 178L1016 178Q1102 178 1179 202Q1288 236 1288 305Z"  horiz-adv-x="1650" vert-adv-y="2048"  />

      
      <glyph glyph-name="uni70" unicode="&#x70;" d="M1532 313Q1532 0 1052 0L359 0L359-205Q359-287 277-287L219-287Q137-287 137-205L137 701Q137 885 310 955Q424 1001 644 1001L998 1001Q1532 1001 1532 704L1532 313M1307 310L1307 701Q1307 781 1183 805Q1131 815 1000 815L654 815Q359 815 359 696L359 185L1052 185Q1307 185 1307 310Z"  horiz-adv-x="1669" vert-adv-y="2048"  />

      
      <glyph glyph-name="uni71" unicode="&#x71;" d="M1532-205Q1532-287 1450-287L1389-287Q1307-287 1307-205L1307 0L618 0Q137 0 137 313L137 703Q137 1001 670 1001L1026 1001Q1242 1001 1358 954Q1532 884 1532 702L1532-205M1307 185L1307 697Q1307 815 1015 815L668 815Q359 815 359 701L359 310Q359 185 614 185L1307 185Z"  horiz-adv-x="1669" vert-adv-y="2048"  />

      
      <glyph glyph-name="uni72" unicode="&#x72;" d="M796 896Q796 814 713 814L611 814Q362 814 362 688L362 75Q362-8 280-8L219-8Q137-8 137 76L140 688Q141 858 307 939Q434 1001 624 1001L713 1001Q796 1001 796 918L796 896Z"  horiz-adv-x="896" vert-adv-y="2048"  />

      
      <glyph glyph-name="uni73" unicode="&#x73;" d="M1409 280Q1409-8 969-8L218-8Q136-8 136 75L136 95Q136 178 218 178L971 178Q1179 178 1179 280L1179 318Q1179 410 989 410L628 410Q418 410 307 451Q131 516 131 687L131 742Q131 1001 610 1001L774 1001Q857 1001 857 918L857 896Q857 814 774 814L614 814Q488 814 464 811Q353 797 353 742L353 689Q353 635 427 615Q486 599 630 599L998 599Q1409 599 1409 326L1409 280Z"  horiz-adv-x="1501" vert-adv-y="2048"  />

      
      <glyph glyph-name="uni74" unicode="&#x74;" d="M138 807Q55 807 55 890L55 911Q55 993 138 993L216 993L216 1192Q216 1274 298 1274L356 1274Q438 1274 438 1192L438 993L790 993Q873 993 873 911L873 890Q873 807 790 807L438 807L438 75Q438-8 356-8L298-8Q216-8 216 75L216 807L138 807Z"  horiz-adv-x="944" vert-adv-y="2048"  />

      
      <glyph glyph-name="uni75" unicode="&#x75;" d="M1547 293Q1547 124 1349 47Q1208-8 1009-8L678-8Q137-8 137 293L137 918Q137 1001 219 1001L277 1001Q359 1001 359 918L359 293Q359 178 678 178L1009 178Q1322 178 1322 290L1322 918Q1322 1001 1404 1001L1464 1001Q1547 1001 1547 918L1547 293Z"  horiz-adv-x="1684" vert-adv-y="2048"  />

      
      <glyph glyph-name="uni76" unicode="&#x76;" d="M1629 866L922 12Q886-31 837-31Q789-31 755 10L44 866Q15 901 15 934Q15 1001 108 1001L171 1001Q210 1001 235 971L838 236L1438 971Q1462 1001 1502 1001L1565 1001Q1658 1001 1658 934Q1658 901 1629 866Z"  horiz-adv-x="1661" vert-adv-y="2048"  />

      
      <glyph glyph-name="uni77" unicode="&#x77;" d="M2047 881L1635 82Q1599 12 1500 12Q1405 12 1369 80L1042 694L709 78Q672 9 573 9Q471 9 435 81L32 881Q17 911 17 936Q17 1001 106 1001L166 1001Q216 1001 239 956L580 297L913 911Q953 985 1042 985Q1128 985 1168 912L1501 297L1840 956Q1863 1001 1913 1001L1974 1001Q2063 1001 2063 935Q2063 912 2047 881Z"  horiz-adv-x="2056" vert-adv-y="2048"  />

      
      <glyph glyph-name="uni78" unicode="&#x78;" d="M1391 142Q1437 108 1437 65Q1437-8 1342-8L1276-8Q1249-8 1227 8L731 371L229 8Q207-8 181-8L112-8Q17-8 17 65Q17 108 64 142L559 496L70 851Q24 884 24 928Q24 1001 119 1001L189 1001Q216 1001 238 985L732 623L1215 984Q1238 1001 1264 1001L1331 1001Q1425 1001 1425 928Q1425 885 1380 852L902 499L1391 142Z"  horiz-adv-x="1436" vert-adv-y="2048"  />

      
      <glyph glyph-name="uni79" unicode="&#x79;" d="M1524 7Q1524-287 1047-287L868-287Q785-287 785-205L785-179Q785-96 868-96L1049-96Q1301-96 1301 0L638 0Q137 0 137 301L137 918Q137 1001 219 1001L277 1001Q359 1001 359 918L359 301Q359 185 638 185L1301 185L1301 918Q1301 1001 1384 1001L1442 1001Q1524 1001 1524 918L1524 7Z"  horiz-adv-x="1661" vert-adv-y="2048"  />

      
      <glyph glyph-name="uni7a" unicode="&#x7a;" d="M1522 75Q1522-8 1439-8L272-8Q213-8 170 20Q121 52 121 108Q121 166 178 203L1318 940Q1361 968 1402 968Q1444 968 1472 937.50Q1500 907 1500 865Q1500 825 1471 806L512 181L1439 178Q1522 178 1522 95L1522 75Z"  horiz-adv-x="1614" vert-adv-y="2048"  />

      
      <glyph glyph-name="uni7b" unicode="&#x7b;" d="M623-175L533-175Q434-175 364-147Q267-108 267-23L267 521Q267 544 226 554Q151 572 151 630Q151 685 221 711Q245 720 252 724Q267 733 267 747L267 1288Q267 1442 532 1442L623 1442Q717 1442 717 1354Q717 1268 623 1268L512 1268L510 748Q510 680 458 634Q510 588 510 519L512-8L623-8Q699-8 699-94Q699-175 623-175Z"  horiz-adv-x="805" vert-adv-y="2048"  />

      
      <glyph glyph-name="uni7c" unicode="&#x7c;" d="M371-205Q371-288 288-288L219-288Q137-288 137-205L137 1302Q137 1384 219 1384L288 1384Q371 1384 371 1302L371-205Z"  horiz-adv-x="509" vert-adv-y="2048"  />

      
      <glyph glyph-name="uni7d" unicode="&#x7d;" d="M587 711Q656 687 656 630Q656 572 581 554Q540 544 540 521L540-23Q540-108 443-147Q374-175 275-175L184-175Q108-175 108-94Q108-8 184-8L296-8L297 519Q297 587 350 634Q297 681 297 748L296 1268L184 1268Q91 1268 91 1355Q91 1442 184 1442L275 1442Q373 1442 444 1413Q540 1374 540 1288L540 747Q540 727 587 711Z"  horiz-adv-x="805" vert-adv-y="2048"  />

      
      <glyph glyph-name="unia8" unicode="&#xa8;" d="M1580 636L1578 609Q1572 531 1496 531L371 531L371 320Q371 184 671 184L1496 184Q1578 184 1578 101L1578 75Q1578-8 1496-8L660-8Q621-8 563-2Q137 42 137 312L137 947Q137 1127 346 1215Q486 1274 680 1274L908 1274Q990 1274 990 1192L990 1166Q990 1083 908 1083L671 1083L606 1079Q368 1064 368 947L368 723L1497 723Q1586 723 1580 636M451 1517L658 1517Q714 1517 714 1461L714 1385Q714 1329 658 1329L451 1329Q395 1329 395 1385L395 1461Q395 1517 451 1517M1051 1517L1258 1517Q1314 1517 1314 1461L1314 1385Q1314 1329 1258 1329L1051 1329Q995 1329 995 1385L995 1461Q995 1517 1051 1517Z"  horiz-adv-x="1682" vert-adv-y="2048"  />

      
      <glyph glyph-name="unib2" unicode="&#xb2;" d="M1527 479Q1527 387 1465 387L361 387Q361 178 649 178L815 178Q897 178 897 95L897 75Q897-8 815-8L673-8Q460-8 325 48Q132 128 132 311L132 682Q132 857 323 941Q462 1002 664 1002L1079 1002Q1247 1002 1368 945Q1527 870 1527 722L1527 479M1311 580L1311 704Q1311 761 1183 792Q1093 814 1011 814L689 814Q354 814 354 696L354 580L1311 580M424 1260L613 1260Q669 1260 669 1204L669 1138Q669 1082 613 1082L424 1082Q368 1082 368 1138L368 1204Q368 1260 424 1260M1054 1260L1243 1260Q1299 1260 1299 1204L1299 1138Q1299 1082 1243 1082L1054 1082Q998 1082 998 1138L998 1204Q998 1260 1054 1260Z"  horiz-adv-x="1651" vert-adv-y="2048"  />

      
      <glyph glyph-name="unib8" unicode="&#xb8;" d="M1527 479Q1527 387 1465 387L361 387Q361 178 649 178L815 178Q897 178 897 95L897 75Q897-8 815-8L673-8Q460-8 325 48Q132 128 132 311L132 682Q132 857 323 941Q462 1002 664 1002L1079 1002Q1247 1002 1368 945Q1527 870 1527 722L1527 479M1311 580L1311 704Q1311 761 1183 792Q1093 814 1011 814L689 814Q354 814 354 696L354 580L1311 580M406 1260L628 1260Q684 1260 684 1204L684 1134Q684 1078 628 1078L406 1078Q350 1078 350 1134L350 1204Q350 1260 406 1260M976 1260L1198 1260Q1254 1260 1254 1204L1254 1134Q1254 1078 1198 1078L976 1078Q920 1078 920 1134L920 1204Q920 1260 976 1260Z"  horiz-adv-x="1651" vert-adv-y="2048"  />

      
      <glyph glyph-name="unic0" unicode="&#xc0;" d="M1859 111Q1862 96 1862 80Q1862 28 1827-4Q1792-36 1739-36Q1684-36 1640 28L1433 330L447 330L240 28Q230 9 221 1Q199-20 168-20Q101-20 69 28Q55 49 55 68Q55 81 59 89L798 1219Q846 1292 941 1288Q1054 1284 1076 1219L1859 111M1296 523L941 1046L584 523L1296 523Z"  horiz-adv-x="1903" vert-adv-y="2048"  />

      
      <glyph glyph-name="unic1" unicode="&#xc1;" d="M1747 398L1747 318Q1747 95 1504 16Q1476 7 1424 3L1330-4Q1276-8 1234-8L242-8Q160-8 160 75L160 948Q160 1124 377 1216Q516 1275 711 1275L939 1275Q1021 1275 1021 1193L1021 1167Q1021 1084 939 1084L702 1084L637 1080Q399 1065 399 948L399 723L1219 723Q1528 723 1665 590Q1747 510 1747 398M1513 394Q1513 531 1223 531L394 531L394 184L1207 184Q1484 184 1513 290L1513 394Z"  horiz-adv-x="1879" vert-adv-y="2048"  />

      
      <glyph glyph-name="unic2" unicode="&#xc2;" d="M1747 333Q1747 112 1504 33Q1430 9 1330-2Q1275-8 1234-8L242-8Q160-8 160 75L160 1192Q160 1274 242 1274L1205 1274Q1368 1274 1453 1255Q1574 1228 1655 1152Q1747 1067 1747 951L1747 852Q1747 736 1665 659Q1653 648 1653 634Q1653 625 1659 614L1665 605Q1747 529 1747 413L1747 333M1519 842L1513 950Q1506 1083 1210 1083L399 1083L399 723L1219 723Q1436 723 1500 793Q1520 815 1519 842M1513 409Q1515 531 1223 531L394 531L394 184L1207 184Q1478 184 1511 305L1513 409Z"  horiz-adv-x="1879" vert-adv-y="2048"  />

      
      <glyph glyph-name="unic3" unicode="&#xc3;" d="M1362 1191Q1362 1274 1279 1274L775 1274Q555 1274 481 1259Q137 1189 137 937L137 74Q137-8 219-8L288-8Q371-8 371 74L371 937Q371 1040 534 1070Q599 1082 773 1082L1279 1082Q1362 1082 1362 1165L1362 1191Z"  horiz-adv-x="1398" vert-adv-y="2048"  />

      
      <glyph glyph-name="unic4" unicode="&#xc4;" d="M555 184L1143 1017L1727 184L555 184M1281 1197Q1226 1275 1143 1275Q1082 1275 1037 1237Q1021 1224 1003 1198L285 184L125 184Q42 184 42 101L42 75Q42-8 125-8L2151-8Q2234-8 2234 75L2234 101Q2234 184 2161 184L1999 184L1281 1197Z"  horiz-adv-x="2275" vert-adv-y="2048"  />

      
      <glyph glyph-name="unic5" unicode="&#xc5;" d="M1580 636L1578 609Q1572 531 1496 531L371 531L371 320Q371 184 671 184L1496 184Q1578 184 1578 101L1578 75Q1578-8 1496-8L660-8Q621-8 563-2Q137 42 137 312L137 947Q137 1127 346 1215Q486 1274 680 1274L908 1274Q990 1274 990 1192L990 1166Q990 1083 908 1083L671 1083L606 1079Q368 1064 368 947L368 723L1497 723Q1586 723 1580 636Z"  horiz-adv-x="1682" vert-adv-y="2048"  />

      
      <glyph glyph-name="unic6" unicode="&#xc6;" d="M1109 1274L1172 1274Q1255 1274 1255 1192L1255 761L1903 1265Q1930 1274 1942 1274L2030 1274Q2124 1274 2124 1198Q2124 1163 2068 1119L1461 644L2099 148Q2155 104 2155 68Q2155-8 2061-8L1978-8Q1952-8 1939 2L1255 521L1255 75Q1255-8 1172-8L1109-8Q1027-8 1027 75L1027 521L343 2Q330-8 304-8L221-8Q127-8 127 68Q127 104 183 148L821 644L214 1119Q158 1163 158 1198Q158 1274 252 1274L340 1274Q352 1274 379 1265L1027 761L1027 1192Q1027 1274 1109 1274Z"  horiz-adv-x="2282" vert-adv-y="2048"  />

      
      <glyph glyph-name="unic7" unicode="&#xc7;" d="M1592 329Q1592 139 1402 54Q1263-8 1047-8L236-8Q154-8 154 75L154 101Q154 184 236 184L1047 184Q1358 184 1358 320L1358 441Q1358 548 1057 548L236 548Q154 548 154 631L154 659Q154 741 236 741L1058 741Q1358 741 1358 856L1358 977Q1358 1054 1231 1075Q1182 1083 1097 1083L906 1083Q824 1083 824 1166L824 1192Q824 1274 906 1274L1097 1274Q1592 1274 1592 969L1592 851Q1592 725 1482 649Q1592 571 1592 444L1592 329Z"  horiz-adv-x="1745" vert-adv-y="2048"  />

      
      <glyph glyph-name="unic8" unicode="&#xc8;" d="M1724 1140Q1724 1229 1678 1261Q1645 1284 1569 1284Q1557 1284 1518 1254Q1517 1253 1482 1224L371 296L371 1194Q371 1277 288 1277L219 1277Q137 1277 137 1194L137 79Q137 36 197 1Q224-15 257-15Q296-15 354 19Q382 35 403 53L1490 970L1490 77Q1490-5 1573-5L1641-5Q1724-5 1724 77L1724 1140Z"  horiz-adv-x="1862" vert-adv-y="2048"  />

      
      <glyph glyph-name="unic9" unicode="&#xc9;" d="M1724 1140Q1724 1229 1678 1261Q1645 1284 1569 1284Q1557 1284 1518 1254Q1517 1253 1482 1224L371 296L371 1194Q371 1277 288 1277L219 1277Q137 1277 137 1194L137 79Q137 36 197 1Q224-15 257-15Q296-15 354 19Q382 35 403 53L1490 970L1490 77Q1490-5 1573-5L1641-5Q1724-5 1724 77L1724 1140M1310 1360Q1310 1278 1227 1278L636 1278Q553 1278 553 1360L553 1416Q553 1498 636 1498L1227 1498Q1310 1498 1310 1416L1310 1360Z"  horiz-adv-x="1862" vert-adv-y="2048"  />

      
      <glyph glyph-name="unica" unicode="&#xca;" d="M1509 148Q1565 118 1565 68Q1565-8 1471-8L1388-8Q1368-8 1349 2L365 521L365 75Q365-8 282-8L219-8Q137-8 137 75L137 1192Q137 1274 219 1274L282 1274Q365 1274 365 1192L365 761L1313 1265Q1340 1274 1352 1274L1440 1274Q1534 1274 1534 1198Q1534 1148 1478 1119L571 644L1509 148Z"  horiz-adv-x="1676" vert-adv-y="2048"  />

      
      <glyph glyph-name="unicb" unicode="&#xcb;" d="M1830 122L1068 1197Q1013 1275 930 1275Q869 1275 824 1237Q808 1224 790 1198L27 122Q3 88 3 58Q3-7 94-7L104-7Q110-7 120-8Q207-8 232 28L930 1017L1624 28Q1649-8 1734-8L1751-8Q1758-8 1762-7Q1853 1 1853 59Q1853 90 1830 122Z"  horiz-adv-x="1851" vert-adv-y="2048"  />

      
      <glyph glyph-name="unicc" unicode="&#xcc;" d="M2294 75Q2294-8 2212-8L2142-8Q2060-8 2060 75L2060 904L1371 54Q1316-14 1223-14Q1129-14 1073 54L371 908L371 75Q371-8 288-8L219-8Q137-8 137 75L137 1151Q137 1204 180 1239Q220 1272 275 1272Q350 1272 404 1208L1225 237L2027 1210Q2076 1269 2165 1269Q2294 1269 2294 1141L2294 75Z"  horiz-adv-x="2430" vert-adv-y="2048"  />

      
      <glyph glyph-name="unicd" unicode="&#xcd;" d="M1735 75Q1735-8 1652-8L1586-8Q1503-8 1503 75L1503 531L371 531L371 75Q371-8 288-8L219-8Q137-8 137 75L137 1192Q137 1274 219 1274L288 1274Q371 1274 371 1192L371 723L1503 723L1503 1192Q1503 1274 1586 1274L1652 1274Q1735 1274 1735 1192L1735 75Z"  horiz-adv-x="1873" vert-adv-y="2048"  />

      
      <glyph glyph-name="unice" unicode="&#xce;" d="M1688 336Q1688-8 1094-8L730-8Q305-8 182 181Q137 250 137 335L137 926Q137 1274 729 1274L1094 1274Q1361 1274 1487 1225Q1688 1147 1688 926L1688 336M1454 341L1454 921Q1454 1083 1099 1083L728 1083Q371 1083 371 921L371 341Q371 184 728 184L1100 184Q1454 184 1454 341Z"  horiz-adv-x="1824" vert-adv-y="2048"  />

      
      <glyph glyph-name="unicf" unicode="&#xcf;" d="M776 1274Q556 1274 482 1259Q138 1189 138 937L138 74Q138-8 220-8L289-8Q372-8 372 74L372 937Q372 1040 535 1070Q600 1082 774 1082L1100 1082Q1169 1082 1339 1070Q1502 1040 1502 937L1502 74Q1502-8 1585-8L1654-8Q1736-8 1736 74L1736 937Q1736 1195 1392 1259Q1311 1274 1098 1274L776 1274Z"  horiz-adv-x="1873" vert-adv-y="2048"  />

      
      <glyph glyph-name="unid0" unicode="&#xd0;" d="M1732 789Q1732 598 1540 512Q1400 449 1182 449L371 449L371 75Q371-8 288-8L219-8Q137-8 137 75L137 1192Q137 1274 219 1274L1193 1274Q1381 1274 1527 1220Q1732 1144 1732 988L1732 789M1500 797L1500 972Q1500 1083 1195 1083L371 1083L371 641L1196 641Q1339 641 1408 668Q1500 704 1500 797Z"  horiz-adv-x="1860" vert-adv-y="2048"  />

      
      <glyph glyph-name="unid1" unicode="&#xd1;" d="M1612 1166Q1612 1083 1529 1083L697 1083Q394 1083 394 962L394 327Q394 236 528 200Q587 184 730 184L1524 184Q1606 184 1606 101L1606 75Q1606-8 1524-8L730-8Q586-8 527 0Q424 14 336 61Q160 155 160 323L160 961Q160 1081 272 1167Q367 1240 496 1262Q567 1274 693 1274L1529 1274Q1612 1274 1612 1192L1612 1166Z"  horiz-adv-x="1729" vert-adv-y="2048"  />

      
      <glyph glyph-name="unid2" unicode="&#xd2;" d="M1452 1166Q1452 1083 1369 1083L851 1083L851 75Q851-8 769-8L700-8Q618-8 618 75L618 1083L103 1083Q20 1083 20 1166L20 1192Q20 1274 103 1274L1369 1274Q1452 1274 1452 1192L1452 1166Z"  horiz-adv-x="1450" vert-adv-y="2048"  />

      
      <glyph glyph-name="unid3" unicode="&#xd3;" d="M1660 286Q1660-8 1183-8L852-8Q769-8 769 74L769 101Q769 184 852 184L1173 184Q1425 184 1425 296L1425 369L733 369Q232 369 232 670L232 1186Q232 1274 314 1274L384 1274Q466 1274 466 1186L466 678Q466 562 744 562L1425 562L1425 1186Q1425 1274 1508 1274L1578 1274Q1660 1274 1660 1186L1660 286Z"  horiz-adv-x="1871" vert-adv-y="2048"  />

      
      <glyph glyph-name="unid4" unicode="&#xd4;" d="M1192 1214Q1459 1214 1585 1165Q1786 1087 1786 866L1786 376Q1786 32 1192 32L1077 32L1078-25Q1079-108 995-108L926-108Q844-108 844-25L844 32L728 32Q303 32 180 221Q135 290 135 375L135 866Q135 1214 727 1214L844 1214L844 1262Q844 1344 926 1344L995 1344Q1080 1344 1078 1262L1077 1214L1192 1214M726 1023Q369 1023 369 861L369 381Q369 224 726 224L844 224L844 1023L726 1023M1077 224L1198 224Q1552 224 1552 381L1552 861Q1552 1023 1197 1023L1077 1023L1077 224Z"  horiz-adv-x="1921" vert-adv-y="2048"  />

      
      <glyph glyph-name="unid5" unicode="&#xd5;" d="M1587 138Q1628 103 1628 63Q1628-8 1533-8Q1521-10 1498-10Q1434-10 1408 12L825 504L236 12Q210-10 143-10Q123-10 111-8Q16-8 16 64Q16 103 57 138L658 644L77 1129Q35 1164 35 1204Q35 1274 130 1274L201 1274Q232 1274 254 1256L825 779L1392 1255Q1415 1274 1445 1274L1514 1274Q1608 1274 1608 1203Q1608 1163 1567 1129L990 644L1587 138Z"  horiz-adv-x="1634" vert-adv-y="2048"  />

      
      <glyph glyph-name="unid6" unicode="&#xd6;" d="M1532 184L1532 1192Q1532 1274 1614 1274L1683 1274Q1766 1274 1766 1192L1766 184L1961 184Q2043 184 2043 101L2043 75Q2043-8 1961-8L776-8Q551-8 482 6Q138 76 138 319L138 1192Q138 1274 220 1274L289 1274Q372 1274 372 1192L372 319Q372 225 535 195Q595 184 774 184L1532 184Z"  horiz-adv-x="2088" vert-adv-y="2048"  />

      
      <glyph glyph-name="unid7" unicode="&#xd7;" d="M1424 75Q1424-8 1507-8L1575-8Q1658-8 1658 75L1658 1186Q1658 1274 1576 1274L1507 1274Q1424 1274 1424 1186L1424 572L743 572Q465 572 465 688L465 1186Q465 1274 383 1274L313 1274Q231 1274 231 1186L231 680Q231 379 732 379L1424 379L1424 75Z"  horiz-adv-x="1871" vert-adv-y="2048"  />

      
      <glyph glyph-name="unid8" unicode="&#xd8;" d="M1310 184Q1393 184 1549 195Q1712 225 1712 319L1712 1192Q1712 1274 1795 1274L1864 1274Q1946 1274 1946 1192L1946 319Q1946 70 1602 6Q1527-8 1308-8L776-8Q551-8 482 6Q138 76 138 319L138 1192Q138 1274 220 1274L289 1274Q372 1274 372 1192L372 319Q372 225 535 195Q595 184 774 184L925 184L925 1192Q925 1274 1007 1274L1076 1274Q1159 1274 1159 1192L1159 184L1310 184Z"  horiz-adv-x="2084" vert-adv-y="2048"  />

      
      <glyph glyph-name="unid9" unicode="&#xd9;" d="M482 6Q138 76 138 319L138 1192Q138 1274 220 1274L289 1274Q372 1274 372 1192L372 319Q372 225 535 195Q595 184 774 184L925 184L925 1192Q925 1274 1007 1274L1076 1274Q1159 1274 1159 1192L1159 184L1712 184L1712 1192Q1712 1274 1794 1274L1863 1274Q1946 1274 1946 1192L1946 184L2141 184Q2223 184 2223 101L2223 75Q2223-8 2141-8L776-8Q551-8 482 6Z"  horiz-adv-x="2269" vert-adv-y="2048"  />

      
      <glyph glyph-name="unida" unicode="&#xda;" d="M1445 183Q1750 183 1750 294L1750 469Q1750 562 1658 598Q1589 625 1446 625L621 625L621 183L1445 183M469-8Q387-8 387 74L387 1083L143 1083Q60 1083 60 1166L60 1192Q60 1274 143 1274L538 1274Q621 1274 621 1191L621 817L1432 817Q1650 817 1790 754Q1982 668 1982 477L1982 278Q1982 186 1921 124Q1878 80 1777 33Q1708 1 1613-6Q1586-8 1443-8L469-8Z"  horiz-adv-x="2122" vert-adv-y="2048"  />

      
      <glyph glyph-name="unidb" unicode="&#xdb;" d="M1732 477Q1732 668 1540 754Q1400 817 1182 817L371 817L371 1191Q371 1274 288 1274L219 1274Q137 1274 137 1191L137 74Q137-8 219-8L1193-8Q1342-8 1368-6Q1458 1 1527 33Q1628 80 1671 124Q1732 186 1732 278L1732 477M1500 469L1500 294Q1500 183 1195 183L371 183L371 625L1196 625Q1339 625 1408 598Q1500 562 1500 469M2081 75Q2081-8 1998-8L1929-8Q1847-8 1847 75L1847 1192Q1847 1274 1929 1274L1998 1274Q2081 1274 2081 1192L2081 75Z"  horiz-adv-x="2212" vert-adv-y="2048"  />

      
      <glyph glyph-name="unidc" unicode="&#xdc;" d="M1732 477Q1732 668 1540 754Q1400 817 1182 817L371 817L371 1191Q371 1274 288 1274L219 1274Q137 1274 137 1191L137 74Q137-8 219-8L1193-8Q1342-8 1368-6Q1458 1 1527 33Q1628 80 1671 124Q1732 186 1732 278L1732 477M1500 469L1500 294Q1500 183 1195 183L371 183L371 625L1196 625Q1339 625 1408 598Q1500 562 1500 469Z"  horiz-adv-x="1860" vert-adv-y="2048"  />

      
      <glyph glyph-name="unidd" unicode="&#xdd;" d="M137 636L139 609Q145 531 221 531L1346 531L1346 320Q1346 184 1046 184L221 184Q139 184 139 101L139 75Q139-8 221-8L1057-8Q1096-8 1154-2Q1580 42 1580 312L1580 947Q1580 1127 1371 1215Q1231 1274 1037 1274L889 1274Q807 1274 807 1192L807 1166Q807 1083 889 1083L1046 1083L1111 1080Q1349 1069 1349 947L1349 723L220 723Q131 723 137 636Z"  horiz-adv-x="1682" vert-adv-y="2048"  />

      
      <glyph glyph-name="unide" unicode="&#xde;" d="M645 335Q645 250 690 181Q813-8 1238-8L1572-8Q2166-8 2166 336L2166 926Q2166 1147 1965 1225Q1839 1274 1572 1274L1237 1274Q645 1274 645 926L645 723L379 723L379 1192Q379 1274 296 1274L227 1274Q145 1274 145 1192L145 75Q145-8 227-8L296-8Q379-8 379 75L379 531L645 531L645 335M879 341L879 921Q879 1083 1234 1083L1575 1083Q1932 1083 1932 921L1932 341Q1932 184 1575 184L1233 184Q879 184 879 341Z"  horiz-adv-x="2311" vert-adv-y="2048"  />

      
      <glyph glyph-name="unidf" unicode="&#xdf;" d="M107 792Q107 617 291 538Q422 482 625 482L1020 482L179 141Q117 116 117 70Q117-9 211-8Q305-7 341-1L1457 455L1457 75Q1457-8 1540-8L1609-8Q1691-8 1691 75L1691 1192Q1691 1274 1609 1274L668 1274Q449 1274 308 1217Q107 1136 107 950L107 792M341 790L341 955Q341 1083 669 1083L1457 1083L1457 673L627 673Q341 673 341 790Z"  horiz-adv-x="1814" vert-adv-y="2048"  />

      
      <glyph glyph-name="unie0" unicode="&#xe0;" d="M1614 295Q1614-8 1159-8L616-8Q537-8 444 14Q142 85 142 284L142 413Q142 570 306 650Q431 711 608 711L1394 711Q1377 814 1132 814L964 814Q882 814 882 896L882 918Q882 1001 964 1001L1086 1001Q1614 1001 1614 691L1614 295M1392 284L1392 524L603 524Q540 524 466 501Q364 469 364 414L364 286Q364 223 483 197Q524 188 610 178L1161 178Q1392 178 1392 284Z"  horiz-adv-x="1739" vert-adv-y="2048"  />

      
      <glyph glyph-name="unie1" unicode="&#xe1;" d="M137 968Q137 1152 357 1233Q511 1290 719 1290L812 1290Q895 1290 895 1208L895 1186Q895 1104 812 1104L651 1104Q592 1104 486 1072Q366 1036 366 993L975 993Q1189 993 1329 939Q1532 861 1532 681L1532 307Q1532 148 1368 63Q1231-8 1034-8L707-8Q497-8 348 50Q137 132 137 309L137 968M362 808L362 318Q362 242 487 204Q573 178 671 178L1022 178Q1144 178 1199 191Q1310 217 1310 302L1310 678Q1310 808 980 808L362 808Z"  horiz-adv-x="1669" vert-adv-y="2048"  />

      
      <glyph glyph-name="unie2" unicode="&#xe2;" d="M1097 963L1097 993Q1097 1036 977 1072Q871 1104 812 1104L651 1104Q587 1104 488 1074Q366 1037 366 993L366 963L1097 963M1532 651L1532 307Q1532 148 1368 63Q1231-8 1034-8L707-8Q497-8 348 50Q137 132 137 309L137 968Q137 1152 357 1233Q511 1290 719 1290L757 1290Q957 1290 1112 1233Q1224 1192 1270 1139Q1323 1077 1323 965Q1323 934 1322 928Q1532 847 1532 651M362 778L362 318Q362 242 487 204Q573 178 671 178L1022 178Q1144 178 1199 191Q1310 217 1310 302L1310 648Q1310 778 980 778L362 778Z"  horiz-adv-x="1669" vert-adv-y="2048"  />

      
      <glyph glyph-name="unie3" unicode="&#xe3;" d="M1182 896Q1182 814 1099 814L611 814Q488 814 449 803Q362 778 362 688L362 75Q362-8 280-8L219-8Q137-8 137 76L137 688Q137 852 257 939Q311 978 398 991Q465 1001 624 1001L1099 1001Q1182 1001 1182 918L1182 896Z"  horiz-adv-x="1248" vert-adv-y="2048"  />

      
      <glyph glyph-name="unie4" unicode="&#xe4;" d="M547 178L1026 777L1500 178L547 178M1130 981Q1095 1024 1025 1024Q956 1024 923 983L273 178L168 178Q85 178 85 95L85 74Q85-8 168-8L1880-8Q1963-8 1963 74L1963 95Q1963 178 1880 178L1775 178L1130 981Z"  horiz-adv-x="2048" vert-adv-y="2048"  />

      
      <glyph glyph-name="unie5" unicode="&#xe5;" d="M1527 479Q1527 387 1465 387L361 387Q361 178 649 178L815 178Q897 178 897 95L897 75Q897-8 815-8L673-8Q460-8 325 48Q132 128 132 311L132 682Q132 857 323 941Q462 1002 664 1002L1079 1002Q1247 1002 1368 945Q1527 870 1527 722L1527 479M1311 580L1311 704Q1311 761 1183 792Q1093 814 1011 814L689 814Q354 814 354 696L354 580L1311 580Z"  horiz-adv-x="1651" vert-adv-y="2048"  />

      
      <glyph glyph-name="unie6" unicode="&#xe6;" d="M930 919Q930 1001 847 1001L792 1001Q709 1001 709 919L709 623L246 985Q226 1001 197 1001L127 1001Q32 1001 32 928Q32 887 78 851L537 496L72 142Q25 106 25 65Q25-8 120-8L189-8Q216-8 237 8L709 371L709 75Q709-8 792-8L847-8Q930-8 930 75L930 371L1396 8Q1417-8 1445-8L1511-8Q1606-8 1606 65Q1606 106 1560 142L1101 499L1549 852Q1594 887 1594 928Q1594 1001 1500 1001L1433 1001Q1405 1001 1384 984L930 623L930 919Z"  horiz-adv-x="1623" vert-adv-y="2048"  />

      
      <glyph glyph-name="unie7" unicode="&#xe7;" d="M1091 1001L871 1001Q788 1001 788 918L788 896Q788 814 871 814L1223 814Q1272 814 1309 791Q1343 770 1343 735L1343 666Q1343 637 1305 610Q1283 594 1218 594L202 594Q120 594 120 512L120 491Q120 408 202 408L1218 408Q1328 408 1343 335L1343 257Q1343 221 1297 197Q1259 178 1219 178L203 178Q120 178 120 95L120 75Q120-8 223-8L1045-8Q1314-8 1387 24Q1565 102 1565 238L1565 350Q1565 395 1531.50 442Q1498 489 1455 501Q1497 513 1531 560.50Q1565 608 1565 652L1565 764Q1565 902 1384 962Q1264 1001 1091 1001Z"  horiz-adv-x="1680" vert-adv-y="2048"  />

      
      <glyph glyph-name="unie8" unicode="&#xe8;" d="M255-8L324-8Q350-8 372 8L1347 723L1347 75Q1347-8 1430-8L1485-8Q1568-8 1568 75L1568 928Q1568 1001 1474 1001L1407 1001Q1381 1001 1358 984L384 272L384 918Q384 1001 301 1001L246 1001Q163 1001 163 918L163 67Q163-8 255-8Z"  horiz-adv-x="1730" vert-adv-y="2048"  />

      
      <glyph glyph-name="unie9" unicode="&#xe9;" d="M255-8L324-8Q350-8 372 8L1347 723L1347 75Q1347-8 1430-8L1485-8Q1568-8 1568 75L1568 928Q1568 1001 1474 1001L1407 1001Q1381 1001 1358 984L384 272L384 918Q384 1001 301 1001L246 1001Q163 1001 163 918L163 67Q163-8 255-8M614 1047Q531 1047 531 1130L531 1151Q531 1233 614 1233L1116 1233Q1199 1233 1199 1151L1199 1130Q1199 1047 1116 1047L614 1047Z"  horiz-adv-x="1730" vert-adv-y="2048"  />

      
      <glyph glyph-name="uniea" unicode="&#xea;" d="M1260 149Q1318 121 1318 68Q1318-8 1223-8L1153-8Q1134-8 1116 1L357 372L357 75Q357-8 275-8L219-8Q137-8 137 75L139 919Q139 1001 221 1001L277 1001Q360 1001 359 919L357 601L1106 992Q1133 1001 1143 1001L1207 1001Q1301 1001 1301 925Q1301 875 1244 845L564 489L1260 149Z"  horiz-adv-x="1421" vert-adv-y="2048"  />

      
      <glyph glyph-name="unieb" unicode="&#xeb;" d="M1654 127L967 981Q932 1024 862 1024Q793 1024 760 983L69 127Q40 91 40 59Q40-8 133-8L196-8Q236-8 260 22L863 777L1463 22Q1487-8 1527-8L1590-8Q1683-8 1683 59Q1683 91 1654 127Z"  horiz-adv-x="1722" vert-adv-y="2048"  />

      
      <glyph glyph-name="uniec" unicode="&#xec;" d="M419 932Q360 1001 273 1001L248 1001Q206 1001 170.50 966Q135 931 135 889L135 75Q135-8 218-8L273-8Q356-8 356 75L356 648L868 66Q933-8 996-8Q1059-8 1124 66L1636 648L1636 75Q1636-8 1719-8L1774-8Q1857-8 1857 75L1857 869Q1857 921 1827 959Q1795 1001 1744 1001L1719 1001Q1632 1001 1573 932L996 260L419 932Z"  horiz-adv-x="1992" vert-adv-y="2048"  />

      
      <glyph glyph-name="unied" unicode="&#xed;" d="M361 386L361 75Q361-8 278-8L223-8Q140-8 140 75L140 919Q140 1001 223 1001L278 1001Q361 1001 361 919L361 573L1290 573L1290 919Q1290 1001 1373 1001L1428 1001Q1511 1001 1511 919L1511 75Q1511-8 1428-8L1373-8Q1290-8 1290 75L1290 386L361 386Z"  horiz-adv-x="1650" vert-adv-y="2048"  />

      
      <glyph glyph-name="uniee" unicode="&#xee;" d="M1514 305Q1514 130 1336 48Q1215-8 1021-8L652-8Q295-8 179 169Q137 233 137 305L137 677Q137 800 252 890Q393 1001 651 1001L1021 1001Q1514 1001 1514 679L1514 305M1288 305L1288 694Q1288 814 1015 814L654 814Q556 814 477 790Q359 754 359 677L359 305Q359 231 479 199Q557 178 655 178L1016 178Q1102 178 1179 202Q1288 236 1288 305Z"  horiz-adv-x="1650" vert-adv-y="2048"  />

      
      <glyph glyph-name="unief" unicode="&#xef;" d="M1514 75Q1514-8 1431-8L1373-8Q1290-8 1290 75L1290 717Q1290 776 1219 803Q1190 814 1079 814L577 814Q474 814 434 803Q359 782 359 716L359 75Q359-8 277-8L219-8Q137-8 137 75L137 714Q137 859 191 912Q282 1001 576 1001L1079 1001Q1379 1001 1465 914Q1514 865 1514 716L1514 75Z"  horiz-adv-x="1650" vert-adv-y="2048"  />

      
      <glyph glyph-name="unif0" unicode="&#xf0;" d="M1532 313Q1532 0 1052 0L359 0L359-205Q359-287 277-287L219-287Q137-287 137-205L137 701Q137 885 310 955Q424 1001 644 1001L998 1001Q1532 1001 1532 704L1532 313M1307 310L1307 701Q1307 781 1183 805Q1131 815 1000 815L654 815Q359 815 359 696L359 185L1052 185Q1307 185 1307 310Z"  horiz-adv-x="1669" vert-adv-y="2048"  />

      
      <glyph glyph-name="unif1" unicode="&#xf1;" d="M1565 75Q1565-8 1462-8L640-8Q413-8 299 37Q120 108 120 297L120 695Q120 1001 594 1001L1474 1001Q1557 1001 1557 918L1557 896Q1557 814 1474 814L609 814Q494 814 442 801Q342 776 342 701L342 306Q342 178 646 178L1482 178Q1565 178 1565 95L1565 75Z"  horiz-adv-x="1680" vert-adv-y="2048"  />

      
      <glyph glyph-name="unif2" unicode="&#xf2;" d="M1195 919L1195 898Q1195 815 1112 815L742 815L742 75Q742-8 660-8L602-8Q520-8 520 75L520 815L150 815Q67 815 67 898L67 919Q67 1001 150 1001L1112 1001Q1195 1001 1195 919Z"  horiz-adv-x="1261" vert-adv-y="2048"  />

      
      <glyph glyph-name="unif3" unicode="&#xf3;" d="M1524 7Q1524-287 1047-287L868-287Q785-287 785-205L785-179Q785-96 868-96L1049-96Q1301-96 1301 0L638 0Q137 0 137 301L137 918Q137 1001 219 1001L277 1001Q359 1001 359 918L359 301Q359 185 638 185L1301 185L1301 918Q1301 1001 1384 1001L1442 1001Q1524 1001 1524 918L1524 7Z"  horiz-adv-x="1661" vert-adv-y="2048"  />

      
      <glyph glyph-name="unif4" unicode="&#xf4;" d="M799 814L648 814Q549 814 471 790Q353 754 353 677L353 305Q353 231 473 199Q551 178 649 178L799 178L799 814M1202 178Q1288 178 1365 202Q1474 236 1474 305L1474 694Q1474 814 1201 814L1021 814L1021 178L1202 178M1021-213Q1021-295 939-295L881-295Q799-295 799-213L799-8L646-8Q289-8 173 169Q131 233 131 305L131 677Q131 800 246 890Q387 1001 645 1001L1207 1001Q1700 1001 1700 679L1700 305Q1700 130 1522 48Q1400-8 1207-8L1021-8L1021-213Z"  horiz-adv-x="1830" vert-adv-y="2048"  />

      
      <glyph glyph-name="unif5" unicode="&#xf5;" d="M1391 142Q1437 108 1437 65Q1437-8 1342-8L1276-8Q1249-8 1227 8L731 371L229 8Q207-8 181-8L112-8Q17-8 17 65Q17 108 64 142L559 496L70 851Q24 884 24 928Q24 1001 119 1001L189 1001Q216 1001 238 985L732 623L1215 984Q1238 1001 1264 1001L1331 1001Q1425 1001 1425 928Q1425 885 1380 852L902 499L1391 142Z"  horiz-adv-x="1436" vert-adv-y="2048"  />

      
      <glyph glyph-name="unif6" unicode="&#xf6;" d="M1290 918Q1290 1001 1373 1001L1431 1001Q1514 1001 1514 918L1514 178L1716 178Q1798 178 1798 96L1798 75Q1798-8 1716-8L576-8Q282-8 191 81Q137 134 137 279L137 918Q137 1001 219 1001L277 1001Q359 1001 359 918L359 277Q359 211 434 190Q474 179 577 179L1290 179L1290 918Z"  horiz-adv-x="1910" vert-adv-y="2048"  />

      
      <glyph glyph-name="unif7" unicode="&#xf7;" d="M367 639Q368 514 622 514L1315 514L1315 918Q1315 1001 1398 1001L1456 1001Q1538 1001 1538 918L1537 74Q1537-8 1455-8L1397-8Q1315-8 1315 74L1315 329L585 330Q403 330 287 394Q142 474 142 642L143 918Q143 1001 225 1001L283 1001Q364 1001 365 918L367 639Z"  horiz-adv-x="1669" vert-adv-y="2048"  />

      
      <glyph glyph-name="unif8" unicode="&#xf8;" d="M584-8Q289-8 199 81Q145 134 145 279L145 918Q145 1001 227 1001L285 1001Q367 1001 367 918L367 277Q367 211 442 190Q481 179 585 179L732 179L732 918Q732 1001 814 1001L872 1001Q954 1001 954 918L954 179L1100 179Q1204 179 1243 190Q1318 211 1318 277L1318 918Q1318 1001 1400 1001L1458 1001Q1540 1001 1540 918L1540 279Q1540 134 1486 81Q1396-8 1101-8L584-8Z"  horiz-adv-x="1685" vert-adv-y="2048"  />

      
      <glyph glyph-name="unif9" unicode="&#xf9;" d="M577 179Q474 179 434 190Q359 211 359 277L359 918Q359 1001 277 1001L219 1001Q137 1001 137 918L137 279Q137 134 191 81Q282-8 576-8L1736-8Q1818-8 1818 75L1818 96Q1818 178 1736 178L1534 178L1534 918Q1534 1001 1451 1001L1393 1001Q1310 1001 1310 918L1310 179L946 179L946 918Q946 1001 864 1001L806 1001Q724 1001 724 918L724 179L577 179Z"  horiz-adv-x="1941" vert-adv-y="2048"  />

      
      <glyph glyph-name="unifa" unicode="&#xfa;" d="M524 821Q524 924 474 964Q429 1001 325 1001L122 1001Q40 1001 40 918L40 896Q40 814 122 814L302 814L302 292Q302-8 776-8L1173-8Q1697-8 1697 289L1697 351Q1697 519 1551 600Q1436 664 1254 664L524 664L524 821M1217 479Q1472 479 1472 354L1472 292Q1472 210 1358 188Q1306 178 1175 178L786 178Q524 178 524 297L524 479L1217 479Z"  horiz-adv-x="1828" vert-adv-y="2048"  />

      
      <glyph glyph-name="unifb" unicode="&#xfb;" d="M358 919Q358 1001 276 1001L218 1001Q136 1001 136 919L136 292Q136-8 610-8L1007-8Q1531-8 1531 289L1531 351Q1531 519 1385 600Q1270 664 1088 664L358 664L358 919M1306 354L1306 292Q1306 210 1192 188Q1140 178 1009 178L620 178Q358 178 358 297L358 479L1051 479Q1306 479 1306 354M1866 75Q1866-8 1783-8L1728-8Q1645-8 1645 75L1645 919Q1645 1001 1728 1001L1783 1001Q1866 1001 1866 919L1866 75Z"  horiz-adv-x="2002" vert-adv-y="2048"  />

      
      <glyph glyph-name="unifc" unicode="&#xfc;" d="M354 919Q354 1001 272 1001L214 1001Q132 1001 132 919L132 292Q132-8 606-8L1003-8Q1527-8 1527 289L1527 351Q1527 519 1381 600Q1266 664 1084 664L354 664L354 919M1302 354L1302 292Q1302 210 1188 188Q1136 178 1005 178L616 178Q354 178 354 297L354 479L1047 479Q1302 479 1302 354Z"  horiz-adv-x="1669" vert-adv-y="2048"  />

      
      <glyph glyph-name="unifd" unicode="&#xfd;" d="M1343 701Q1343 776 1243 801Q1191 814 1076 814L871 814Q788 814 788 896L788 918Q788 1001 871 1001L1091 1001Q1565 1001 1565 695L1565 297Q1565 108 1386 37Q1272-8 1045-8L223-8Q120-8 120 75L120 95Q120 178 203 178L1039 178Q1343 178 1343 306L1343 408L202 408Q120 408 120 491L120 512Q120 594 202 594L1343 594L1343 701Z"  horiz-adv-x="1680" vert-adv-y="2048"  />

      
      <glyph glyph-name="unife" unicode="&#xfe;" d="M587 677Q587 800 702 890Q843 1001 1101 1001L1461 1001Q1954 1001 1954 679L1954 305Q1954 130 1776 48Q1654-8 1461-8L1102-8Q745-8 629 169Q587 233 587 305L587 386L361 386L361 75Q361-8 278-8L223-8Q140-8 140 75L140 919Q140 1001 223 1001L278 1001Q361 1001 361 919L361 573L587 573L587 677M1728 305L1728 694Q1728 814 1455 814L1104 814Q1005 814 927 790Q809 754 809 677L809 305Q809 231 929 199Q1007 178 1105 178L1456 178Q1542 178 1619 202Q1728 236 1728 305Z"  horiz-adv-x="2093" vert-adv-y="2048"  />

      
      <glyph glyph-name="uniff" unicode="&#xff;" d="M1315 329L1315 74Q1315-8 1397-8L1455-8Q1537-8 1537 74L1537 701Q1537 1001 1063 1001L666 1001Q142 1001 142 704L142 642Q142 474 288 393Q402 330 585 330L190 149Q132 122 132 68Q132-8 227-8L297-8Q316-8 334 1L1003 329L1315 329M367 639L367 701Q367 783 481 805Q533 815 664 815L1053 815Q1315 815 1315 696L1315 514L622 514Q367 514 367 639Z"  horiz-adv-x="1669" vert-adv-y="2048"  />

      
      <glyph glyph-name="uni0401" unicode="&#x0401;" d="M1580 636L1578 609Q1572 531 1496 531L371 531L371 320Q371 184 671 184L1496 184Q1578 184 1578 101L1578 75Q1578-8 1496-8L660-8Q621-8 563-2Q137 42 137 312L137 947Q137 1127 346 1215Q486 1274 680 1274L908 1274Q990 1274 990 1192L990 1166Q990 1083 908 1083L671 1083L606 1079Q368 1064 368 947L368 723L1497 723Q1586 723 1580 636M451 1517L658 1517Q714 1517 714 1461L714 1385Q714 1329 658 1329L451 1329Q395 1329 395 1385L395 1461Q395 1517 451 1517M1051 1517L1258 1517Q1314 1517 1314 1461L1314 1385Q1314 1329 1258 1329L1051 1329Q995 1329 995 1385L995 1461Q995 1517 1051 1517Z"  horiz-adv-x="1682" vert-adv-y="2048"  />

      
      <glyph glyph-name="uni0410" unicode="&#x0410;" d="M1859 111Q1862 96 1862 80Q1862 28 1827-4Q1792-36 1739-36Q1684-36 1640 28L1433 330L447 330L240 28Q230 9 221 1Q199-20 168-20Q101-20 69 28Q55 49 55 68Q55 81 59 89L798 1219Q846 1292 941 1288Q1054 1284 1076 1219L1859 111M1296 523L941 1046L584 523L1296 523Z"  horiz-adv-x="1903" vert-adv-y="2048"  />

      
      <glyph glyph-name="uni0411" unicode="&#x0411;" d="M1747 398L1747 318Q1747 95 1504 16Q1476 7 1424 3L1330-4Q1276-8 1234-8L242-8Q160-8 160 75L160 948Q160 1124 377 1216Q516 1275 711 1275L939 1275Q1021 1275 1021 1193L1021 1167Q1021 1084 939 1084L702 1084L637 1080Q399 1065 399 948L399 723L1219 723Q1528 723 1665 590Q1747 510 1747 398M1513 394Q1513 531 1223 531L394 531L394 184L1207 184Q1484 184 1513 290L1513 394Z"  horiz-adv-x="1879" vert-adv-y="2048"  />

      
      <glyph glyph-name="uni0412" unicode="&#x0412;" d="M1747 333Q1747 112 1504 33Q1430 9 1330-2Q1275-8 1234-8L242-8Q160-8 160 75L160 1192Q160 1274 242 1274L1205 1274Q1368 1274 1453 1255Q1574 1228 1655 1152Q1747 1067 1747 951L1747 852Q1747 736 1665 659Q1653 648 1653 634Q1653 625 1659 614L1665 605Q1747 529 1747 413L1747 333M1519 842L1513 950Q1506 1083 1210 1083L399 1083L399 723L1219 723Q1436 723 1500 793Q1520 815 1519 842M1513 409Q1515 531 1223 531L394 531L394 184L1207 184Q1478 184 1511 305L1513 409Z"  horiz-adv-x="1879" vert-adv-y="2048"  />

      
      <glyph glyph-name="uni0413" unicode="&#x0413;" d="M1362 1191Q1362 1274 1279 1274L775 1274Q555 1274 481 1259Q137 1189 137 937L137 74Q137-8 219-8L288-8Q371-8 371 74L371 937Q371 1040 534 1070Q599 1082 773 1082L1279 1082Q1362 1082 1362 1165L1362 1191Z"  horiz-adv-x="1398" vert-adv-y="2048"  />

      
      <glyph glyph-name="uni0414" unicode="&#x0414;" d="M555 184L1143 1017L1727 184L555 184M1281 1197Q1226 1275 1143 1275Q1082 1275 1037 1237Q1021 1224 1003 1198L285 184L125 184Q42 184 42 101L42 75Q42-8 125-8L2151-8Q2234-8 2234 75L2234 101Q2234 184 2161 184L1999 184L1281 1197Z"  horiz-adv-x="2275" vert-adv-y="2048"  />

      
      <glyph glyph-name="uni0415" unicode="&#x0415;" d="M1580 636L1578 609Q1572 531 1496 531L371 531L371 320Q371 184 671 184L1496 184Q1578 184 1578 101L1578 75Q1578-8 1496-8L660-8Q621-8 563-2Q137 42 137 312L137 947Q137 1127 346 1215Q486 1274 680 1274L908 1274Q990 1274 990 1192L990 1166Q990 1083 908 1083L671 1083L606 1079Q368 1064 368 947L368 723L1497 723Q1586 723 1580 636Z"  horiz-adv-x="1682" vert-adv-y="2048"  />

      
      <glyph glyph-name="uni0416" unicode="&#x0416;" d="M1109 1274L1172 1274Q1255 1274 1255 1192L1255 761L1903 1265Q1930 1274 1942 1274L2030 1274Q2124 1274 2124 1198Q2124 1163 2068 1119L1461 644L2099 148Q2155 104 2155 68Q2155-8 2061-8L1978-8Q1952-8 1939 2L1255 521L1255 75Q1255-8 1172-8L1109-8Q1027-8 1027 75L1027 521L343 2Q330-8 304-8L221-8Q127-8 127 68Q127 104 183 148L821 644L214 1119Q158 1163 158 1198Q158 1274 252 1274L340 1274Q352 1274 379 1265L1027 761L1027 1192Q1027 1274 1109 1274Z"  horiz-adv-x="2282" vert-adv-y="2048"  />

      
      <glyph glyph-name="uni0417" unicode="&#x0417;" d="M1592 329Q1592 139 1402 54Q1263-8 1047-8L236-8Q154-8 154 75L154 101Q154 184 236 184L1047 184Q1358 184 1358 320L1358 441Q1358 548 1057 548L236 548Q154 548 154 631L154 659Q154 741 236 741L1058 741Q1358 741 1358 856L1358 977Q1358 1054 1231 1075Q1182 1083 1097 1083L906 1083Q824 1083 824 1166L824 1192Q824 1274 906 1274L1097 1274Q1592 1274 1592 969L1592 851Q1592 725 1482 649Q1592 571 1592 444L1592 329Z"  horiz-adv-x="1745" vert-adv-y="2048"  />

      
      <glyph glyph-name="uni0418" unicode="&#x0418;" d="M1724 1140Q1724 1229 1678 1261Q1645 1284 1569 1284Q1557 1284 1518 1254Q1517 1253 1482 1224L371 296L371 1194Q371 1277 288 1277L219 1277Q137 1277 137 1194L137 79Q137 36 197 1Q224-15 257-15Q296-15 354 19Q382 35 403 53L1490 970L1490 77Q1490-5 1573-5L1641-5Q1724-5 1724 77L1724 1140Z"  horiz-adv-x="1862" vert-adv-y="2048"  />

      
      <glyph glyph-name="uni0419" unicode="&#x0419;" d="M1724 1140Q1724 1229 1678 1261Q1645 1284 1569 1284Q1557 1284 1518 1254Q1517 1253 1482 1224L371 296L371 1194Q371 1277 288 1277L219 1277Q137 1277 137 1194L137 79Q137 36 197 1Q224-15 257-15Q296-15 354 19Q382 35 403 53L1490 970L1490 77Q1490-5 1573-5L1641-5Q1724-5 1724 77L1724 1140M1310 1360Q1310 1278 1227 1278L636 1278Q553 1278 553 1360L553 1416Q553 1498 636 1498L1227 1498Q1310 1498 1310 1416L1310 1360Z"  horiz-adv-x="1862" vert-adv-y="2048"  />

      
      <glyph glyph-name="uni041A" unicode="&#x041A;" d="M1509 148Q1565 118 1565 68Q1565-8 1471-8L1388-8Q1368-8 1349 2L365 521L365 75Q365-8 282-8L219-8Q137-8 137 75L137 1192Q137 1274 219 1274L282 1274Q365 1274 365 1192L365 761L1313 1265Q1340 1274 1352 1274L1440 1274Q1534 1274 1534 1198Q1534 1148 1478 1119L571 644L1509 148Z"  horiz-adv-x="1676" vert-adv-y="2048"  />

      
      <glyph glyph-name="uni041B" unicode="&#x041B;" d="M1830 122L1068 1197Q1013 1275 930 1275Q869 1275 824 1237Q808 1224 790 1198L27 122Q3 88 3 58Q3-7 94-7L104-7Q110-7 120-8Q207-8 232 28L930 1017L1624 28Q1649-8 1734-8L1751-8Q1758-8 1762-7Q1853 1 1853 59Q1853 90 1830 122Z"  horiz-adv-x="1851" vert-adv-y="2048"  />

      
      <glyph glyph-name="uni041C" unicode="&#x041C;" d="M2294 75Q2294-8 2212-8L2142-8Q2060-8 2060 75L2060 904L1371 54Q1316-14 1223-14Q1129-14 1073 54L371 908L371 75Q371-8 288-8L219-8Q137-8 137 75L137 1151Q137 1204 180 1239Q220 1272 275 1272Q350 1272 404 1208L1225 237L2027 1210Q2076 1269 2165 1269Q2294 1269 2294 1141L2294 75Z"  horiz-adv-x="2430" vert-adv-y="2048"  />

      
      <glyph glyph-name="uni041D" unicode="&#x041D;" d="M1735 75Q1735-8 1652-8L1586-8Q1503-8 1503 75L1503 531L371 531L371 75Q371-8 288-8L219-8Q137-8 137 75L137 1192Q137 1274 219 1274L288 1274Q371 1274 371 1192L371 723L1503 723L1503 1192Q1503 1274 1586 1274L1652 1274Q1735 1274 1735 1192L1735 75Z"  horiz-adv-x="1873" vert-adv-y="2048"  />

      
      <glyph glyph-name="uni041E" unicode="&#x041E;" d="M1688 336Q1688-8 1094-8L730-8Q305-8 182 181Q137 250 137 335L137 926Q137 1274 729 1274L1094 1274Q1361 1274 1487 1225Q1688 1147 1688 926L1688 336M1454 341L1454 921Q1454 1083 1099 1083L728 1083Q371 1083 371 921L371 341Q371 184 728 184L1100 184Q1454 184 1454 341Z"  horiz-adv-x="1824" vert-adv-y="2048"  />

      
      <glyph glyph-name="uni041F" unicode="&#x041F;" d="M776 1274Q556 1274 482 1259Q138 1189 138 937L138 74Q138-8 220-8L289-8Q372-8 372 74L372 937Q372 1040 535 1070Q600 1082 774 1082L1100 1082Q1169 1082 1339 1070Q1502 1040 1502 937L1502 74Q1502-8 1585-8L1654-8Q1736-8 1736 74L1736 937Q1736 1195 1392 1259Q1311 1274 1098 1274L776 1274Z"  horiz-adv-x="1873" vert-adv-y="2048"  />

      
      <glyph glyph-name="uni0420" unicode="&#x0420;" d="M1732 789Q1732 598 1540 512Q1400 449 1182 449L371 449L371 75Q371-8 288-8L219-8Q137-8 137 75L137 1192Q137 1274 219 1274L1193 1274Q1381 1274 1527 1220Q1732 1144 1732 988L1732 789M1500 797L1500 972Q1500 1083 1195 1083L371 1083L371 641L1196 641Q1339 641 1408 668Q1500 704 1500 797Z"  horiz-adv-x="1860" vert-adv-y="2048"  />

      
      <glyph glyph-name="uni0421" unicode="&#x0421;" d="M1612 1166Q1612 1083 1529 1083L697 1083Q394 1083 394 962L394 327Q394 236 528 200Q587 184 730 184L1524 184Q1606 184 1606 101L1606 75Q1606-8 1524-8L730-8Q586-8 527 0Q424 14 336 61Q160 155 160 323L160 961Q160 1081 272 1167Q367 1240 496 1262Q567 1274 693 1274L1529 1274Q1612 1274 1612 1192L1612 1166Z"  horiz-adv-x="1729" vert-adv-y="2048"  />

      
      <glyph glyph-name="uni0422" unicode="&#x0422;" d="M1452 1166Q1452 1083 1369 1083L851 1083L851 75Q851-8 769-8L700-8Q618-8 618 75L618 1083L103 1083Q20 1083 20 1166L20 1192Q20 1274 103 1274L1369 1274Q1452 1274 1452 1192L1452 1166Z"  horiz-adv-x="1450" vert-adv-y="2048"  />

      
      <glyph glyph-name="uni0423" unicode="&#x0423;" d="M1660 286Q1660-8 1183-8L852-8Q769-8 769 74L769 101Q769 184 852 184L1173 184Q1425 184 1425 296L1425 369L733 369Q232 369 232 670L232 1186Q232 1274 314 1274L384 1274Q466 1274 466 1186L466 678Q466 562 744 562L1425 562L1425 1186Q1425 1274 1508 1274L1578 1274Q1660 1274 1660 1186L1660 286Z"  horiz-adv-x="1871" vert-adv-y="2048"  />

      
      <glyph glyph-name="uni0424" unicode="&#x0424;" d="M1192 1214Q1459 1214 1585 1165Q1786 1087 1786 866L1786 376Q1786 32 1192 32L1077 32L1078-25Q1079-108 995-108L926-108Q844-108 844-25L844 32L728 32Q303 32 180 221Q135 290 135 375L135 866Q135 1214 727 1214L844 1214L844 1262Q844 1344 926 1344L995 1344Q1080 1344 1078 1262L1077 1214L1192 1214M726 1023Q369 1023 369 861L369 381Q369 224 726 224L844 224L844 1023L726 1023M1077 224L1198 224Q1552 224 1552 381L1552 861Q1552 1023 1197 1023L1077 1023L1077 224Z"  horiz-adv-x="1921" vert-adv-y="2048"  />

      
      <glyph glyph-name="uni0425" unicode="&#x0425;" d="M1587 138Q1628 103 1628 63Q1628-8 1533-8Q1521-10 1498-10Q1434-10 1408 12L825 504L236 12Q210-10 143-10Q123-10 111-8Q16-8 16 64Q16 103 57 138L658 644L77 1129Q35 1164 35 1204Q35 1274 130 1274L201 1274Q232 1274 254 1256L825 779L1392 1255Q1415 1274 1445 1274L1514 1274Q1608 1274 1608 1203Q1608 1163 1567 1129L990 644L1587 138Z"  horiz-adv-x="1634" vert-adv-y="2048"  />

      
      <glyph glyph-name="uni0426" unicode="&#x0426;" d="M1532 184L1532 1192Q1532 1274 1614 1274L1683 1274Q1766 1274 1766 1192L1766 184L1961 184Q2043 184 2043 101L2043 75Q2043-8 1961-8L776-8Q551-8 482 6Q138 76 138 319L138 1192Q138 1274 220 1274L289 1274Q372 1274 372 1192L372 319Q372 225 535 195Q595 184 774 184L1532 184Z"  horiz-adv-x="2088" vert-adv-y="2048"  />

      
      <glyph glyph-name="uni0427" unicode="&#x0427;" d="M1424 75Q1424-8 1507-8L1575-8Q1658-8 1658 75L1658 1186Q1658 1274 1576 1274L1507 1274Q1424 1274 1424 1186L1424 572L743 572Q465 572 465 688L465 1186Q465 1274 383 1274L313 1274Q231 1274 231 1186L231 680Q231 379 732 379L1424 379L1424 75Z"  horiz-adv-x="1871" vert-adv-y="2048"  />

      
      <glyph glyph-name="uni0428" unicode="&#x0428;" d="M1310 184Q1393 184 1549 195Q1712 225 1712 319L1712 1192Q1712 1274 1795 1274L1864 1274Q1946 1274 1946 1192L1946 319Q1946 70 1602 6Q1527-8 1308-8L776-8Q551-8 482 6Q138 76 138 319L138 1192Q138 1274 220 1274L289 1274Q372 1274 372 1192L372 319Q372 225 535 195Q595 184 774 184L925 184L925 1192Q925 1274 1007 1274L1076 1274Q1159 1274 1159 1192L1159 184L1310 184Z"  horiz-adv-x="2084" vert-adv-y="2048"  />

      
      <glyph glyph-name="uni0429" unicode="&#x0429;" d="M482 6Q138 76 138 319L138 1192Q138 1274 220 1274L289 1274Q372 1274 372 1192L372 319Q372 225 535 195Q595 184 774 184L925 184L925 1192Q925 1274 1007 1274L1076 1274Q1159 1274 1159 1192L1159 184L1712 184L1712 1192Q1712 1274 1794 1274L1863 1274Q1946 1274 1946 1192L1946 184L2141 184Q2223 184 2223 101L2223 75Q2223-8 2141-8L776-8Q551-8 482 6Z"  horiz-adv-x="2269" vert-adv-y="2048"  />

      
      <glyph glyph-name="uni042A" unicode="&#x042A;" d="M1445 183Q1750 183 1750 294L1750 469Q1750 562 1658 598Q1589 625 1446 625L621 625L621 183L1445 183M469-8Q387-8 387 74L387 1083L143 1083Q60 1083 60 1166L60 1192Q60 1274 143 1274L538 1274Q621 1274 621 1191L621 817L1432 817Q1650 817 1790 754Q1982 668 1982 477L1982 278Q1982 186 1921 124Q1878 80 1777 33Q1708 1 1613-6Q1586-8 1443-8L469-8Z"  horiz-adv-x="2122" vert-adv-y="2048"  />

      
      <glyph glyph-name="uni042B" unicode="&#x042B;" d="M1732 477Q1732 668 1540 754Q1400 817 1182 817L371 817L371 1191Q371 1274 288 1274L219 1274Q137 1274 137 1191L137 74Q137-8 219-8L1193-8Q1342-8 1368-6Q1458 1 1527 33Q1628 80 1671 124Q1732 186 1732 278L1732 477M1500 469L1500 294Q1500 183 1195 183L371 183L371 625L1196 625Q1339 625 1408 598Q1500 562 1500 469M2081 75Q2081-8 1998-8L1929-8Q1847-8 1847 75L1847 1192Q1847 1274 1929 1274L1998 1274Q2081 1274 2081 1192L2081 75Z"  horiz-adv-x="2212" vert-adv-y="2048"  />

      
      <glyph glyph-name="uni042C" unicode="&#x042C;" d="M1732 477Q1732 668 1540 754Q1400 817 1182 817L371 817L371 1191Q371 1274 288 1274L219 1274Q137 1274 137 1191L137 74Q137-8 219-8L1193-8Q1342-8 1368-6Q1458 1 1527 33Q1628 80 1671 124Q1732 186 1732 278L1732 477M1500 469L1500 294Q1500 183 1195 183L371 183L371 625L1196 625Q1339 625 1408 598Q1500 562 1500 469Z"  horiz-adv-x="1860" vert-adv-y="2048"  />

      
      <glyph glyph-name="uni042D" unicode="&#x042D;" d="M137 636L139 609Q145 531 221 531L1346 531L1346 320Q1346 184 1046 184L221 184Q139 184 139 101L139 75Q139-8 221-8L1057-8Q1096-8 1154-2Q1580 42 1580 312L1580 947Q1580 1127 1371 1215Q1231 1274 1037 1274L889 1274Q807 1274 807 1192L807 1166Q807 1083 889 1083L1046 1083L1111 1080Q1349 1069 1349 947L1349 723L220 723Q131 723 137 636Z"  horiz-adv-x="1682" vert-adv-y="2048"  />

      
      <glyph glyph-name="uni042E" unicode="&#x042E;" d="M645 335Q645 250 690 181Q813-8 1238-8L1572-8Q2166-8 2166 336L2166 926Q2166 1147 1965 1225Q1839 1274 1572 1274L1237 1274Q645 1274 645 926L645 723L379 723L379 1192Q379 1274 296 1274L227 1274Q145 1274 145 1192L145 75Q145-8 227-8L296-8Q379-8 379 75L379 531L645 531L645 335M879 341L879 921Q879 1083 1234 1083L1575 1083Q1932 1083 1932 921L1932 341Q1932 184 1575 184L1233 184Q879 184 879 341Z"  horiz-adv-x="2311" vert-adv-y="2048"  />

      
      <glyph glyph-name="uni042F" unicode="&#x042F;" d="M107 792Q107 617 291 538Q422 482 625 482L1020 482L179 141Q117 116 117 70Q117-9 211-8Q305-7 341-1L1457 455L1457 75Q1457-8 1540-8L1609-8Q1691-8 1691 75L1691 1192Q1691 1274 1609 1274L668 1274Q449 1274 308 1217Q107 1136 107 950L107 792M341 790L341 955Q341 1083 669 1083L1457 1083L1457 673L627 673Q341 673 341 790Z"  horiz-adv-x="1814" vert-adv-y="2048"  />

      
      <glyph glyph-name="uni0430" unicode="&#x0430;" d="M1614 295Q1614-8 1159-8L616-8Q537-8 444 14Q142 85 142 284L142 413Q142 570 306 650Q431 711 608 711L1394 711Q1377 814 1132 814L964 814Q882 814 882 896L882 918Q882 1001 964 1001L1086 1001Q1614 1001 1614 691L1614 295M1392 284L1392 524L603 524Q540 524 466 501Q364 469 364 414L364 286Q364 223 483 197Q524 188 610 178L1161 178Q1392 178 1392 284Z"  horiz-adv-x="1739" vert-adv-y="2048"  />

      
      <glyph glyph-name="uni0431" unicode="&#x0431;" d="M137 968Q137 1152 357 1233Q511 1290 719 1290L812 1290Q895 1290 895 1208L895 1186Q895 1104 812 1104L651 1104Q592 1104 486 1072Q366 1036 366 993L975 993Q1189 993 1329 939Q1532 861 1532 681L1532 307Q1532 148 1368 63Q1231-8 1034-8L707-8Q497-8 348 50Q137 132 137 309L137 968M362 808L362 318Q362 242 487 204Q573 178 671 178L1022 178Q1144 178 1199 191Q1310 217 1310 302L1310 678Q1310 808 980 808L362 808Z"  horiz-adv-x="1669" vert-adv-y="2048"  />

      
      <glyph glyph-name="uni0432" unicode="&#x0432;" d="M1097 963L1097 993Q1097 1036 977 1072Q871 1104 812 1104L651 1104Q587 1104 488 1074Q366 1037 366 993L366 963L1097 963M1532 651L1532 307Q1532 148 1368 63Q1231-8 1034-8L707-8Q497-8 348 50Q137 132 137 309L137 968Q137 1152 357 1233Q511 1290 719 1290L757 1290Q957 1290 1112 1233Q1224 1192 1270 1139Q1323 1077 1323 965Q1323 934 1322 928Q1532 847 1532 651M362 778L362 318Q362 242 487 204Q573 178 671 178L1022 178Q1144 178 1199 191Q1310 217 1310 302L1310 648Q1310 778 980 778L362 778Z"  horiz-adv-x="1669" vert-adv-y="2048"  />

      
      <glyph glyph-name="uni0433" unicode="&#x0433;" d="M1182 896Q1182 814 1099 814L611 814Q488 814 449 803Q362 778 362 688L362 75Q362-8 280-8L219-8Q137-8 137 76L137 688Q137 852 257 939Q311 978 398 991Q465 1001 624 1001L1099 1001Q1182 1001 1182 918L1182 896Z"  horiz-adv-x="1248" vert-adv-y="2048"  />

      
      <glyph glyph-name="uni0434" unicode="&#x0434;" d="M547 178L1026 777L1500 178L547 178M1130 981Q1095 1024 1025 1024Q956 1024 923 983L273 178L168 178Q85 178 85 95L85 74Q85-8 168-8L1880-8Q1963-8 1963 74L1963 95Q1963 178 1880 178L1775 178L1130 981Z"  horiz-adv-x="2048" vert-adv-y="2048"  />

      
      <glyph glyph-name="uni0435" unicode="&#x0435;" d="M1527 479Q1527 387 1465 387L361 387Q361 178 649 178L815 178Q897 178 897 95L897 75Q897-8 815-8L673-8Q460-8 325 48Q132 128 132 311L132 682Q132 857 323 941Q462 1002 664 1002L1079 1002Q1247 1002 1368 945Q1527 870 1527 722L1527 479M1311 580L1311 704Q1311 761 1183 792Q1093 814 1011 814L689 814Q354 814 354 696L354 580L1311 580Z"  horiz-adv-x="1651" vert-adv-y="2048"  />

      
      <glyph glyph-name="uni0436" unicode="&#x0436;" d="M930 919Q930 1001 847 1001L792 1001Q709 1001 709 919L709 623L246 985Q226 1001 197 1001L127 1001Q32 1001 32 928Q32 887 78 851L537 496L72 142Q25 106 25 65Q25-8 120-8L189-8Q216-8 237 8L709 371L709 75Q709-8 792-8L847-8Q930-8 930 75L930 371L1396 8Q1417-8 1445-8L1511-8Q1606-8 1606 65Q1606 106 1560 142L1101 499L1549 852Q1594 887 1594 928Q1594 1001 1500 1001L1433 1001Q1405 1001 1384 984L930 623L930 919Z"  horiz-adv-x="1623" vert-adv-y="2048"  />

      
      <glyph glyph-name="uni0437" unicode="&#x0437;" d="M1091 1001L871 1001Q788 1001 788 918L788 896Q788 814 871 814L1223 814Q1272 814 1309 791Q1343 770 1343 735L1343 666Q1343 637 1305 610Q1283 594 1218 594L202 594Q120 594 120 512L120 491Q120 408 202 408L1218 408Q1328 408 1343 335L1343 257Q1343 221 1297 197Q1259 178 1219 178L203 178Q120 178 120 95L120 75Q120-8 223-8L1045-8Q1314-8 1387 24Q1565 102 1565 238L1565 350Q1565 395 1531.50 442Q1498 489 1455 501Q1497 513 1531 560.50Q1565 608 1565 652L1565 764Q1565 902 1384 962Q1264 1001 1091 1001Z"  horiz-adv-x="1680" vert-adv-y="2048"  />

      
      <glyph glyph-name="uni0438" unicode="&#x0438;" d="M255-8L324-8Q350-8 372 8L1347 723L1347 75Q1347-8 1430-8L1485-8Q1568-8 1568 75L1568 928Q1568 1001 1474 1001L1407 1001Q1381 1001 1358 984L384 272L384 918Q384 1001 301 1001L246 1001Q163 1001 163 918L163 67Q163-8 255-8Z"  horiz-adv-x="1730" vert-adv-y="2048"  />

      
      <glyph glyph-name="uni0439" unicode="&#x0439;" d="M255-8L324-8Q350-8 372 8L1347 723L1347 75Q1347-8 1430-8L1485-8Q1568-8 1568 75L1568 928Q1568 1001 1474 1001L1407 1001Q1381 1001 1358 984L384 272L384 918Q384 1001 301 1001L246 1001Q163 1001 163 918L163 67Q163-8 255-8M614 1047Q531 1047 531 1130L531 1151Q531 1233 614 1233L1116 1233Q1199 1233 1199 1151L1199 1130Q1199 1047 1116 1047L614 1047Z"  horiz-adv-x="1730" vert-adv-y="2048"  />

      
      <glyph glyph-name="uni043A" unicode="&#x043A;" d="M1260 149Q1318 121 1318 68Q1318-8 1223-8L1153-8Q1134-8 1116 1L357 372L357 75Q357-8 275-8L219-8Q137-8 137 75L139 919Q139 1001 221 1001L277 1001Q360 1001 359 919L357 601L1106 992Q1133 1001 1143 1001L1207 1001Q1301 1001 1301 925Q1301 875 1244 845L564 489L1260 149Z"  horiz-adv-x="1421" vert-adv-y="2048"  />

      
      <glyph glyph-name="uni043B" unicode="&#x043B;" d="M1654 127L967 981Q932 1024 862 1024Q793 1024 760 983L69 127Q40 91 40 59Q40-8 133-8L196-8Q236-8 260 22L863 777L1463 22Q1487-8 1527-8L1590-8Q1683-8 1683 59Q1683 91 1654 127Z"  horiz-adv-x="1722" vert-adv-y="2048"  />

      
      <glyph glyph-name="uni043C" unicode="&#x043C;" d="M419 932Q360 1001 273 1001L248 1001Q206 1001 170.50 966Q135 931 135 889L135 75Q135-8 218-8L273-8Q356-8 356 75L356 648L868 66Q933-8 996-8Q1059-8 1124 66L1636 648L1636 75Q1636-8 1719-8L1774-8Q1857-8 1857 75L1857 869Q1857 921 1827 959Q1795 1001 1744 1001L1719 1001Q1632 1001 1573 932L996 260L419 932Z"  horiz-adv-x="1992" vert-adv-y="2048"  />

      
      <glyph glyph-name="uni043D" unicode="&#x043D;" d="M361 386L361 75Q361-8 278-8L223-8Q140-8 140 75L140 919Q140 1001 223 1001L278 1001Q361 1001 361 919L361 573L1290 573L1290 919Q1290 1001 1373 1001L1428 1001Q1511 1001 1511 919L1511 75Q1511-8 1428-8L1373-8Q1290-8 1290 75L1290 386L361 386Z"  horiz-adv-x="1650" vert-adv-y="2048"  />

      
      <glyph glyph-name="uni043E" unicode="&#x043E;" d="M1514 305Q1514 130 1336 48Q1215-8 1021-8L652-8Q295-8 179 169Q137 233 137 305L137 677Q137 800 252 890Q393 1001 651 1001L1021 1001Q1514 1001 1514 679L1514 305M1288 305L1288 694Q1288 814 1015 814L654 814Q556 814 477 790Q359 754 359 677L359 305Q359 231 479 199Q557 178 655 178L1016 178Q1102 178 1179 202Q1288 236 1288 305Z"  horiz-adv-x="1650" vert-adv-y="2048"  />

      
      <glyph glyph-name="uni043F" unicode="&#x043F;" d="M1514 75Q1514-8 1431-8L1373-8Q1290-8 1290 75L1290 717Q1290 776 1219 803Q1190 814 1079 814L577 814Q474 814 434 803Q359 782 359 716L359 75Q359-8 277-8L219-8Q137-8 137 75L137 714Q137 859 191 912Q282 1001 576 1001L1079 1001Q1379 1001 1465 914Q1514 865 1514 716L1514 75Z"  horiz-adv-x="1650" vert-adv-y="2048"  />

      
      <glyph glyph-name="uni0440" unicode="&#x0440;" d="M1532 313Q1532 0 1052 0L359 0L359-205Q359-287 277-287L219-287Q137-287 137-205L137 701Q137 885 310 955Q424 1001 644 1001L998 1001Q1532 1001 1532 704L1532 313M1307 310L1307 701Q1307 781 1183 805Q1131 815 1000 815L654 815Q359 815 359 696L359 185L1052 185Q1307 185 1307 310Z"  horiz-adv-x="1669" vert-adv-y="2048"  />

      
      <glyph glyph-name="uni0441" unicode="&#x0441;" d="M1565 75Q1565-8 1462-8L640-8Q413-8 299 37Q120 108 120 297L120 695Q120 1001 594 1001L1474 1001Q1557 1001 1557 918L1557 896Q1557 814 1474 814L609 814Q494 814 442 801Q342 776 342 701L342 306Q342 178 646 178L1482 178Q1565 178 1565 95L1565 75Z"  horiz-adv-x="1680" vert-adv-y="2048"  />

      
      <glyph glyph-name="uni0442" unicode="&#x0442;" d="M1195 919L1195 898Q1195 815 1112 815L742 815L742 75Q742-8 660-8L602-8Q520-8 520 75L520 815L150 815Q67 815 67 898L67 919Q67 1001 150 1001L1112 1001Q1195 1001 1195 919Z"  horiz-adv-x="1261" vert-adv-y="2048"  />

      
      <glyph glyph-name="uni0443" unicode="&#x0443;" d="M1524 7Q1524-287 1047-287L868-287Q785-287 785-205L785-179Q785-96 868-96L1049-96Q1301-96 1301 0L638 0Q137 0 137 301L137 918Q137 1001 219 1001L277 1001Q359 1001 359 918L359 301Q359 185 638 185L1301 185L1301 918Q1301 1001 1384 1001L1442 1001Q1524 1001 1524 918L1524 7Z"  horiz-adv-x="1661" vert-adv-y="2048"  />

      
      <glyph glyph-name="uni0444" unicode="&#x0444;" d="M799 814L648 814Q549 814 471 790Q353 754 353 677L353 305Q353 231 473 199Q551 178 649 178L799 178L799 814M1202 178Q1288 178 1365 202Q1474 236 1474 305L1474 694Q1474 814 1201 814L1021 814L1021 178L1202 178M1021-213Q1021-295 939-295L881-295Q799-295 799-213L799-8L646-8Q289-8 173 169Q131 233 131 305L131 677Q131 800 246 890Q387 1001 645 1001L1207 1001Q1700 1001 1700 679L1700 305Q1700 130 1522 48Q1400-8 1207-8L1021-8L1021-213Z"  horiz-adv-x="1830" vert-adv-y="2048"  />

      
      <glyph glyph-name="uni0445" unicode="&#x0445;" d="M1391 142Q1437 108 1437 65Q1437-8 1342-8L1276-8Q1249-8 1227 8L731 371L229 8Q207-8 181-8L112-8Q17-8 17 65Q17 108 64 142L559 496L70 851Q24 884 24 928Q24 1001 119 1001L189 1001Q216 1001 238 985L732 623L1215 984Q1238 1001 1264 1001L1331 1001Q1425 1001 1425 928Q1425 885 1380 852L902 499L1391 142Z"  horiz-adv-x="1436" vert-adv-y="2048"  />

      
      <glyph glyph-name="uni0446" unicode="&#x0446;" d="M1290 918Q1290 1001 1373 1001L1431 1001Q1514 1001 1514 918L1514 178L1716 178Q1798 178 1798 96L1798 75Q1798-8 1716-8L576-8Q282-8 191 81Q137 134 137 279L137 918Q137 1001 219 1001L277 1001Q359 1001 359 918L359 277Q359 211 434 190Q474 179 577 179L1290 179L1290 918Z"  horiz-adv-x="1910" vert-adv-y="2048"  />

      
      <glyph glyph-name="uni0447" unicode="&#x0447;" d="M367 639Q368 514 622 514L1315 514L1315 918Q1315 1001 1398 1001L1456 1001Q1538 1001 1538 918L1537 74Q1537-8 1455-8L1397-8Q1315-8 1315 74L1315 329L585 330Q403 330 287 394Q142 474 142 642L143 918Q143 1001 225 1001L283 1001Q364 1001 365 918L367 639Z"  horiz-adv-x="1669" vert-adv-y="2048"  />

      
      <glyph glyph-name="uni0448" unicode="&#x0448;" d="M584-8Q289-8 199 81Q145 134 145 279L145 918Q145 1001 227 1001L285 1001Q367 1001 367 918L367 277Q367 211 442 190Q481 179 585 179L732 179L732 918Q732 1001 814 1001L872 1001Q954 1001 954 918L954 179L1100 179Q1204 179 1243 190Q1318 211 1318 277L1318 918Q1318 1001 1400 1001L1458 1001Q1540 1001 1540 918L1540 279Q1540 134 1486 81Q1396-8 1101-8L584-8Z"  horiz-adv-x="1685" vert-adv-y="2048"  />

      
      <glyph glyph-name="uni0449" unicode="&#x0449;" d="M577 179Q474 179 434 190Q359 211 359 277L359 918Q359 1001 277 1001L219 1001Q137 1001 137 918L137 279Q137 134 191 81Q282-8 576-8L1736-8Q1818-8 1818 75L1818 96Q1818 178 1736 178L1534 178L1534 918Q1534 1001 1451 1001L1393 1001Q1310 1001 1310 918L1310 179L946 179L946 918Q946 1001 864 1001L806 1001Q724 1001 724 918L724 179L577 179Z"  horiz-adv-x="1941" vert-adv-y="2048"  />

      
      <glyph glyph-name="uni044A" unicode="&#x044A;" d="M524 821Q524 924 474 964Q429 1001 325 1001L122 1001Q40 1001 40 918L40 896Q40 814 122 814L302 814L302 292Q302-8 776-8L1173-8Q1697-8 1697 289L1697 351Q1697 519 1551 600Q1436 664 1254 664L524 664L524 821M1217 479Q1472 479 1472 354L1472 292Q1472 210 1358 188Q1306 178 1175 178L786 178Q524 178 524 297L524 479L1217 479Z"  horiz-adv-x="1828" vert-adv-y="2048"  />

      
      <glyph glyph-name="uni044B" unicode="&#x044B;" d="M358 919Q358 1001 276 1001L218 1001Q136 1001 136 919L136 292Q136-8 610-8L1007-8Q1531-8 1531 289L1531 351Q1531 519 1385 600Q1270 664 1088 664L358 664L358 919M1306 354L1306 292Q1306 210 1192 188Q1140 178 1009 178L620 178Q358 178 358 297L358 479L1051 479Q1306 479 1306 354M1866 75Q1866-8 1783-8L1728-8Q1645-8 1645 75L1645 919Q1645 1001 1728 1001L1783 1001Q1866 1001 1866 919L1866 75Z"  horiz-adv-x="2002" vert-adv-y="2048"  />

      
      <glyph glyph-name="uni044C" unicode="&#x044C;" d="M354 919Q354 1001 272 1001L214 1001Q132 1001 132 919L132 292Q132-8 606-8L1003-8Q1527-8 1527 289L1527 351Q1527 519 1381 600Q1266 664 1084 664L354 664L354 919M1302 354L1302 292Q1302 210 1188 188Q1136 178 1005 178L616 178Q354 178 354 297L354 479L1047 479Q1302 479 1302 354Z"  horiz-adv-x="1669" vert-adv-y="2048"  />

      
      <glyph glyph-name="uni044D" unicode="&#x044D;" d="M1343 701Q1343 776 1243 801Q1191 814 1076 814L871 814Q788 814 788 896L788 918Q788 1001 871 1001L1091 1001Q1565 1001 1565 695L1565 297Q1565 108 1386 37Q1272-8 1045-8L223-8Q120-8 120 75L120 95Q120 178 203 178L1039 178Q1343 178 1343 306L1343 408L202 408Q120 408 120 491L120 512Q120 594 202 594L1343 594L1343 701Z"  horiz-adv-x="1680" vert-adv-y="2048"  />

      
      <glyph glyph-name="uni044E" unicode="&#x044E;" d="M587 677Q587 800 702 890Q843 1001 1101 1001L1461 1001Q1954 1001 1954 679L1954 305Q1954 130 1776 48Q1654-8 1461-8L1102-8Q745-8 629 169Q587 233 587 305L587 386L361 386L361 75Q361-8 278-8L223-8Q140-8 140 75L140 919Q140 1001 223 1001L278 1001Q361 1001 361 919L361 573L587 573L587 677M1728 305L1728 694Q1728 814 1455 814L1104 814Q1005 814 927 790Q809 754 809 677L809 305Q809 231 929 199Q1007 178 1105 178L1456 178Q1542 178 1619 202Q1728 236 1728 305Z"  horiz-adv-x="2093" vert-adv-y="2048"  />

      
      <glyph glyph-name="uni044F" unicode="&#x044F;" d="M1315 329L1315 74Q1315-8 1397-8L1455-8Q1537-8 1537 74L1537 701Q1537 1001 1063 1001L666 1001Q142 1001 142 704L142 642Q142 474 288 393Q402 330 585 330L190 149Q132 122 132 68Q132-8 227-8L297-8Q316-8 334 1L1003 329L1315 329M367 639L367 701Q367 783 481 805Q533 815 664 815L1053 815Q1315 815 1315 696L1315 514L622 514Q367 514 367 639Z"  horiz-adv-x="1669" vert-adv-y="2048"  />

      
      <glyph glyph-name="uni0451" unicode="&#x0451;" d="M1527 479Q1527 387 1465 387L361 387Q361 178 649 178L815 178Q897 178 897 95L897 75Q897-8 815-8L673-8Q460-8 325 48Q132 128 132 311L132 682Q132 857 323 941Q462 1002 664 1002L1079 1002Q1247 1002 1368 945Q1527 870 1527 722L1527 479M1311 580L1311 704Q1311 761 1183 792Q1093 814 1011 814L689 814Q354 814 354 696L354 580L1311 580M406 1260L628 1260Q684 1260 684 1204L684 1134Q684 1078 628 1078L406 1078Q350 1078 350 1134L350 1204Q350 1260 406 1260M976 1260L1198 1260Q1254 1260 1254 1204L1254 1134Q1254 1078 1198 1078L976 1078Q920 1078 920 1134L920 1204Q920 1260 976 1260Z"  horiz-adv-x="1651" vert-adv-y="2048"  />

      
      <glyph glyph-name="uni2013" unicode="&#x2013;" d="M1721 597Q1721 515 1639 515L240 515Q158 515 158 597L158 654Q158 737 240 737L1639 737Q1721 737 1721 654L1721 597Z"  horiz-adv-x="1878" vert-adv-y="2048"  />

      
      <glyph glyph-name="uni2014" unicode="&#x2014;" d="M1264 516Q1264 434 1181 434L119 434Q36 434 36 516L36 582Q36 665 119 665L1181 665Q1264 665 1264 582L1264 516Z"  horiz-adv-x="1300" vert-adv-y="2048"  />

      
      <glyph glyph-name="uni2018" unicode="&#x2018;" d="M386 1163L335 858Q323 789 254 789L186 789Q102 789 102 862L102 873Q104 881 104 885L154 1190Q165 1259 236 1259L304 1259Q388 1259 388 1186L388 1175Q386 1167 386 1163Z"  horiz-adv-x="482" vert-adv-y="2048"  />

      
      <glyph glyph-name="uni2019" unicode="&#x2019;" d="M386 1163L335 858Q323 789 254 789L186 789Q102 789 102 862L102 873Q104 881 104 885L154 1190Q165 1259 236 1259L304 1259Q388 1259 388 1186L388 1175Q386 1167 386 1163Z"  horiz-adv-x="482" vert-adv-y="2048"  />

      
      <glyph glyph-name="uni201C" unicode="&#x201C;" d="M683 1163L632 858Q620 789 551 789L483 789Q399 789 399 862L399 873Q401 881 401 885L451 1190Q462 1259 533 1259L601 1259Q685 1259 685 1186L685 1175Q683 1167 683 1163M386 1163L335 858Q323 789 254 789L186 789Q102 789 102 862L102 873Q104 881 104 885L154 1190Q165 1259 236 1259L304 1259Q388 1259 388 1186L388 1175Q386 1167 386 1163Z"  horiz-adv-x="763" vert-adv-y="2048"  />

      
      <glyph glyph-name="uni201D" unicode="&#x201D;" d="M683 1163L632 858Q620 789 551 789L483 789Q399 789 399 862L399 873Q401 881 401 885L451 1190Q462 1259 533 1259L601 1259Q685 1259 685 1186L685 1175Q683 1167 683 1163M386 1163L335 858Q323 789 254 789L186 789Q102 789 102 862L102 873Q104 881 104 885L154 1190Q165 1259 236 1259L304 1259Q388 1259 388 1186L388 1175Q386 1167 386 1163Z"  horiz-adv-x="763" vert-adv-y="2048"  />

      
      <glyph glyph-name="uni2022" unicode="&#x2022;" d="M960 634Q960 459 829 356Q709 260 530 260Q346 260 228 352Q98 452 98 632Q98 792 239 887Q363 971 530 971Q696 971 819 888Q960 793 960 634Z"  horiz-adv-x="1058" vert-adv-y="2048"  />

      

  </font>
</defs>
</svg>
