<svg width="29" height="28" viewBox="0 0 29 28" fill="none" xmlns="http://www.w3.org/2000/svg">
<path d="M4.77994 20.133C5.44515 20.133 5.98762 20.6755 5.98762 21.3407V21.4041H11.139V20.8972C11.139 20.2795 11.6419 19.7727 12.2636 19.7727H13.5108V18.8422H12.8734C12.6675 18.8422 12.4972 18.6759 12.4972 18.466V16.8624C9.32951 15.8765 7.02107 12.9147 7.02107 9.42232C7.02107 5.12615 10.5134 1.63379 14.8096 1.63379C19.1058 1.63379 22.5981 5.12615 22.5981 9.42232C22.5981 12.9107 20.2897 15.8725 17.122 16.8624V18.466C17.122 18.6719 16.9557 18.8422 16.7458 18.8422H16.1083V19.7727H17.3556C17.9733 19.7727 18.4801 20.2756 18.4801 20.8972V21.4041H23.6276V21.3407C23.6276 20.6755 24.1701 20.133 24.8353 20.133C25.5005 20.133 26.043 20.6755 26.043 21.3407V24.6945C26.043 25.3597 25.5005 25.9022 24.8353 25.9022C24.1701 25.9022 23.6276 25.3597 23.6276 24.6945V24.4173H18.4762V24.9241C18.4762 25.5418 17.9733 26.0487 17.3517 26.0487H12.2596C11.6419 26.0487 11.1351 25.5458 11.1351 24.9241V24.4173H5.98365V24.6945C5.98365 25.3597 5.44119 25.9022 4.77598 25.9022C4.11077 25.9022 3.5683 25.3597 3.5683 24.6945V21.3407C3.57226 20.6755 4.11472 20.133 4.77994 20.133ZM24.3799 21.7802V24.0451V24.6984C24.3799 24.9519 24.5858 25.1578 24.8393 25.1578C25.0927 25.1578 25.2986 24.9519 25.2986 24.6984V21.3447C25.2986 21.0912 25.0927 20.8853 24.8393 20.8853C24.5858 20.8853 24.3799 21.0912 24.3799 21.3447V21.7802ZM18.4801 23.6689H23.6276V22.1524H18.4762V23.6689H18.4801ZM21.8498 9.43023C21.8498 5.54983 18.69 2.39007 14.8096 2.39007C10.9292 2.39007 7.76943 5.54983 7.76943 9.43023C7.76943 13.3106 10.9292 16.4704 14.8096 16.4704C18.69 16.4704 21.8498 13.3146 21.8498 9.43023ZM16.3736 18.0978V17.0604C15.8668 17.1633 15.3441 17.2188 14.8096 17.2188C14.275 17.2188 13.7524 17.1633 13.2456 17.0604V18.0978H16.3736ZM14.2592 18.8462V19.7767H15.36V18.8462H14.2592ZM11.8914 24.9241C11.8914 25.13 12.0577 25.3003 12.2675 25.3003H17.3556C17.5615 25.3003 17.7318 25.134 17.7318 24.9241V20.9012C17.7318 20.6953 17.5655 20.525 17.3556 20.525H12.2636C12.0577 20.525 11.8874 20.6913 11.8874 20.9012V24.9241H11.8914ZM5.99157 23.6689H11.139V22.1524H5.98762V23.6689H5.99157ZM4.32062 24.6945C4.32062 24.9479 4.52652 25.1538 4.77994 25.1538C5.03335 25.1538 5.23925 24.9479 5.23925 24.6945V24.0411V21.7763V21.3367C5.23925 21.0833 5.03335 20.8774 4.77994 20.8774C4.52652 20.8774 4.32062 21.0833 4.32062 21.3367V24.6945Z" fill="#111622"/>
<path d="M17.064 4.78449C16.47 4.49544 15.8326 4.32914 15.1911 4.28162V4.51128C15.1911 4.71718 15.0248 4.88744 14.8149 4.88744C14.609 4.88744 14.4388 4.72114 14.4388 4.51128V4.28162C13.7934 4.32914 13.1559 4.49544 12.5619 4.78053L12.6768 4.98247C12.7797 5.16065 12.7203 5.39031 12.5382 5.49326C12.4788 5.52889 12.4154 5.54473 12.3521 5.54473C12.2214 5.54473 12.0987 5.47742 12.0274 5.35863L11.9086 5.15669C11.6433 5.33883 11.3859 5.54473 11.1523 5.77835C10.9187 6.01196 10.7168 6.26538 10.5346 6.53067L10.7366 6.64946C10.9147 6.75241 10.9781 6.98207 10.8751 7.16025C10.8039 7.27904 10.6811 7.34635 10.5505 7.34635C10.4871 7.34635 10.4237 7.33051 10.3644 7.29487L10.1585 7.17609C9.87336 7.76607 9.70706 8.40356 9.65954 9.05293H9.89316C10.0991 9.05293 10.2693 9.21924 10.2693 9.4291C10.2693 9.63895 10.103 9.80526 9.89316 9.80526H9.6635C9.70706 10.4467 9.87336 11.0842 10.1624 11.6821L10.3683 11.5633C10.5465 11.4604 10.7761 11.5198 10.8791 11.7019C10.982 11.8801 10.9227 12.1097 10.7405 12.2127L10.202 12.5255C10.1585 12.5493 10.1149 12.5611 10.0713 12.5691C10.0634 12.5691 10.0555 12.573 10.0436 12.573C10.0357 12.573 10.0238 12.577 10.0159 12.577C9.98423 12.577 9.95255 12.573 9.92088 12.5651C9.91296 12.5611 9.90108 12.5572 9.89316 12.5532C9.86544 12.5413 9.83773 12.5295 9.81397 12.5136C9.79813 12.5017 9.78625 12.4938 9.77041 12.4819C9.75061 12.4661 9.73478 12.4463 9.71894 12.4226C9.71102 12.4107 9.69914 12.4028 9.69122 12.3909C9.16459 11.4722 8.91118 10.4586 8.90722 9.45285C8.90722 9.44493 8.90326 9.44098 8.90326 9.43702C8.90326 9.4291 8.90722 9.42514 8.90722 9.41722C8.91118 8.39564 9.17647 7.37802 9.69518 6.4792C9.94859 6.03968 10.2614 5.62788 10.6296 5.25568C11.0018 4.88348 11.4097 4.58255 11.8452 4.32914C11.8492 4.32518 11.8532 4.32122 11.8611 4.31726C11.865 4.3133 11.873 4.3133 11.8769 4.3133C12.7837 3.79459 13.7973 3.5293 14.8149 3.5293C15.8326 3.5293 16.8462 3.79855 17.753 4.31726C17.7569 4.32122 17.7648 4.32122 17.7688 4.32122C17.7728 4.32518 17.7767 4.32914 17.7846 4.33309C18.2162 4.58255 18.6241 4.88744 18.9923 5.25568C19.3645 5.62788 19.6773 6.04364 19.9307 6.48316C20.4494 7.38198 20.7147 8.39564 20.7187 9.42118C20.7187 9.4291 20.7227 9.43306 20.7227 9.44097C20.7227 9.44493 20.7187 9.45285 20.7187 9.45681C20.7147 10.4665 20.4613 11.4802 19.9307 12.3988C19.8793 12.4859 19.8001 12.5493 19.7011 12.573C19.6694 12.5809 19.6377 12.5849 19.6061 12.5849C19.5387 12.5849 19.4754 12.5691 19.4199 12.5334L18.8775 12.2206C18.6993 12.1177 18.6359 11.888 18.7429 11.7098C18.8458 11.5316 19.0755 11.4722 19.2536 11.5752L19.4595 11.694C19.7486 11.0961 19.9149 10.4586 19.9624 9.81714H19.7288C19.5229 9.81714 19.3526 9.65083 19.3526 9.44097C19.3526 9.23508 19.5189 9.06481 19.7288 9.06481H19.9585C19.9109 8.41544 19.7407 7.77794 19.4556 7.18796L19.2536 7.30279C19.1943 7.33843 19.1309 7.35427 19.0675 7.35427C18.9369 7.35427 18.8141 7.28695 18.7429 7.16817C18.6399 6.98998 18.6993 6.76033 18.8814 6.65738L19.0834 6.53859C18.9012 6.26934 18.6993 6.01592 18.4617 5.78231C18.2281 5.54869 17.9747 5.34279 17.7094 5.16461L17.5906 5.36655C17.5193 5.48534 17.3966 5.55265 17.2659 5.55265C17.2026 5.55265 17.1392 5.53681 17.0798 5.50118C16.9016 5.39823 16.8383 5.16857 16.9412 4.99039L17.064 4.78449Z" fill="#111622"/>
<path d="M13.3255 10.7148C13.3255 10.307 13.4878 9.93876 13.7452 9.66159L12.5573 7.83225C12.4464 7.65803 12.494 7.42838 12.6682 7.31355C12.8424 7.20268 13.0721 7.25019 13.1869 7.42442L14.3748 9.25771C14.5331 9.20227 14.6995 9.16664 14.8737 9.16664C15.7289 9.16664 16.4219 9.85957 16.4219 10.7148C16.4219 11.5701 15.7289 12.263 14.8737 12.263C14.0184 12.263 13.3255 11.5701 13.3255 10.7148ZM14.8737 11.5147C15.3132 11.5147 15.6735 11.1583 15.6735 10.7148C15.6735 10.2714 15.3132 9.915 14.8737 9.915C14.4342 9.915 14.0738 10.2753 14.0738 10.7148C14.0738 11.1544 14.4342 11.5147 14.8737 11.5147Z" fill="#111622"/>
</svg>
