<svg width="55" height="55" viewBox="0 0 55 55" fill="none" xmlns="http://www.w3.org/2000/svg">
<g clip-path="url(#clip0_322_4407)">
<path d="M53.35 45.65L45.65 37.95C48.125 34.1 49.5 29.7 49.5 24.75C49.5 11 38.5 0 24.75 0C11 0 0 11 0 24.75C0 38.5 11 49.5 24.75 49.5C29.7 49.5 34.1 48.125 37.95 45.65L45.65 53.35C47.85 55.55 51.15 55.55 53.35 53.35C55.55 51.15 55.55 47.85 53.35 45.65ZM24.75 44C14.025 44 5.5 35.475 5.5 24.75C5.5 14.025 14.025 5.5 24.75 5.5C35.475 5.5 44 14.025 44 24.75C44 35.475 35.2 44 24.75 44Z" fill="white"/>
<path d="M35.75 22H27.5V13.75C27.5 12.1 26.4 11 24.75 11C23.1 11 22 12.375 22 13.75V22H13.75C12.375 22 11 23.1 11 24.75C11 26.4 12.1 27.5 13.75 27.5H22V35.75C22 37.4 23.1 38.5 24.75 38.5C26.4 38.5 27.5 37.4 27.5 35.75V27.5H35.75C37.4 27.5 38.5 26.4 38.5 24.75C38.5 23.1 37.125 22 35.75 22Z" fill="white"/>
</g>
<defs>
<clipPath id="clip0_322_4407">
<rect width="55" height="55" fill="white"/>
</clipPath>
</defs>
</svg>
