<svg width="42" height="46" viewBox="0 0 42 46" fill="none" xmlns="http://www.w3.org/2000/svg">
<path d="M14.7545 2.36845C17.0002 1.06005 18.1352 0.405847 19.3184 0.16355C20.3809 -0.0545167 21.4676 -0.0545167 22.5301 0.16355C23.7375 0.430076 24.8483 1.06005 27.0941 2.36845L35.6425 7.3113C37.8883 8.6197 39.0232 9.2739 39.8443 10.1704C40.5687 10.97 41.1241 11.9392 41.4622 12.9568C41.8486 14.1198 41.8485 15.4282 41.8485 18.045V27.955C41.8485 30.5718 41.8486 31.8802 41.4622 33.0432C41.1241 34.0851 40.5687 35.03 39.8443 35.8296C39.0232 36.7503 37.8883 37.4045 35.6425 38.6887L27.0941 43.6315C24.8483 44.94 23.7134 45.5942 22.5301 45.8364C21.4676 46.0545 20.3809 46.0545 19.3184 45.8364C18.111 45.5699 17.0002 44.94 14.7545 43.6315L6.20605 38.6887C3.96028 37.3803 2.82532 36.7261 2.00429 35.8296C1.27985 35.03 0.724442 34.0608 0.386369 33.0432C5.46947e-07 31.8802 0 30.5718 0 27.955V18.045C0 15.4282 5.46947e-07 14.1198 0.386369 12.9568C0.724442 11.9149 1.27985 10.97 2.00429 10.1704C2.82532 9.24967 3.96028 8.59547 6.20605 7.3113L14.7545 2.36845Z" fill="white"/>
<path d="M15.4715 4.1625C17.5219 2.96787 18.5582 2.37056 19.6386 2.14933C20.6087 1.95022 21.6009 1.95022 22.571 2.14933C23.6734 2.39268 24.6876 2.96787 26.7381 4.1625L34.5432 8.67553C36.5936 9.87016 37.6299 10.4675 38.3795 11.286C39.041 12.0161 39.5481 12.901 39.8568 13.8301C40.2095 14.892 40.2095 16.0866 40.2095 18.4759V27.5241C40.2095 29.9134 40.2095 31.108 39.8568 32.1699C39.5481 33.1211 39.041 33.9839 38.3795 34.714C37.6299 35.5546 36.5936 36.152 34.5432 37.3245L26.7381 41.8375C24.6876 43.0321 23.6513 43.6294 22.571 43.8507C21.6009 44.0498 20.6087 44.0498 19.6386 43.8507C18.5362 43.6073 17.5219 43.0321 15.4715 41.8375L7.66639 37.3245C5.61591 36.1298 4.57964 35.5325 3.83 34.714C3.16856 33.9839 2.66145 33.099 2.35277 32.1699C2 31.108 2 29.9134 2 27.5241V18.4759C2 16.0866 2 14.892 2.35277 13.8301C2.66145 12.8789 3.16856 12.0161 3.83 11.286C4.57964 10.4454 5.61591 9.84804 7.66639 8.67553L15.4715 4.1625Z" fill="#0088CC"/>
<path d="M21 36C27.8958 36 33.5 31.7055 33.5 26.4041C33.5 24.8014 33.2292 23.3014 32.3542 21.9247C28.3542 15.4726 25.9375 12.4521 21 6C16.0625 12.4521 13.6458 15.4726 9.64583 21.9247C8.79167 23.3219 8.5 24.7808 8.5 26.4041C8.5 31.7055 14.1042 36 21 36Z" fill="white"/>
<path d="M17.2708 26.4653C17.2708 26.6502 17.1667 26.753 16.9375 26.753H16.6667C16.4375 26.753 16.3333 26.6502 16.3333 26.4653V24.8626H11.75V26.4653C11.75 26.6502 11.6458 26.753 11.4167 26.753H11.1458C10.9167 26.753 10.8125 26.6502 10.8125 26.4653V22.5201C10.8125 22.3352 10.9167 22.2324 11.1458 22.2324H11.4167C11.6458 22.2324 11.75 22.3352 11.75 22.5201V24.1639H16.3333V22.5201C16.3333 22.3352 16.4375 22.2324 16.6667 22.2324H16.9375C17.1667 22.2324 17.2708 22.3352 17.2708 22.5201V26.4653Z" fill="#0088CC"/>
<path d="M20.5612 22.2324H21.8737C22.457 22.2324 22.8529 22.253 23.0612 22.2941C23.9987 22.4379 24.457 22.8283 24.457 23.4242V26.4653C24.457 26.6502 24.3529 26.753 24.1237 26.753H23.8529C23.6237 26.753 23.5195 26.6502 23.5195 26.4653V23.4242C23.5195 23.1776 23.2904 23.0338 22.8529 22.9516C22.3945 22.9311 22.0612 22.9105 21.8945 22.9105H20.582C20.1029 22.9105 19.7904 22.9311 19.6237 22.9516C19.1862 23.0132 18.957 23.1776 18.957 23.4242V26.4653C18.957 26.6502 18.8529 26.753 18.6237 26.753H18.3529C18.1237 26.753 18.0195 26.6502 18.0195 26.4653V23.4242C18.0195 22.8283 18.4779 22.4584 19.4154 22.2941C19.5612 22.253 19.957 22.2324 20.5612 22.2324Z" fill="#0088CC"/>
<path d="M31.4154 25.5396C31.4154 26.341 30.6237 26.752 29.0195 26.752H27.5404C26.3945 26.752 25.6445 26.5259 25.332 26.0944C25.207 25.93 25.1445 25.7451 25.1445 25.5602V23.4848C25.1445 22.6629 25.9362 22.252 27.5404 22.252H29.0195C29.7487 22.252 30.2695 22.3136 30.6029 22.4163C31.1445 22.6013 31.4154 22.9506 31.4154 23.4643V25.5396ZM30.4779 25.5396V23.4848C30.4779 23.0944 29.9987 22.9095 29.0404 22.9095H27.5404C26.582 22.9095 26.1029 23.0944 26.1029 23.4848V25.5396C26.1029 25.9095 26.582 26.0944 27.5404 26.0944H29.0404C29.9987 26.0739 30.4779 25.8889 30.4779 25.5396Z" fill="#0088CC"/>
</svg>
