<svg width="32" height="32" viewBox="0 0 32 32" fill="none" xmlns="http://www.w3.org/2000/svg">
<g clip-path="url(#clip0_331_1805)">
<path d="M14.6358 1.81663C14.9659 1.51646 15.2596 1.25941 15.5052 1.04967V16.0001V29.6526C12.9729 29.4601 10.5787 27.8139 8.76027 25.5255C6.82597 23.0913 5.62474 20.0284 5.62474 17.4935C5.62474 13.1113 8.24529 8.85304 10.9444 5.64304C12.2857 4.04793 13.6283 2.7329 14.6358 1.81663ZM16.4968 16.0001V1.0885C16.7183 1.28903 16.9783 1.52983 17.2678 1.80758C18.2223 2.72346 19.4945 4.03812 20.7655 5.63296C23.3218 8.84052 25.8097 13.1022 25.8097 17.4935C25.8097 20.0438 24.7389 23.1112 22.9471 25.5395C21.2634 27.8214 19.0057 29.4598 16.4968 29.6525V16.0001Z" stroke="#5EB700" stroke-width="0.991661"/>
<path opacity="0.99" d="M12.4707 20L16.0001 23L19.5296 20" stroke="#5EB700" stroke-width="0.99" stroke-linecap="round" stroke-linejoin="round"/>
<path opacity="0.99" d="M18.3524 12L15.9994 14L13.6465 12" stroke="#5EB700" stroke-width="0.99" stroke-linecap="round" stroke-linejoin="round"/>
</g>
<defs>
<clipPath id="clip0_331_1805">
<rect width="32" height="32" fill="white"/>
</clipPath>
</defs>
</svg>
