<svg width="95" height="93" viewBox="0 0 95 93" fill="none" xmlns="http://www.w3.org/2000/svg">
<path d="M2.07708 45.2435L12.493 26.7395L23.6904 8.5989C24.1477 7.85812 24.9498 7.40027 25.8202 7.38327L47.5 6.95988L69.1798 7.38327C70.0502 7.40027 70.8523 7.85812 71.3096 8.59889L82.507 26.7395L92.9229 45.2435C93.3621 46.0236 93.3621 46.9764 92.9229 47.7565L82.5069 66.2606L71.3096 84.4011C70.8523 85.1419 70.0502 85.5997 69.1798 85.6167L47.5 86.0401L25.8202 85.6167C24.9498 85.5997 24.1477 85.1419 23.6904 84.4011L12.4931 66.2605L2.07708 47.7565C1.63794 46.9764 1.63794 46.0236 2.07708 45.2435Z" fill="#F8FEFF" stroke="url(#paint0_linear_332_2220)" stroke-width="2.3873"/>
<g clip-path="url(#clip0_332_2220)">
<path d="M36.1103 38.3845C37.8533 38.6226 39.451 39.3264 40.7304 40.4198C42.9021 42.2759 45.6959 43.3639 48.5973 43.4837C48.7754 43.491 48.9531 43.4948 49.1309 43.4947C51.8896 43.4947 54.598 42.6136 56.8101 40.987C57.7068 40.3276 58.502 39.5623 59.1861 38.7081C59.964 39.3909 60.6745 40.1473 61.3001 40.9644C61.4535 41.1647 61.6887 41.2705 61.9267 41.2705C62.0892 41.2705 62.2531 41.2212 62.3934 41.1192C62.7392 40.8675 62.8102 40.3903 62.5521 40.0532C61.7326 38.983 60.7804 38.0079 59.7279 37.1517C59.2998 35.9164 58.6722 34.7521 57.8597 33.688C56.1926 31.5043 53.8915 29.9502 51.2052 29.1939C48.6067 28.4623 45.7824 28.5561 43.2526 29.4581C42.8475 29.6025 42.6391 30.0399 42.7873 30.4349C42.9354 30.8299 43.384 31.0331 43.7892 30.8886C46.0097 30.0969 48.4895 30.0148 50.7717 30.6573C53.1273 31.3206 55.1449 32.683 56.6065 34.5975C56.812 34.8666 57.0022 35.1437 57.1804 35.4265C56.9583 35.3029 56.7343 35.1828 56.5069 35.0691C54.2339 33.9327 51.7924 33.3119 49.2403 33.2169L47.4631 31.6893C47.1394 31.4111 46.6459 31.4414 46.3605 31.7569C46.0753 32.0724 46.1063 32.5537 46.4299 32.8319L46.9441 33.2737C45.7575 33.3793 44.5883 33.6019 43.4518 33.9396C43.0392 34.0623 42.8065 34.4879 42.9324 34.8902C43.0581 35.2926 43.495 35.5196 43.9072 35.3967C45.4056 34.9515 46.9675 34.7257 48.5497 34.7257C49.9235 34.7257 51.2636 34.8928 52.5602 35.2215L50.6821 36.7233C50.3486 36.99 50.2999 37.4699 50.5735 37.7952C50.728 37.9788 50.952 38.0739 51.1779 38.0739C51.3521 38.0739 51.5276 38.0173 51.6729 37.9012L54.3253 35.7803C54.8226 35.9701 55.3128 36.1838 55.7941 36.4245C56.5558 36.8053 57.2855 37.2491 57.976 37.7462C57.3712 38.506 56.6654 39.1853 55.8692 39.7709C53.803 41.2903 51.2435 42.0683 48.6632 41.9619C46.1164 41.8568 43.6649 40.9023 41.7601 39.2744C40.4841 38.1839 38.9436 37.4226 37.2617 37.0445C37.6054 36.2099 38.0517 35.4234 38.5939 34.6981C38.8479 34.3582 38.7713 33.8817 38.4227 33.634C38.0741 33.3864 37.5853 33.461 37.3313 33.801C36.5157 34.8924 35.8905 36.1042 35.4732 37.4027C35.4046 37.6162 35.4358 37.8484 35.5585 38.0375C35.6812 38.2264 35.883 38.3534 36.1103 38.3845Z" fill="#69CCE5"/>
<path d="M43.5863 59.7548C44.1489 56.993 43.7185 54.09 42.3742 51.5802C41.0113 49.0357 38.7653 47.0163 36.0501 45.8939C35.0162 45.4665 33.9391 45.1758 32.8382 45.0253C33.0557 44.0277 33.3722 43.0502 33.785 42.1139C33.9553 41.7274 33.7721 41.2795 33.3758 41.1134C32.9791 40.9472 32.52 41.126 32.3496 41.5124C31.8087 42.7395 31.4188 44.031 31.1845 45.3479C30.3014 46.3269 29.581 47.4391 29.042 48.6571C27.6967 51.6972 27.6527 55.0726 28.9181 58.1614C30.19 61.2664 32.6275 63.6994 35.7815 65.0122C37.3665 65.672 39.0452 66.0053 40.7404 66.0053C41.6711 66.0053 42.6071 65.9047 43.5346 65.7025C43.7586 65.6537 43.9494 65.5113 44.0559 65.3131C44.1626 65.1149 44.1745 64.881 44.0884 64.6737C43.4285 63.0826 43.2547 61.3818 43.5863 59.7548ZM36.3949 63.6111C33.6259 62.4585 31.4857 60.3224 30.369 57.5963C29.2588 54.8863 29.297 51.926 30.4765 49.2604C30.6128 48.9524 30.7637 48.6533 30.9259 48.3614C30.9272 48.6107 30.9324 48.8599 30.9451 49.1087C31.0723 51.5962 31.7416 53.9683 32.9334 56.1706L32.4651 58.4351C32.3798 58.8475 32.6536 59.2491 33.0765 59.3322C33.1286 59.3424 33.1805 59.3474 33.2317 59.3474C33.5959 59.3474 33.9218 59.0976 33.9966 58.7362L34.132 58.0812C34.8191 59.0302 35.6015 59.9063 36.4696 60.6969C36.6202 60.8341 36.8116 60.9019 37.0026 60.9019C37.2115 60.9019 37.4198 60.8207 37.5737 60.6602C37.8682 60.3528 37.8514 59.8708 37.5361 59.5837C36.3915 58.5412 35.41 57.3352 34.6189 55.9993C33.9319 54.8392 33.4103 53.6241 33.054 52.365L35.327 53.1999C35.4177 53.2333 35.5108 53.249 35.6022 53.249C35.918 53.249 36.2154 53.0609 36.3333 52.7557C36.4853 52.3621 36.2815 51.9228 35.8777 51.7745L32.6676 50.5952C32.5875 50.0804 32.5323 49.5596 32.5054 49.0328C32.4628 48.1993 32.4921 47.3612 32.5884 46.5297C33.5656 46.6605 34.5221 46.9167 35.4402 47.2962C37.8228 48.2811 39.7935 50.053 40.9892 52.2853C42.1693 54.4883 42.5473 57.0355 42.0537 59.4579C41.7231 61.0807 41.817 62.7621 42.3223 64.3714C40.3082 64.6523 38.2758 64.394 36.3949 63.6111Z" fill="#69CCE5"/>
<path d="M67.9052 51.6404C67.5853 49.0562 66.4569 46.673 64.6418 44.7486C64.4864 44.5838 64.2629 44.4938 64.0353 44.5031C63.8059 44.5121 63.5923 44.619 63.4511 44.7954C62.3681 46.1481 60.9441 47.1452 59.3331 47.6788C56.5988 48.5845 54.2353 50.3995 52.6783 52.7895C51.0997 55.2125 50.4289 58.1187 50.7896 60.9726C50.9269 62.0594 51.2072 63.1141 51.624 64.1189C50.6291 64.4341 49.6027 64.6556 48.5645 64.7752C48.1361 64.8245 47.8299 65.2032 47.8805 65.6209C47.9274 66.0083 48.2648 66.2932 48.6552 66.2932C48.6858 66.2932 48.7168 66.2914 48.7479 66.2879C50.1088 66.131 51.4514 65.8144 52.7385 65.3535C53.5584 65.5136 54.3925 65.5949 55.2331 65.5949C55.7363 65.5949 56.2419 65.5661 56.7479 65.5085C60.1209 65.1243 63.1409 63.4738 65.2519 60.861C67.3739 58.2344 68.3162 54.9598 67.9052 51.6404ZM64.0247 59.9184C62.1726 62.2107 59.524 63.6587 56.5667 63.9955C56.2249 64.0344 55.8837 64.0566 55.5434 64.0657C55.7641 63.9399 55.9829 63.8109 56.1975 63.6758C58.3434 62.3247 60.1157 60.5735 61.4761 58.466L63.7216 57.7292C64.1304 57.595 64.3504 57.1631 64.2128 56.7644C64.0752 56.3659 63.6324 56.1512 63.2233 56.2855L62.5737 56.4987C63.0732 55.4441 63.46 54.3455 63.7283 53.2171C63.8258 52.8073 63.564 52.3981 63.1438 52.3031C62.7236 52.2081 62.3039 52.4633 62.2064 52.8731C61.8527 54.361 61.2722 55.7927 60.4812 57.1286C59.7942 58.2886 58.9757 59.3365 58.0355 60.267L57.6406 57.9302C57.5705 57.5152 57.1697 57.2343 56.7428 57.3025C56.3172 57.3709 56.0289 57.7628 56.0991 58.1778L56.6567 61.478C56.2394 61.803 55.8045 62.11 55.35 62.3962C54.631 62.8489 53.8719 63.2432 53.0851 63.5776C52.7127 62.6871 52.4621 61.7514 52.3402 60.7864C52.0237 58.282 52.6121 55.7321 53.9971 53.6063C55.3638 51.5084 57.4373 49.9156 59.8357 49.1211C61.4424 48.5889 62.889 47.6689 64.0657 46.4377C65.3226 47.9981 66.1092 49.8434 66.3542 51.8229C66.715 54.7373 65.8876 57.6123 64.0247 59.9184Z" fill="#69CCE5"/>
<path d="M40.4296 32.5711C40.861 32.5711 41.2107 32.2301 41.2107 31.8095C41.2107 31.3888 40.861 31.0479 40.4296 31.0479C39.9982 31.0479 39.6484 31.3888 39.6484 31.8095C39.6484 32.2301 39.9982 32.5711 40.4296 32.5711Z" fill="#69CCE5"/>
</g>
<defs>
<linearGradient id="paint0_linear_332_2220" x1="-6.18557e-06" y1="86.4995" x2="43.5881" y2="-18.3913" gradientUnits="userSpaceOnUse">
<stop stop-color="white"/>
<stop offset="1" stop-color="#69CCE5"/>
</linearGradient>
<clipPath id="clip0_332_2220">
<rect width="40" height="39" fill="white" transform="translate(28 28)"/>
</clipPath>
</defs>
</svg>
