<svg width="32" height="32" viewBox="0 0 32 32" fill="none" xmlns="http://www.w3.org/2000/svg">
<path d="M11.0607 6.64645L16 1.70711L20.9391 6.6462C21.1344 6.84146 21.1344 7.15805 20.9391 7.35331L16.3533 11.9391C16.158 12.1344 15.8415 12.1344 15.6462 11.9391L11.0607 7.35355C10.8654 7.15829 10.8654 6.84171 11.0607 6.64645Z" stroke="#3077DD"/>
<path d="M20.0607 15.6464L25 10.7071L29.9391 15.6462C30.1344 15.8415 30.1344 16.158 29.9391 16.3533L25.3533 20.9391C25.158 21.1344 24.8415 21.1344 24.6462 20.9391L20.0607 16.3536C19.8654 16.1583 19.8654 15.8417 20.0607 15.6464Z" stroke="#3077DD"/>
<path d="M11.0607 24.6464L16 19.7071L20.9391 24.6462C21.1344 24.8415 21.1344 25.158 20.9391 25.3533L16.3533 29.9391C16.158 30.1344 15.8415 30.1344 15.6462 29.9391L11.0607 25.3536C10.8654 25.1583 10.8654 24.8417 11.0607 24.6464Z" stroke="#3077DD"/>
<path d="M2.06066 15.6464L7 10.7071L11.9391 15.6462C12.1344 15.8415 12.1344 16.158 11.9391 16.3533L7.35331 20.9391C7.15805 21.1344 6.84146 21.1344 6.6462 20.9391L2.06066 16.3536C1.8654 16.1583 1.8654 15.8417 2.06066 15.6464Z" stroke="#3077DD"/>
</svg>
