<svg width="95" height="93" viewBox="0 0 95 93" fill="none" xmlns="http://www.w3.org/2000/svg">
<path d="M2.07708 45.2435L12.493 26.7395L23.6904 8.5989C24.1477 7.85812 24.9498 7.40027 25.8202 7.38327L47.5 6.95988L69.1798 7.38327C70.0502 7.40027 70.8523 7.85812 71.3096 8.59889L82.507 26.7395L92.9229 45.2435C93.3621 46.0236 93.3621 46.9764 92.9229 47.7565L82.5069 66.2606L71.3096 84.4011C70.8523 85.1419 70.0502 85.5997 69.1798 85.6167L47.5 86.0401L25.8202 85.6167C24.9498 85.5997 24.1477 85.1419 23.6904 84.4011L12.4931 66.2605L2.07708 47.7565C1.63794 46.9764 1.63794 46.0236 2.07708 45.2435Z" fill="#F8FEFF" stroke="url(#paint0_linear_332_2222)" stroke-width="2.3873"/>
<path d="M25.6831 53.5105L30.2645 45.6782C30.4157 45.4198 30.6965 45.2603 31.0005 45.2603H38.184V39.349C38.184 38.8898 38.5639 38.5175 39.0325 38.5175H42.0961C42.5646 38.5175 42.9445 38.8898 42.9445 39.349C42.9445 39.8081 42.5646 40.1805 42.0961 40.1805H39.881V60.4284H54.2801C54.9338 59.6142 55.9473 59.0898 57.0839 59.0898C58.2205 59.0898 59.234 59.6142 59.8877 60.4284H62.731V57.3539H45.8197C45.3512 57.3539 44.9713 56.9815 44.9713 56.5224C44.9713 56.0632 45.3512 55.6909 45.8197 55.6909H62.731V48.2871C61.3358 48.9276 59.7802 49.2863 58.1404 49.2863C52.1523 49.2863 47.2807 44.5117 47.2807 38.6431C47.2807 32.7745 52.1523 28 58.1404 28C64.1284 28 69 32.7745 69 38.6431C69 42.2171 67.1932 45.3852 64.4278 47.3164V61.2598C64.4278 61.719 64.048 62.0913 63.5794 62.0913H60.615C60.6385 62.253 60.6514 62.4181 60.6514 62.5861C60.6514 64.514 59.051 66.0825 57.0839 66.0825C55.1168 66.0825 53.5164 64.514 53.5164 62.5861C53.5164 62.4181 53.5293 62.253 53.5528 62.0913H39.0325H35.6904C35.7139 62.253 35.7268 62.4181 35.7268 62.5861C35.7268 64.514 34.1264 66.0825 32.1593 66.0825C30.1922 66.0825 28.5918 64.514 28.5918 62.5861C28.5918 62.4181 28.6047 62.253 28.6282 62.0913H26.4191C25.9505 62.0913 25.5706 61.719 25.5706 61.2598V53.924C25.5706 53.779 25.6094 53.6364 25.6831 53.5105ZM67.3032 38.6431C67.3032 33.6914 63.1927 29.663 58.1404 29.663C53.088 29.663 48.9775 33.6914 48.9775 38.6431C48.9775 43.5949 53.088 47.6233 58.1404 47.6233C59.9591 47.6233 61.6557 47.1012 63.0825 46.202C63.1024 46.1878 63.1231 46.1746 63.1444 46.1621C65.6465 44.5571 67.3032 41.7864 67.3032 38.6431ZM57.0839 64.4195C58.1154 64.4195 58.9546 63.597 58.9546 62.5861C58.9546 61.5752 58.1154 60.7528 57.0839 60.7528C56.0524 60.7528 55.2132 61.5752 55.2132 62.5861C55.2132 63.597 56.0525 64.4195 57.0839 64.4195ZM27.8834 53.0926H34.3941V46.9233H31.492L27.8834 53.0926ZM32.1593 64.4195C33.1908 64.4195 34.03 63.597 34.03 62.5861C34.03 61.5752 33.1908 60.7528 32.1593 60.7528C31.1278 60.7528 30.2887 61.5752 30.2887 62.5861C30.2887 63.597 31.1278 64.4195 32.1593 64.4195ZM29.3555 60.4283C30.0092 59.6141 31.0227 59.0898 32.1593 59.0898C33.3121 59.0898 34.3384 59.6289 34.991 60.4629C35.0675 60.4406 35.1484 60.4282 35.2324 60.4282H38.184V46.9232H36.0909V53.924C36.0909 54.3832 35.7111 54.7555 35.2425 54.7555H27.2675V55.4625H27.87C28.3386 55.4625 28.7184 55.8349 28.7184 56.294C28.7184 56.7532 28.3386 57.1255 27.87 57.1255H27.2675V60.4283H29.3555Z" fill="#69CCE5"/>
<path d="M45.1164 40.1796C44.8933 40.1796 44.6744 40.0906 44.5166 39.9359C44.3588 39.7813 44.268 39.5668 44.268 39.3481C44.268 39.1293 44.3588 38.9149 44.5166 38.7602C44.6744 38.6056 44.8933 38.5166 45.1164 38.5166C45.3396 38.5166 45.5585 38.6055 45.7163 38.7602C45.8741 38.9149 45.9648 39.1286 45.9648 39.3481C45.9648 39.5668 45.8741 39.7813 45.7163 39.9359C45.5584 40.0905 45.3395 40.1796 45.1164 40.1796Z" fill="#69CCE5"/>
<path d="M42.425 57.3534C42.2019 57.3534 41.983 57.2653 41.8252 57.1106C41.6674 56.9551 41.5766 56.7406 41.5766 56.5219C41.5766 56.3032 41.6674 56.0887 41.8252 55.9341C41.983 55.7795 42.2019 55.6904 42.425 55.6904C42.6482 55.6904 42.867 55.7794 43.0249 55.9341C43.1827 56.0887 43.2734 56.3032 43.2734 56.5219C43.2734 56.7406 43.1827 56.9551 43.0249 57.1106C42.8671 57.2653 42.6482 57.3534 42.425 57.3534Z" fill="#69CCE5"/>
<path d="M58.1477 46.4462C57.6791 46.4462 57.2993 46.0738 57.2993 45.6147V45.0107C57.2993 44.5515 57.6791 44.1792 58.1477 44.1792C58.6163 44.1792 58.9961 44.5515 58.9961 45.0107V45.6147C58.9961 46.0738 58.6163 46.4462 58.1477 46.4462Z" fill="#69CCE5"/>
<path d="M58.136 33.1083C57.6674 33.1083 57.2876 32.736 57.2876 32.2768V31.6728C57.2876 31.2137 57.6674 30.8413 58.136 30.8413C58.6045 30.8413 58.9844 31.2137 58.9844 31.6728V32.2768C58.9844 32.736 58.6045 33.1083 58.136 33.1083Z" fill="#69CCE5"/>
<path d="M64.633 37.8022H65.2492C65.7178 37.8022 66.0977 38.1746 66.0977 38.6337C66.0977 39.0929 65.7178 39.4652 65.2492 39.4652H64.633C64.1645 39.4652 63.7846 39.0929 63.7846 38.6337C63.7846 38.1746 64.1645 37.8022 64.633 37.8022Z" fill="#69CCE5"/>
<path d="M58.1399 39.4746H51.6724C51.2039 39.4746 50.824 39.1023 50.824 38.6431C50.824 38.184 51.2039 37.8116 51.6724 37.8116H57.2915V35.9804C57.2915 35.5213 57.6713 35.1489 58.1399 35.1489C58.6084 35.1489 58.9883 35.5213 58.9883 35.9804V38.6431C58.9883 39.1024 58.6084 39.4746 58.1399 39.4746Z" fill="#69CCE5"/>
<defs>
<linearGradient id="paint0_linear_332_2222" x1="-6.18557e-06" y1="86.4995" x2="43.5881" y2="-18.3913" gradientUnits="userSpaceOnUse">
<stop stop-color="white"/>
<stop offset="1" stop-color="#69CCE5"/>
</linearGradient>
</defs>
</svg>
