<svg width="34" height="34" viewBox="0 0 34 34" fill="none" xmlns="http://www.w3.org/2000/svg">
<path d="M15.6279 1.30986C16.4821 0.839163 17.5179 0.839163 18.3721 1.30986L24.2034 4.52325L29.902 7.96666C30.7367 8.47105 31.2547 9.36811 31.2741 10.3432L31.4069 17L31.2741 23.6568C31.2547 24.6319 30.7367 25.5289 29.902 26.0333L24.2034 29.4767L18.3721 32.6901C17.5179 33.1608 16.4821 33.1608 15.6279 32.6901L9.79654 29.4767L4.09798 26.0333C3.26326 25.5289 2.74535 24.6319 2.72589 23.6568L2.5931 17L2.72589 10.3432C2.74535 9.36811 3.26326 8.47105 4.09798 7.96666L9.79654 4.52326L15.6279 1.30986Z" stroke="#00D3D3" stroke-width="0.97"/>
</svg>
