<svg width="1920" height="225" viewBox="0 0 1920 225" fill="none" xmlns="http://www.w3.org/2000/svg">
<path fill-rule="evenodd" clip-rule="evenodd" d="M1920 15.5444C1881.81 19.3355 1843.54 21.9126 1804.99 22.5806C1770.67 23.175 1739.82 18.3901 1705.55 13.0742C1625.92 0.722762 1527.81 -14.4947 1324.87 28.2416C1092.64 77.1452 910.318 62.5964 848.184 49.209C760.129 33.1775 540.696 13.4094 367.398 62.5897C194.099 111.77 51.7717 130.471 2.27032 133.674L0 207.291C22.4216 206.104 45.2593 206.16 67.0484 208.167C76.7298 209.058 86.3756 209.961 95.9933 210.861L96.1526 210.876L96.1533 210.876C185.207 219.21 271.836 227.317 361.733 224.388C392.484 223.387 426.179 216.938 465.561 209.4C553.811 192.51 670.62 170.154 846.857 191.377C1048.57 215.667 1254.65 177.666 1309.6 164.243C1327.3 160.453 1349.49 153.788 1374.98 146.133L1374.98 146.133C1461.47 120.154 1585.92 82.777 1701.3 107.703C1785.71 125.938 1861.9 136.751 1920 142.795V15.5444Z" fill="url(#paint0_linear_300_2285)" fill-opacity="0.6"/>
<defs>
<linearGradient id="paint0_linear_300_2285" x1="1.60509e-08" y1="173" x2="1813.29" y2="128.596" gradientUnits="userSpaceOnUse">
<stop offset="0.035" stop-color="#E8F785"/>
<stop offset="0.495" stop-color="#C6F1F9"/>
<stop offset="0.975" stop-color="#69CCE5"/>
</linearGradient>
</defs>
</svg>
