<svg width="1921" height="450" viewBox="0 0 1921 450" fill="none" xmlns="http://www.w3.org/2000/svg">
<path fill-rule="evenodd" clip-rule="evenodd" d="M1920.12 31.9773C1881.92 39.5442 1843.65 44.6881 1805.09 46.0214C1770.78 47.2078 1739.93 37.6581 1705.66 27.0489C1626.03 2.3985 1527.92 -27.9718 1324.98 57.3195C1092.75 154.919 910.427 125.883 848.293 99.1654C760.239 67.1703 540.806 27.718 367.507 125.87C194.208 224.022 51.8813 261.345 2.38006 267.737L0.109375 414.658C22.5311 412.289 45.3689 412.4 67.158 416.405C76.8081 418.179 86.4225 419.974 96.0096 421.765L96.1519 421.791L96.2621 421.812C185.317 438.445 271.945 454.625 361.843 448.78C392.593 446.78 426.288 433.91 465.67 418.868L465.67 418.867C553.92 385.159 670.729 340.541 846.966 382.897C1048.68 431.374 1254.76 355.534 1309.71 328.745C1327.41 321.181 1349.6 307.879 1375.08 292.603L1375.09 292.601C1461.58 240.753 1586.02 166.158 1701.41 215.904C1785.82 252.298 1862.02 273.879 1920.12 285.941V31.9773Z" fill="url(#paint0_linear_435_2125)" fill-opacity="0.3"/>
<defs>
<linearGradient id="paint0_linear_435_2125" x1="2027.67" y1="225.619" x2="123.507" y2="254.091" gradientUnits="userSpaceOnUse">
<stop stop-color="#C6F1F9"/>
<stop offset="0.975" stop-color="#69CCE5"/>
</linearGradient>
</defs>
</svg>
