<svg width="1918" height="618" viewBox="0 0 1918 618" fill="none" xmlns="http://www.w3.org/2000/svg">
<path d="M0 579.996C38.1918 570.728 76.4584 564.427 115.013 562.794C149.324 561.341 180.173 573.039 214.444 586.035L214.445 586.036C294.078 616.233 392.187 653.437 595.128 548.954C827.355 429.393 1009.68 464.963 1071.82 497.692C1159.87 536.887 1379.3 585.216 1552.6 464.979C1725.9 344.742 1868.23 299.021 1917.73 291.19V0L1801 46.5C1671.5 94.5 1648.16 62.2465 1558.26 69.4073C1527.51 71.8568 1493.82 87.623 1454.44 106.05C1366.19 147.344 1249.38 202.001 1073.14 150.115C871.43 90.7299 665.344 183.635 610.392 216.452C592.697 225.718 570.506 242.014 545.019 260.729C458.524 324.243 334.081 415.623 218.698 354.682C134.292 310.103 58.0989 283.666 0 268.89V579.996Z" fill="url(#paint0_linear_277_4388)" fill-opacity="0.2"/>
<defs>
<linearGradient id="paint0_linear_277_4388" x1="-44.5" y1="468" x2="1969.31" y2="329.597" gradientUnits="userSpaceOnUse">
<stop offset="0.035" stop-color="#E8F785"/>
<stop offset="0.495" stop-color="#C6F1F9"/>
<stop offset="0.975" stop-color="#69CCE5"/>
</linearGradient>
</defs>
</svg>
