<svg width="1040" height="180" viewBox="0 0 1040 180" fill="none" xmlns="http://www.w3.org/2000/svg">
<path d="M937.188 79.3819C967.559 76.97 1002.51 74.1941 1040 72V180H0V85.3655L16.6211 84.6258C106.371 80.6072 225.16 75.2886 402.266 85.2028C604.973 96.5496 814.496 87.6366 870.492 84.1861C888.504 83.2487 911.164 81.4491 937.188 79.3819Z" fill="#F8FEFF"/>
<path d="M1040 73.2136C1002.51 76.9271 967.559 81.6253 937.189 85.7076C911.164 89.2059 888.502 92.2519 870.493 93.8385C814.497 99.6784 604.973 114.763 402.268 95.5589C225.161 78.78 106.372 87.7815 16.6253 94.5822C10.9707 95.0107 5.43134 95.4304 0 95.8345V3.49727C32.2134 1.41611 65.0008 0.329048 97.4417 0H141.484C253.189 1.09386 355.522 10.1464 409.083 17.0522C471.297 26.2301 654.808 39.4965 891.143 19.138C948.443 14.202 997.425 11.4992 1040 10.3648V73.2136Z" fill="url(#paint0_linear_310_2364)"/>
<defs>
<linearGradient id="paint0_linear_310_2364" x1="1098.26" y1="52.5331" x2="67.8459" y2="88.2236" gradientUnits="userSpaceOnUse">
<stop offset="0.035" stop-color="#E8F785"/>
<stop offset="0.495" stop-color="#C6F1F9"/>
<stop offset="0.975" stop-color="#69CCE5"/>
</linearGradient>
</defs>
</svg>
