<svg width="35" height="19" viewBox="0 0 35 19" fill="none" xmlns="http://www.w3.org/2000/svg">
<path d="M34.3964 19H0.603474C0.270224 19 0 18.7761 0 18.5V0.500022C0 0.2239 0.270224 0 0.603474 0H34.3965C34.7297 0 34.9999 0.2239 34.9999 0.500022V18.5C34.9999 18.7761 34.7296 19 34.3964 19Z" fill="#4C72C3"/>
<path d="M34.9999 0.500022C34.9999 0.2239 34.7296 0 34.3964 0H31.6965L20.5171 6.06886V0H14.4826V6.06886L3.30325 0H0.603474C0.270224 0 0 0.2239 0 0.500022V1.79318L9.5914 6.99997H0V12H9.5914L0 17.2068V18.5C0 18.7761 0.270224 19 0.603474 19H3.30332L14.4828 12.9311V19H20.5172V12.9311L31.6967 19H34.3965C34.7298 19 35 18.7761 35 18.5V17.2068L25.4086 12H34.9999V7.00003H25.4085L34.9999 1.79318V0.500022Z" fill="white"/>
<path d="M34.9999 8.00002H19.3103V0H15.6896V8.00002H0V11H15.6896V19H19.3103V11H34.9999V8.00002Z" fill="#F9685D"/>
<path d="M12.2313 12L0.015625 18.5701C0.0583494 18.8116 0.298632 19 0.601941 19H1.43312L14.448 12.0001H12.2313V12Z" fill="#F9685D"/>
<path d="M23.6777 12H21.4609L34.4569 18.9897C34.7598 18.9629 34.9988 18.758 34.9988 18.5V18.0889L23.6777 12Z" fill="#F9685D"/>
<path d="M0 1.05204L11.0591 7.00009H13.2758L0.351571 0.0488281C0.145126 0.128295 0 0.299066 0 0.500083V1.05204Z" fill="#F9685D"/>
<path d="M22.7324 6.99997L34.9773 0.413985C34.9265 0.180513 34.6913 0 34.3948 0H33.5303L20.5156 6.99997H22.7324Z" fill="#F9685D"/>
</svg>
