<svg width="264" height="69" viewBox="0 0 264 69" fill="none" xmlns="http://www.w3.org/2000/svg">
<path d="M94.0432 38.7005C94.0767 38.801 94.0767 38.935 94.0767 39.0355C94.0767 39.404 93.9427 39.7055 93.7082 39.9401C93.4402 40.1746 93.1387 40.2751 92.7701 40.2751C92.3681 40.2751 92.0331 40.0406 91.6981 39.5715L89.4534 36.3218H78.7997L76.5551 39.5715C76.4881 39.7055 76.421 39.806 76.354 39.8731C76.1865 40.0406 76.019 40.1076 75.7845 40.1076C75.3155 40.1076 74.9469 39.9401 74.7124 39.605C74.6119 39.4375 74.5449 39.3035 74.5449 39.1695C74.5449 39.069 74.5449 39.002 74.5784 38.935L82.552 26.7402C82.887 26.2042 83.423 25.9696 84.0931 26.0031C84.8971 26.0366 85.3996 26.2712 85.5672 26.7402L94.0432 38.7005ZM87.9793 34.2447L84.1601 28.5828L80.3073 34.2447H87.9793ZM106.205 30.2244C106.205 30.8275 105.903 31.0955 105.3 31.0955H100.04C99.1691 31.0955 98.566 31.129 98.298 31.2295C97.6615 31.397 97.3599 31.8325 97.3599 32.4691V39.1025C97.3599 39.7055 97.0584 40.0071 96.4889 40.0071H95.8188C95.2158 40.0071 94.9478 39.7055 94.9478 39.1025V32.5026C94.9478 31.33 95.3833 30.4254 96.2544 29.7889C96.6564 29.5209 97.1589 29.3199 97.762 29.2193C98.231 29.1523 99.0686 29.1188 100.208 29.1188H105.333C105.937 29.1188 106.238 29.4204 106.238 30.0234V30.2244H106.205ZM122.353 36.5228C122.353 38.7675 120.61 39.9066 117.16 39.9066H109.689V42.1177C109.689 42.7207 109.387 42.9888 108.818 42.9888H108.181C107.578 42.9888 107.31 42.6872 107.31 42.1177V32.3351C107.31 30.995 107.947 30.0904 109.186 29.5879C109.99 29.2529 111.196 29.0853 112.804 29.0853H116.624C120.476 29.0853 122.386 30.1574 122.386 32.3016V36.5228H122.353ZM119.907 36.5228V32.3016C119.907 31.732 119.471 31.3635 118.567 31.1625C118.198 31.0955 117.528 31.062 116.59 31.062H112.838C110.727 31.062 109.655 31.4975 109.655 32.3351V37.8629H117.126C119.002 37.8964 119.907 37.4274 119.907 36.5228ZM139.07 36.5898C139.07 37.8629 138.434 38.7675 137.161 39.3705C136.29 39.7725 135.15 39.9736 133.743 39.9736H129.757C127.177 39.9736 125.468 39.337 124.664 38.0639C124.363 37.5949 124.195 37.1259 124.195 36.5898V32.5696C124.195 31.6985 124.597 30.928 125.435 30.2579C126.44 29.4539 127.88 29.0518 129.757 29.0518H133.743C137.295 29.0518 139.07 30.2244 139.07 32.5361V36.5898ZM136.625 36.5898V32.4021C136.625 31.531 135.653 31.0955 133.676 31.0955H129.79C129.087 31.0955 128.45 31.196 127.88 31.3635C127.043 31.6315 126.607 32.0335 126.607 32.5696V36.5898C126.607 37.1259 127.043 37.4944 127.914 37.7289C128.484 37.8964 129.12 37.9634 129.824 37.9634H133.71C134.313 37.9634 134.916 37.8629 135.485 37.6954C136.256 37.4609 136.625 37.0924 136.625 36.5898ZM147.814 26.1371H151.299C152.84 26.1371 153.878 26.2041 154.481 26.3047C156.96 26.7737 158.2 27.9128 158.2 29.7889V39.1025C158.2 39.7055 157.898 39.9736 157.329 39.9736H156.592C155.989 39.9736 155.687 39.672 155.687 39.1025V29.7889C155.687 29.0518 155.084 28.5828 153.912 28.3483C152.672 28.2478 151.835 28.2143 151.332 28.2143H147.814C146.575 28.2143 145.704 28.2478 145.235 28.3483C144.062 28.5493 143.459 29.0518 143.459 29.7889V39.1025C143.459 39.7055 143.157 39.9736 142.554 39.9736H141.817C141.214 39.9736 140.946 39.672 140.946 39.1025V29.7889C140.946 27.9798 142.186 26.8072 144.665 26.3047C145.168 26.1706 146.24 26.1371 147.814 26.1371ZM174.918 36.5898C174.918 37.8629 174.281 38.7675 173.008 39.3705C172.137 39.7725 170.998 39.9736 169.591 39.9736H165.604C163.024 39.9736 161.316 39.337 160.512 38.0639C160.21 37.5949 160.043 37.1259 160.043 36.5898V32.5696C160.043 31.6985 160.445 30.928 161.282 30.2579C162.287 29.4539 163.728 29.0518 165.604 29.0518H169.591C173.142 29.0518 174.918 30.2244 174.918 32.5361V36.5898ZM172.472 36.5898V32.4021C172.472 31.531 171.5 31.0955 169.524 31.0955H165.637C164.934 31.0955 164.297 31.196 163.728 31.3635C162.89 31.6315 162.455 32.0335 162.455 32.5696V36.5898C162.455 37.1259 162.89 37.4944 163.761 37.7289C164.331 37.8964 164.967 37.9634 165.671 37.9634H169.557C170.16 37.9634 170.763 37.8629 171.333 37.6954C172.07 37.4609 172.472 37.0924 172.472 36.5898ZM193.143 38.4995C193.344 38.7675 193.444 39.002 193.444 39.2365C193.444 39.7055 193.109 39.9736 192.439 39.9736H191.769C191.468 39.9736 191.267 39.8731 191.066 39.6385L184.6 31.4975L178.1 39.6385C177.933 39.8396 177.698 39.9736 177.397 39.9736H176.727C176.057 39.9736 175.722 39.739 175.722 39.2365C175.722 39.002 175.822 38.7675 176.023 38.4995L183.494 29.2529C183.729 28.9513 184.097 28.8173 184.6 28.8173C185.102 28.8173 185.471 28.9848 185.739 29.2864L193.143 38.4995ZM195.521 39.9736C194.851 39.9736 194.516 39.7055 194.516 39.1695V29.9899C194.516 29.3869 194.818 29.0853 195.421 29.0853H196.024C196.627 29.0853 196.929 29.3869 196.929 29.9899V36.9584L207.448 29.2864C207.616 29.1523 207.783 29.1188 207.984 29.1188H208.721C209.391 29.1188 209.726 29.3869 209.726 29.9229V39.136C209.726 39.739 209.425 40.0406 208.822 40.0406H208.219C207.616 40.0406 207.314 39.739 207.314 39.136V32.067L196.795 39.7725C196.627 39.8731 196.46 39.9401 196.292 39.9401H195.521V39.9736ZM214.852 29.8224L221.084 37.0924L227.315 29.8224C227.751 29.3199 228.253 29.0853 228.89 29.0853H229.158C229.526 29.0853 229.828 29.2529 230.062 29.5544C230.263 29.8224 230.397 30.1574 230.397 30.5259V39.1025C230.397 39.7055 230.096 40.0071 229.493 40.0071H228.89C228.287 40.0071 227.985 39.7055 227.985 39.1025V32.9046L222.457 39.203C221.988 39.739 221.519 40.0071 221.084 40.0071C220.615 40.0071 220.179 39.739 219.71 39.203L214.182 32.9046V39.1025C214.182 39.7055 213.881 40.0071 213.278 40.0071H212.675C212.072 40.0071 211.77 39.7055 211.77 39.1025V30.3249C211.77 30.0234 211.904 29.7554 212.139 29.4874C212.407 29.2193 212.675 29.1188 212.976 29.1188H213.244C213.914 29.0853 214.45 29.3199 214.852 29.8224ZM247.215 34.7137C247.215 35.3838 246.981 35.7188 246.545 35.7188H234.619C234.619 37.2264 235.657 37.9634 237.734 37.9634H239.51C240.113 37.9634 240.381 38.2649 240.381 38.868V39.069C240.381 39.672 240.079 39.9736 239.51 39.9736H237.969C236.428 39.9736 235.188 39.7725 234.217 39.3705C232.843 38.801 232.139 37.8629 232.139 36.5228V32.5026C232.139 31.2295 232.843 30.3249 234.217 29.7219C235.222 29.2864 236.461 29.0518 237.902 29.0518H242.391C243.597 29.0518 244.636 29.2528 245.507 29.6549C246.646 30.1909 247.215 30.995 247.215 32.067V34.7137ZM244.904 33.6081V32.2681C244.904 31.866 244.435 31.531 243.53 31.33C242.894 31.1625 242.257 31.0955 241.688 31.0955H238.203C235.791 31.0955 234.585 31.531 234.585 32.3686V33.6081H244.904ZM264 36.5228C264 38.7675 262.258 39.9066 258.807 39.9066H251.336V42.1177C251.336 42.7207 251.035 42.9888 250.465 42.9888H249.829C249.226 42.9888 248.957 42.6872 248.957 42.1177V32.3351C248.957 30.995 249.594 30.0904 250.834 29.5879C251.638 29.2529 252.844 29.0853 254.452 29.0853H258.238C262.09 29.0853 264 30.1574 264 32.3016V36.5228ZM261.588 36.5228V32.3016C261.588 31.732 261.152 31.3635 260.248 31.1625C259.879 31.0955 259.209 31.062 258.271 31.062H254.519C252.408 31.062 251.336 31.4975 251.336 32.3351V37.8629H258.807C260.65 37.8964 261.588 37.4274 261.588 36.5228Z" fill="#E3EAF4"/>
<path d="M1.57657 49.6872L6.41762 48.3884C6.24051 47.9751 6.0634 47.5618 5.9158 47.1486C5.35495 45.466 5.35495 43.5768 5.35495 39.7984V29.2308C5.35495 25.4524 5.35495 23.5632 5.9158 21.8806C6.3881 20.3752 7.1851 19.0173 8.24777 17.8366C9.16285 16.8034 10.3731 16.0064 12.3804 14.8257C9.75323 14.8552 7.09655 15.2094 4.49891 15.9179C4.05613 16.0359 3.58383 16.1835 3.14105 16.3016C2.31453 17.5119 1.69464 18.8107 1.22234 20.1981C0.484375 22.5005 0.484375 25.0982 0.484375 30.2639V38.7948C0.484375 43.9606 0.484375 46.5287 1.22234 48.8607C1.36993 49.1263 1.45849 49.4215 1.57657 49.6872Z" fill="url(#paint0_linear_426_2055)"/>
<path d="M0.75 22.6777C0.868074 21.7626 1.01567 20.9361 1.28134 20.1686C1.96026 18.1318 3.02293 16.2426 4.46934 14.6486C6.09287 12.848 8.33629 11.5492 12.7936 8.98104L20.2028 4.70084C24.6896 2.13272 26.9035 0.833901 29.2945 0.332084C31.3903 -0.110695 33.5747 -0.110695 35.6705 0.332084C38.0615 0.833901 40.2754 2.13272 44.7623 4.70084L52.1714 8.98104C56.6583 11.5787 58.8722 12.848 60.4957 14.6486C61.4403 15.7113 62.2373 16.8625 62.8572 18.1318C62.3258 21.7331 61.2041 25.1572 59.5806 28.2862C59.5806 25.1277 59.5216 23.4156 59.0198 21.8807C58.5475 20.3752 57.7504 19.0174 56.6878 17.8366C55.507 16.5083 53.854 15.5637 50.607 13.6745L41.4562 8.39067C38.1796 6.50148 36.5561 5.55688 34.8145 5.20266C33.2795 4.87795 31.6855 4.87795 30.1505 5.20266C28.4089 5.5864 26.7854 6.50148 23.5089 8.39067L14.3581 13.6745C11.0815 15.5637 9.45799 16.5083 8.27725 17.8366C7.21458 19.0174 6.41757 20.3752 5.94527 21.8807C5.38442 23.5632 5.38442 25.4524 5.38442 29.2308V32.1236C3.34764 29.2899 1.75363 26.1018 0.75 22.6777Z" fill="url(#paint1_linear_426_2055)"/>
<path d="M19.1699 58.0991L23.5092 60.6082C26.7857 62.4974 28.4092 63.442 30.1508 63.7962C31.6858 64.1209 33.2798 64.1209 34.8148 63.7962C36.5564 63.4125 38.1799 62.4974 41.4565 60.6082L50.6073 55.3244C53.8838 53.4352 55.5073 52.4906 56.6881 51.1622C57.7508 49.9815 58.5478 48.6236 59.0201 47.1182C59.5809 45.4356 59.5809 43.5464 59.5809 39.7681V29.2004C59.5809 25.422 59.5809 23.5328 59.0201 21.8503C58.5478 20.3448 57.7508 18.9869 56.6881 17.8062C55.5073 16.4779 53.8543 15.5333 50.6073 13.6441L48.4819 12.4043C51.0205 12.4633 53.6182 12.8176 56.1863 13.4965C57.8688 13.9393 59.4924 14.5296 61.0273 15.2086C62.2081 16.655 63.1231 18.3375 63.684 20.1382C64.422 22.4406 64.422 25.0383 64.422 30.204V38.7349C64.422 43.9007 64.422 46.4688 63.684 48.8008C63.0051 50.8375 61.9424 52.7267 60.496 54.3207C58.8725 56.1214 56.629 57.4202 52.1717 59.9883L44.7626 64.2685C40.2757 66.8662 38.0618 68.1355 35.6708 68.6373C33.575 69.0801 31.3906 69.0801 29.2948 68.6373C28.2617 68.4011 27.2285 68.0469 26.0478 67.486C23.1845 64.8294 20.8525 61.6414 19.1699 58.0991Z" fill="url(#paint2_linear_426_2055)"/>
<path d="M35.9061 68.6389C37.6182 66.8383 39.1236 64.831 40.3929 62.6171C40.7767 61.9677 41.1309 61.2888 41.4556 60.6099C38.179 62.4991 36.5555 63.4437 34.8139 63.7979C33.279 64.1226 31.6849 64.1226 30.15 63.7979C28.4084 63.4141 26.7849 62.4991 23.5083 60.6099L14.3575 55.326C11.0809 53.4368 9.45742 52.4922 8.27668 51.1639C7.53871 50.3374 6.91882 49.3928 6.44653 48.3892L1.60547 49.688C2.2844 51.4001 3.25851 52.9941 4.49829 54.3519C6.12182 56.1526 8.36524 57.4514 12.8225 60.0195L20.2317 64.2997C24.7185 66.8973 26.9324 68.1666 29.3235 68.6685C31.4193 69.1112 33.6037 69.1112 35.6995 68.6685C35.7585 68.698 35.8176 68.6684 35.9061 68.6389Z" fill="url(#paint3_linear_426_2055)"/>
<path d="M24.9265 9.36396C27.6717 7.76995 29.0591 6.97295 30.5055 6.67777C31.8043 6.4121 33.1327 6.4121 34.4315 6.67777C35.9074 7.00247 37.2653 7.76995 40.0105 9.36396L50.4601 15.3858C53.2053 16.9798 54.5927 17.7768 55.5964 18.869C56.4819 19.8431 57.1608 21.0238 57.5741 22.2636C58.0464 23.6805 58.0464 25.2745 58.0464 28.4625V40.5356C58.0464 43.7236 58.0464 45.3176 57.5741 46.7345C57.1608 48.0038 56.4819 49.1551 55.5964 50.1292C54.5927 51.2509 53.2053 52.0479 50.4601 53.6124L40.0105 59.6342C37.2653 61.2282 35.8779 62.0252 34.4315 62.3204C33.1327 62.586 31.8043 62.586 30.5055 62.3204C29.0296 61.9957 27.6717 61.2282 24.9265 59.6342L14.4769 53.6124C11.7317 52.0184 10.3443 51.2214 9.34067 50.1292C8.45511 49.1551 7.77618 47.9743 7.36292 46.7345C6.89062 45.3176 6.89063 43.7236 6.89063 40.5356V28.4625C6.89063 25.2745 6.89062 23.6805 7.36292 22.2636C7.77618 20.9943 8.45511 19.8431 9.34067 18.869C10.3443 17.7473 11.7317 16.9502 14.4769 15.3858L24.9265 9.36396Z" fill="#9CC8DF"/>
<path d="M17.3124 23.4456L13.9473 21.0546C15.2756 19.1654 16.8991 17.5124 18.7293 16.125L21.2384 19.4311C19.7329 20.5528 18.4046 21.9107 17.3124 23.4456Z" fill="#C8EBCC"/>
<path d="M48.125 24.1531L51.6082 21.9097C52.848 23.8284 53.8221 25.9832 54.442 28.2562L50.457 29.3484C49.9256 27.4592 49.1286 25.7176 48.125 24.1531Z" fill="#C8EBCC"/>
<path d="M13.3824 46.529L16.8656 44.2856C15.8324 42.6916 15.065 40.95 14.5631 39.0903L10.5781 40.1825C11.1685 42.4555 12.1131 44.6103 13.3824 46.529Z" fill="#C8EBCC"/>
<path d="M39.4783 51.458C38.5632 51.8417 37.6186 52.1369 36.6445 52.3436L37.5596 56.3581C38.7404 56.0924 39.9211 55.7087 41.0133 55.2659L39.4783 51.458Z" fill="#E3F286"/>
<path d="M55.0916 31.7998C55.1801 32.5968 55.2097 33.4233 55.2097 34.2203H51.0771C51.0771 33.5414 51.0475 32.892 50.959 32.2426L55.0916 31.7998Z" fill="#6368C0"/>
<path d="M9.87003 36.6407C9.78148 35.8437 9.75195 35.0172 9.75195 34.2202H13.8846C13.8846 34.8991 13.9141 35.5486 14.0026 36.198L9.87003 36.6407Z" fill="#6368C0"/>
<path d="M14.5358 29.3485L10.5508 28.2564C11.0526 26.4557 11.761 24.7141 12.6466 23.1201L16.2479 25.1274C15.5099 26.4557 14.9195 27.8431 14.5358 29.3485Z" fill="#7AC600"/>
<path d="M54.4178 40.1825L50.4328 39.0903C50.0195 40.5663 49.4587 41.9832 48.7207 43.282L52.322 45.2892C53.2075 43.7248 53.916 42.0127 54.4178 40.1825Z" fill="#7AC600"/>
<path d="M25.4864 16.9799L23.9219 13.1425C25.0436 12.6997 26.1948 12.316 27.3756 12.0503L28.2906 16.0648C27.3165 16.301 26.3719 16.6257 25.4864 16.9799Z" fill="#DEEBF3"/>
<path d="M43.7598 19.4304L46.2688 16.1538C47.5381 17.1279 48.6894 18.2201 49.752 19.4304L46.6231 22.1166C45.7375 21.1129 44.7929 20.2274 43.7598 19.4304Z" fill="#DEEBF3"/>
<path d="M18.6959 52.2845L21.205 49.008C20.1718 48.211 19.2272 47.3254 18.3712 46.3218L15.2422 49.008C16.2753 50.2182 17.4266 51.3104 18.6959 52.2845Z" fill="#DEEBF3"/>
<path d="M30.9458 15.6824C31.4476 15.6528 31.9789 15.6233 32.4808 15.6233C35.0194 15.6233 37.4399 16.1251 39.6538 17.0402L41.2478 13.2323C38.5616 12.1106 35.6097 11.4907 32.5103 11.4907C31.8609 11.4907 31.241 11.5202 30.6211 11.5793L30.9458 15.6824Z" fill="#EFF491"/>
<path d="M51.0196 47.3851L47.6545 44.9941C46.5623 46.5291 45.234 47.887 43.7285 49.0382L46.2376 52.3443C48.0678 50.9274 49.6618 49.2743 51.0196 47.3851Z" fill="#EFF491"/>
<path d="M34.3728 56.8608C33.7529 56.9199 33.133 56.9494 32.4836 56.9494C29.3841 56.9494 26.4323 56.3295 23.7461 55.2078L25.3401 51.3999C27.554 52.315 29.9745 52.8168 32.5131 52.8168C33.0445 52.8168 33.5463 52.7873 34.0481 52.7578L34.3728 56.8608Z" fill="#EFF491"/>
<path d="M32.4832 47.2087C39.0068 47.2087 44.2907 43.1057 44.2907 38.058C44.2907 36.523 44.025 35.1061 43.228 33.7778C39.4496 27.6084 37.1472 24.7451 32.4832 18.5757C27.8193 24.7451 25.5168 27.6084 21.7385 33.7778C20.9119 35.1061 20.6758 36.523 20.6758 38.058C20.6758 43.1057 25.9596 47.2087 32.4832 47.2087Z" fill="white"/>
<path d="M28.9415 38.3521C28.9415 38.5587 28.8234 38.6768 28.6168 38.6768H28.3806C28.174 38.6768 28.0559 38.5587 28.0559 38.3521V36.64H23.8348V38.3521C23.8348 38.5587 23.7167 38.6768 23.5101 38.6768H23.2444C23.0378 38.6768 22.9492 38.5587 22.9492 38.3521V34.1604C22.9492 33.9538 23.0378 33.8652 23.2444 33.8652H23.5101C23.7167 33.8652 23.8348 33.9538 23.8348 34.1604V35.9315H28.0855V34.1604C28.0855 33.9538 28.2035 33.8652 28.4102 33.8652H28.6463C28.8529 33.8652 28.971 33.9538 28.971 34.1604V38.3521H28.9415ZM31.9819 33.8652H33.1922C33.7235 33.8652 34.0777 33.8948 34.2844 33.9243C35.1404 34.0719 35.5832 34.4851 35.5832 35.1345V38.3816C35.5832 38.5882 35.4946 38.6768 35.288 38.6768H35.0223C34.8157 38.6768 34.6976 38.5882 34.6976 38.3816V35.1345C34.6976 34.8689 34.491 34.7213 34.0777 34.6327C33.6645 34.6032 33.3693 34.5737 33.1922 34.5737H31.9819C31.5391 34.5737 31.244 34.6032 31.0964 34.6327C30.6831 34.7213 30.4765 34.8689 30.4765 35.1345V38.3816C30.4765 38.5882 30.3584 38.6768 30.1518 38.6768H29.8861C29.6795 38.6768 29.5909 38.5882 29.5909 38.3816V35.1345C29.5909 34.5146 30.0337 34.1014 30.8897 33.9243C31.0668 33.8948 31.4506 33.8652 31.9819 33.8652ZM42.0478 37.3779C42.0478 38.234 41.3098 38.6768 39.8339 38.6768H38.476C37.4133 38.6768 36.7344 38.4406 36.4097 37.9683C36.2916 37.7912 36.2326 37.6141 36.2326 37.3779V35.1641C36.2326 34.308 36.9706 33.8652 38.4465 33.8652H39.8044C40.4833 33.8652 40.9556 33.9243 41.2803 34.0423C41.7821 34.249 42.0478 34.6032 42.0478 35.1641V37.3779ZM41.1622 37.3779V35.1936C41.1622 34.7803 40.7194 34.5737 39.8339 34.5737H38.4465C37.5609 34.5737 37.1182 34.7803 37.1182 35.1936V37.3779C37.1182 37.7617 37.5609 37.9683 38.4465 37.9683H39.8339C40.7194 37.9683 41.1622 37.7617 41.1622 37.3779Z" fill="#6285C3"/>
<defs>
<linearGradient id="paint0_linear_426_2055" x1="2.69916" y1="16.3937" x2="19.2013" y2="77.9816" gradientUnits="userSpaceOnUse">
<stop stop-color="white"/>
<stop offset="1" stop-color="#7797CB"/>
</linearGradient>
<linearGradient id="paint1_linear_426_2055" x1="0.600636" y1="16.0574" x2="64.3609" y2="16.0574" gradientUnits="userSpaceOnUse">
<stop stop-color="#7797CB"/>
<stop offset="1" stop-color="white"/>
</linearGradient>
<linearGradient id="paint2_linear_426_2055" x1="52.4018" y1="12.5327" x2="35.8994" y2="74.1203" gradientUnits="userSpaceOnUse">
<stop stop-color="#7797CB"/>
<stop offset="1" stop-color="white"/>
</linearGradient>
<linearGradient id="paint3_linear_426_2055" x1="27.0732" y1="75.8728" x2="10.5708" y2="14.2851" gradientUnits="userSpaceOnUse">
<stop stop-color="#7797CB"/>
<stop offset="1" stop-color="white"/>
</linearGradient>
</defs>
</svg>
