<svg width="139" height="38" viewBox="0 0 139 38" fill="none" xmlns="http://www.w3.org/2000/svg">
<path d="M49.1638 20.7308C49.1815 20.7839 49.1815 20.8547 49.1815 20.9079C49.1815 21.1027 49.1107 21.262 48.9867 21.386C48.8451 21.51 48.6857 21.5631 48.4909 21.5631C48.2784 21.5631 48.1013 21.4391 47.9242 21.1912L46.7377 19.4735H41.1064L39.9199 21.1912C39.8845 21.262 39.8491 21.3152 39.8137 21.3506C39.7251 21.4391 39.6366 21.4745 39.5126 21.4745C39.2647 21.4745 39.0699 21.386 38.946 21.2089C38.8928 21.1204 38.8574 21.0495 38.8574 20.9787C38.8574 20.9256 38.8574 20.8902 38.8751 20.8547L43.0898 14.4088C43.2669 14.1255 43.5502 14.0015 43.9044 14.0192C44.3294 14.0369 44.595 14.1609 44.6835 14.4088L49.1638 20.7308ZM45.9586 18.3755L43.9398 15.3828L41.9033 18.3755H45.9586ZM55.592 16.2505C55.592 16.5693 55.4326 16.7109 55.1139 16.7109H52.3336C51.8732 16.7109 51.5545 16.7286 51.4128 16.7818C51.0763 16.8703 50.917 17.1005 50.917 17.437V20.9433C50.917 21.262 50.7576 21.4214 50.4565 21.4214H50.1024C49.7836 21.4214 49.6419 21.262 49.6419 20.9433V17.4547C49.6419 16.8349 49.8721 16.3568 50.3326 16.0203C50.5451 15.8786 50.8107 15.7724 51.1295 15.7193C51.3774 15.6838 51.8201 15.6661 52.4222 15.6661H55.1316C55.4503 15.6661 55.6097 15.8255 55.6097 16.1443V16.2505H55.592ZM64.1275 19.5797C64.1275 20.7662 63.2067 21.3683 61.3827 21.3683H57.4337V22.5371C57.4337 22.8558 57.2743 22.9975 56.9733 22.9975H56.6368C56.3181 22.9975 56.1764 22.8381 56.1764 22.5371V17.3662C56.1764 16.6578 56.5129 16.1797 57.1681 15.9141C57.5931 15.737 58.2306 15.6484 59.0806 15.6484H61.0994C63.1359 15.6484 64.1453 16.2151 64.1453 17.3484V19.5797H64.1275ZM62.8348 19.5797V17.3484C62.8348 17.0474 62.6046 16.8526 62.1265 16.7464C61.9317 16.7109 61.5775 16.6932 61.0817 16.6932H59.0983C57.9827 16.6932 57.416 16.9234 57.416 17.3662V20.2881H61.365C62.3567 20.3058 62.8348 20.0579 62.8348 19.5797ZM72.9641 19.6151C72.9641 20.2881 72.6277 20.7662 71.9547 21.0849C71.4943 21.2975 70.8922 21.4037 70.1485 21.4037H68.0411C66.6776 21.4037 65.7744 21.0672 65.3494 20.3943C65.1901 20.1464 65.1015 19.8985 65.1015 19.6151V17.4901C65.1015 17.0297 65.314 16.6224 65.7567 16.2682C66.288 15.8432 67.0495 15.6307 68.0411 15.6307H70.1485C72.0256 15.6307 72.9641 16.2505 72.9641 17.4724V19.6151ZM71.6714 19.6151V17.4016C71.6714 16.9411 71.1578 16.7109 70.113 16.7109H68.0588C67.687 16.7109 67.3505 16.7641 67.0495 16.8526C66.6067 16.9943 66.3765 17.2068 66.3765 17.4901V19.6151C66.3765 19.8985 66.6067 20.0933 67.0672 20.2172C67.3682 20.3058 67.7047 20.3412 68.0766 20.3412H70.1307C70.4495 20.3412 70.7683 20.2881 71.0693 20.1995C71.4766 20.0756 71.6714 19.8808 71.6714 19.6151ZM77.5861 14.0901H79.4277C80.2423 14.0901 80.7913 14.1255 81.1101 14.1786C82.4205 14.4265 83.0757 15.0286 83.0757 16.0203V20.9433C83.0757 21.262 82.9163 21.4037 82.6153 21.4037H82.2257C81.9069 21.4037 81.7476 21.2443 81.7476 20.9433V16.0203C81.7476 15.6307 81.4288 15.3828 80.809 15.2588C80.1538 15.2057 79.7111 15.188 79.4454 15.188H77.5861C76.9308 15.188 76.4704 15.2057 76.2225 15.2588C75.6027 15.3651 75.2839 15.6307 75.2839 16.0203V20.9433C75.2839 21.262 75.1246 21.4037 74.8058 21.4037H74.4162C74.0975 21.4037 73.9558 21.2443 73.9558 20.9433V16.0203C73.9558 15.064 74.611 14.4442 75.9214 14.1786C76.1871 14.1078 76.7537 14.0901 77.5861 14.0901ZM91.9123 19.6151C91.9123 20.2881 91.5758 20.7662 90.9029 21.0849C90.4425 21.2975 89.8404 21.4037 89.0966 21.4037H86.9893C85.6257 21.4037 84.7226 21.0672 84.2976 20.3943C84.1382 20.1464 84.0497 19.8985 84.0497 19.6151V17.4901C84.0497 17.0297 84.2622 16.6224 84.7049 16.2682C85.2361 15.8432 85.9976 15.6307 86.9893 15.6307H89.0966C90.9737 15.6307 91.9123 16.2505 91.9123 17.4724V19.6151ZM90.6196 19.6151V17.4016C90.6196 16.9411 90.106 16.7109 89.0612 16.7109H87.007C86.6351 16.7109 86.2987 16.7641 85.9976 16.8526C85.5549 16.9943 85.3247 17.2068 85.3247 17.4901V19.6151C85.3247 19.8985 85.5549 20.0933 86.0153 20.2172C86.3164 20.3058 86.6528 20.3412 87.0247 20.3412H89.0789C89.3977 20.3412 89.7164 20.2881 90.0175 20.1995C90.4071 20.0756 90.6196 19.8808 90.6196 19.6151ZM101.546 20.6245C101.652 20.7662 101.705 20.8902 101.705 21.0141C101.705 21.262 101.528 21.4037 101.174 21.4037H100.82C100.66 21.4037 100.554 21.3506 100.448 21.2266L97.0301 16.9234L93.5946 21.2266C93.506 21.3329 93.3821 21.4037 93.2227 21.4037H92.8685C92.5144 21.4037 92.3373 21.2797 92.3373 21.0141C92.3373 20.8902 92.3904 20.7662 92.4967 20.6245L96.4457 15.737C96.5696 15.5776 96.7644 15.5068 97.0301 15.5068C97.2957 15.5068 97.4905 15.5953 97.6321 15.7547L101.546 20.6245ZM102.803 21.4037C102.449 21.4037 102.272 21.262 102.272 20.9787V16.1266C102.272 15.8078 102.431 15.6484 102.75 15.6484H103.069C103.387 15.6484 103.547 15.8078 103.547 16.1266V19.8099L109.107 15.7547C109.196 15.6838 109.284 15.6661 109.391 15.6661H109.78C110.134 15.6661 110.311 15.8078 110.311 16.0911V20.961C110.311 21.2797 110.152 21.4391 109.833 21.4391H109.515C109.196 21.4391 109.036 21.2797 109.036 20.961V17.2245L103.476 21.2975C103.387 21.3506 103.299 21.386 103.21 21.386H102.803V21.4037ZM113.021 16.038L116.315 19.8808L119.608 16.038C119.839 15.7724 120.104 15.6484 120.441 15.6484H120.582C120.777 15.6484 120.937 15.737 121.061 15.8963C121.167 16.038 121.238 16.2151 121.238 16.4099V20.9433C121.238 21.262 121.078 21.4214 120.76 21.4214H120.441C120.122 21.4214 119.963 21.262 119.963 20.9433V17.6672L117.041 20.9964C116.793 21.2797 116.545 21.4214 116.315 21.4214C116.067 21.4214 115.837 21.2797 115.589 20.9964L112.667 17.6672V20.9433C112.667 21.262 112.507 21.4214 112.189 21.4214H111.87C111.551 21.4214 111.392 21.262 111.392 20.9433V16.3036C111.392 16.1443 111.463 16.0026 111.586 15.8609C111.728 15.7193 111.87 15.6661 112.029 15.6661H112.171C112.525 15.6484 112.808 15.7724 113.021 16.038ZM130.127 18.6235C130.127 18.9776 130.003 19.1547 129.773 19.1547H123.469C123.469 19.9516 124.018 20.3412 125.116 20.3412H126.054C126.373 20.3412 126.515 20.5006 126.515 20.8193V20.9256C126.515 21.2443 126.355 21.4037 126.054 21.4037H125.24C124.425 21.4037 123.77 21.2975 123.256 21.0849C122.53 20.7839 122.158 20.2881 122.158 19.5797V17.4547C122.158 16.7818 122.53 16.3036 123.256 15.9849C123.788 15.7547 124.443 15.6307 125.204 15.6307H127.577C128.215 15.6307 128.764 15.737 129.224 15.9495C129.826 16.2328 130.127 16.6578 130.127 17.2245V18.6235ZM128.905 18.0391V17.3307C128.905 17.1182 128.658 16.9411 128.179 16.8349C127.843 16.7464 127.506 16.7109 127.205 16.7109H125.364C124.089 16.7109 123.451 16.9411 123.451 17.3839V18.0391H128.905ZM138.999 19.5797C138.999 20.7662 138.079 21.3683 136.255 21.3683H132.306V22.5371C132.306 22.8558 132.146 22.9975 131.845 22.9975H131.509C131.19 22.9975 131.048 22.8381 131.048 22.5371V17.3662C131.048 16.6578 131.385 16.1797 132.04 15.9141C132.465 15.737 133.102 15.6484 133.952 15.6484H135.953C137.99 15.6484 138.999 16.2151 138.999 17.3484V19.5797ZM137.724 19.5797V17.3484C137.724 17.0474 137.494 16.8526 137.016 16.7464C136.821 16.7109 136.467 16.6932 135.971 16.6932H133.988C132.872 16.6932 132.306 16.9234 132.306 17.3662V20.2881H136.255C137.228 20.3058 137.724 20.0579 137.724 19.5797Z" fill="#E3EAF4"/>
<path d="M0.5957 27.1684L3.23609 26.46C3.13949 26.2346 3.04289 26.0092 2.96239 25.7838C2.65649 24.8661 2.65649 23.8357 2.65649 21.7749V16.0111C2.65649 13.9503 2.65649 12.9199 2.96239 12.0022C3.21999 11.1811 3.65469 10.4405 4.23429 9.79649C4.73339 9.233 5.39349 8.7983 6.48829 8.1543C5.05539 8.1704 3.60639 8.3636 2.1896 8.75C1.9481 8.8144 1.6905 8.8949 1.449 8.9593C0.998198 9.61939 0.660098 10.3278 0.402499 11.0845C0 12.3403 0 13.7571 0 16.5746V21.2275C0 24.045 0 25.4457 0.402499 26.7176C0.482999 26.8625 0.531301 27.0235 0.5957 27.1684Z" fill="url(#paint0_linear_426_2080)"/>
<path d="M0.146484 12.4376C0.210884 11.9385 0.291384 11.4877 0.436284 11.0691C0.806583 9.95825 1.38618 8.92785 2.17508 8.05845C3.06058 7.07636 4.28417 6.36796 6.71527 4.96726L10.7564 2.63277C13.2036 1.23207 14.411 0.523672 15.7151 0.249972C16.8582 0.00847281 18.0496 0.00847281 19.1927 0.249972C20.4968 0.523672 21.7043 1.23207 24.1515 2.63277L28.1926 4.96726C30.6398 6.38406 31.8473 7.07636 32.7328 8.05845C33.248 8.63805 33.6827 9.26595 34.0208 9.95825C33.731 11.9224 33.1192 13.79 32.2337 15.4966C32.2337 13.7739 32.2015 12.8401 31.9278 12.0029C31.6702 11.1818 31.2355 10.4412 30.6559 9.79725C30.0119 9.07275 29.1103 8.55755 27.3393 7.52715L22.3483 4.64526C20.5612 3.61486 19.6757 3.09967 18.7258 2.90647C17.8886 2.72937 17.0192 2.72937 16.182 2.90647C15.2321 3.11577 14.3466 3.61486 12.5596 4.64526L7.56856 7.52715C5.78147 8.55755 4.89597 9.07275 4.25197 9.79725C3.67238 10.4412 3.23767 11.1818 2.98008 12.0029C2.67418 12.9206 2.67418 13.951 2.67418 16.0118V17.5896C1.56328 16.044 0.693883 14.3052 0.146484 12.4376Z" fill="url(#paint1_linear_426_2080)"/>
<path d="M10.1895 31.7572L12.5561 33.1257C14.3432 34.1561 15.2287 34.6713 16.1786 34.8645C17.0158 35.0416 17.8852 35.0416 18.7224 34.8645C19.6723 34.6552 20.5578 34.1561 22.3449 33.1257L27.3359 30.2438C29.123 29.2134 30.0085 28.6982 30.6525 27.9737C31.2321 27.3297 31.6668 26.5891 31.9244 25.768C32.2303 24.8503 32.2303 23.8199 32.2303 21.7591V15.9953C32.2303 13.9346 32.2303 12.9042 31.9244 11.9865C31.6668 11.1654 31.2321 10.4248 30.6525 9.78076C30.0085 9.05627 29.1069 8.54107 27.3359 7.51067L26.1767 6.83447C27.5613 6.86667 28.9781 7.05987 30.3788 7.43017C31.2965 7.67167 32.182 7.99367 33.0192 8.36397C33.6632 9.15287 34.1623 10.0706 34.4682 11.0527C34.8707 12.3085 34.8707 13.7253 34.8707 16.5427V21.1956C34.8707 24.0131 34.8707 25.4138 34.4682 26.6857C34.0979 27.7966 33.5183 28.827 32.7294 29.6964C31.8439 30.6785 30.6203 31.3869 28.1892 32.7876L24.1481 35.1221C21.7009 36.5389 20.4934 37.2312 19.1893 37.5049C18.0462 37.7464 16.8548 37.7464 15.7117 37.5049C15.1482 37.3761 14.5847 37.1829 13.9407 36.877C12.379 35.428 11.1072 33.6892 10.1895 31.7572Z" fill="url(#paint2_linear_426_2080)"/>
<path d="M19.3175 37.5055C20.2513 36.5234 21.0724 35.4286 21.7647 34.2211C21.974 33.8669 22.1672 33.4966 22.3443 33.1263C20.5572 34.1567 19.6717 34.6719 18.7218 34.8651C17.8846 35.0422 17.0152 35.0422 16.178 34.8651C15.2281 34.6558 14.3426 34.1567 12.5555 33.1263L7.56456 30.2444C5.77746 29.214 4.89197 28.6988 4.24797 27.9743C3.84547 27.5235 3.50737 27.0083 3.24977 26.4609L0.609375 27.1693C0.979674 28.1031 1.51097 28.9725 2.18717 29.7131C3.07267 30.6952 4.29627 31.4036 6.72736 32.8043L10.7684 35.1388C13.2156 36.5556 14.4231 37.2479 15.7272 37.5216C16.8703 37.7631 18.0617 37.7631 19.2048 37.5216C19.237 37.5377 19.2692 37.5216 19.3175 37.5055Z" fill="url(#paint3_linear_426_2080)"/>
<path d="M13.3312 5.17582C14.8285 4.30642 15.5852 3.87173 16.3741 3.71073C17.0825 3.56583 17.807 3.56583 18.5154 3.71073C19.3204 3.88783 20.061 4.30642 21.5583 5.17582L27.2577 8.46021C28.755 9.32961 29.5117 9.76431 30.0591 10.36C30.5421 10.8913 30.9124 11.5353 31.1378 12.2115C31.3954 12.9843 31.3954 13.8537 31.3954 15.5925V22.1774C31.3954 23.9162 31.3954 24.7856 31.1378 25.5584C30.9124 26.2507 30.5421 26.8786 30.0591 27.4099C29.5117 28.0217 28.755 28.4564 27.2577 29.3097L21.5583 32.5941C20.061 33.4635 19.3043 33.8982 18.5154 34.0591C17.807 34.204 17.0825 34.204 16.3741 34.0591C15.5691 33.8821 14.8285 33.4635 13.3312 32.5941L7.63183 29.3097C6.13453 28.4403 5.37783 28.0056 4.83044 27.4099C4.34744 26.8786 3.97714 26.2346 3.75174 25.5584C3.49414 24.7856 3.49414 23.9162 3.49414 22.1774V15.5925C3.49414 13.8537 3.49414 12.9843 3.75174 12.2115C3.97714 11.5192 4.34744 10.8913 4.83044 10.36C5.37783 9.74821 6.13453 9.31351 7.63183 8.46021L13.3312 5.17582Z" fill="#9CC8DF"/>
<path d="M9.17719 12.8561L7.3418 11.552C8.0663 10.5216 8.95179 9.61998 9.94999 8.86328L11.3185 10.6665C10.4974 11.2783 9.77289 12.0189 9.17719 12.8561Z" fill="#C8EBCC"/>
<path d="M25.9844 13.2422L27.8842 12.0186C28.5604 13.0651 29.0917 14.2404 29.4298 15.48L27.2563 16.0757C26.9665 15.0453 26.5318 14.0954 25.9844 13.2422Z" fill="#C8EBCC"/>
<path d="M7.0334 25.4459L8.9332 24.2223C8.3697 23.3529 7.9511 22.403 7.6774 21.3887L5.50391 21.9844C5.82591 23.2241 6.3411 24.3994 7.0334 25.4459Z" fill="#C8EBCC"/>
<path d="M21.2683 28.1348C20.7692 28.3441 20.254 28.5051 19.7227 28.6178L20.2218 30.8074C20.8658 30.6625 21.5098 30.4532 22.1055 30.2117L21.2683 28.1348Z" fill="#E3F286"/>
<path d="M29.7872 17.4131C29.8355 17.8478 29.8516 18.2986 29.8516 18.7333H27.5976C27.5976 18.363 27.5815 18.0088 27.5332 17.6546L29.7872 17.4131Z" fill="#6368C0"/>
<path d="M5.12104 20.0531C5.07274 19.6184 5.05664 19.1676 5.05664 18.7329H7.31063C7.31063 19.1032 7.32674 19.4574 7.37504 19.8116L5.12104 20.0531Z" fill="#6368C0"/>
<path d="M7.66568 16.0753L5.49219 15.4796C5.76589 14.4975 6.15229 13.5476 6.63529 12.6782L8.59948 13.773C8.19698 14.4975 7.87498 15.2542 7.66568 16.0753Z" fill="#7AC600"/>
<path d="M29.4178 21.9844L27.2443 21.3887C27.0189 22.1937 26.713 22.9665 26.3105 23.6749L28.2747 24.7697C28.7577 23.9164 29.1441 22.9826 29.4178 21.9844Z" fill="#7AC600"/>
<path d="M13.6365 9.32932L12.7832 7.23632C13.395 6.99482 14.0229 6.78552 14.6669 6.64062L15.166 8.83022C14.6347 8.95902 14.1195 9.13612 13.6365 9.32932Z" fill="#DEEBF3"/>
<path d="M23.6035 10.666L24.972 8.87891C25.6643 9.4102 26.2922 10.0059 26.8718 10.666L25.1652 12.1311C24.6822 11.5837 24.167 11.1007 23.6035 10.666Z" fill="#DEEBF3"/>
<path d="M9.93448 28.5857L11.303 26.7986C10.7395 26.3639 10.2243 25.8809 9.75738 25.3335L8.05078 26.7986C8.61428 27.4587 9.24218 28.0544 9.93448 28.5857Z" fill="#DEEBF3"/>
<path d="M16.6146 8.62213C16.8883 8.60603 17.1781 8.58993 17.4518 8.58993C18.8364 8.58993 20.1566 8.86363 21.3641 9.36273L22.2335 7.28583C20.7684 6.67404 19.1584 6.33594 17.4679 6.33594C17.1137 6.33594 16.7756 6.35204 16.4375 6.38424L16.6146 8.62213Z" fill="#EFF491"/>
<path d="M27.5626 25.9135L25.7272 24.6094C25.1315 25.4466 24.407 26.1872 23.5859 26.8151L24.9544 28.6183C25.9526 27.8455 26.822 26.9439 27.5626 25.9135Z" fill="#EFF491"/>
<path d="M18.4835 31.081C18.1454 31.1132 17.8073 31.1293 17.4531 31.1293C15.7626 31.1293 14.1526 30.7912 12.6875 30.1794L13.5569 28.1025C14.7644 28.6016 16.0846 28.8753 17.4692 28.8753C17.759 28.8753 18.0327 28.8592 18.3064 28.8431L18.4835 31.081Z" fill="#EFF491"/>
<path d="M17.4537 25.8172C21.0117 25.8172 23.8936 23.5793 23.8936 20.8262C23.8936 19.989 23.7487 19.2162 23.314 18.4917C21.2533 15.1268 19.9975 13.5651 17.4537 10.2002C14.9099 13.5651 13.6541 15.1268 11.5933 18.4917C11.1425 19.2162 11.0137 19.989 11.0137 20.8262C11.0137 23.5793 13.8956 25.8172 17.4537 25.8172Z" fill="white"/>
<path d="M15.5202 20.9867C15.5202 21.0994 15.4558 21.1638 15.3431 21.1638H15.2143C15.1016 21.1638 15.0372 21.0994 15.0372 20.9867V20.0529H12.735V20.9867C12.735 21.0994 12.6706 21.1638 12.5579 21.1638H12.413C12.3003 21.1638 12.252 21.0994 12.252 20.9867V18.7006C12.252 18.5879 12.3003 18.5396 12.413 18.5396H12.5579C12.6706 18.5396 12.735 18.5879 12.735 18.7006V19.6665H15.0533V18.7006C15.0533 18.5879 15.1177 18.5396 15.2304 18.5396H15.3592C15.4719 18.5396 15.5363 18.5879 15.5363 18.7006V20.9867H15.5202ZM17.1785 18.5396H17.8386C18.1284 18.5396 18.3216 18.5557 18.4343 18.5718C18.9012 18.6523 19.1427 18.8776 19.1427 19.2318V21.0028C19.1427 21.1155 19.0944 21.1638 18.9817 21.1638H18.8368C18.7241 21.1638 18.6597 21.1155 18.6597 21.0028V19.2318C18.6597 19.0869 18.547 19.0064 18.3216 18.9581C18.0962 18.942 17.9352 18.9259 17.8386 18.9259H17.1785C16.937 18.9259 16.776 18.942 16.6955 18.9581C16.4701 19.0064 16.3574 19.0869 16.3574 19.2318V21.0028C16.3574 21.1155 16.293 21.1638 16.1803 21.1638H16.0354C15.9227 21.1638 15.8744 21.1155 15.8744 21.0028V19.2318C15.8744 18.8937 16.1159 18.6683 16.5828 18.5718C16.6794 18.5557 16.8887 18.5396 17.1785 18.5396ZM22.6686 20.4554C22.6686 20.9223 22.2661 21.1638 21.4611 21.1638H20.7205C20.1409 21.1638 19.7706 21.035 19.5935 20.7774C19.5291 20.6808 19.4969 20.5842 19.4969 20.4554V19.2479C19.4969 18.781 19.8994 18.5396 20.7044 18.5396H21.445C21.8153 18.5396 22.0729 18.5717 22.25 18.6361C22.5237 18.7488 22.6686 18.942 22.6686 19.2479V20.4554ZM22.1856 20.4554V19.264C22.1856 19.0386 21.9441 18.9259 21.4611 18.9259H20.7044C20.2214 18.9259 19.9799 19.0386 19.9799 19.264V20.4554C19.9799 20.6647 20.2214 20.7774 20.7044 20.7774H21.4611C21.9441 20.7774 22.1856 20.6647 22.1856 20.4554Z" fill="#6285C3"/>
<defs>
<linearGradient id="paint0_linear_426_2080" x1="1.20798" y1="9.00951" x2="10.2085" y2="42.6006" gradientUnits="userSpaceOnUse">
<stop stop-color="white"/>
<stop offset="1" stop-color="#7797CB"/>
</linearGradient>
<linearGradient id="paint1_linear_426_2080" x1="0.0650186" y1="8.82682" x2="34.8409" y2="8.82682" gradientUnits="userSpaceOnUse">
<stop stop-color="#7797CB"/>
<stop offset="1" stop-color="white"/>
</linearGradient>
<linearGradient id="paint2_linear_426_2080" x1="28.3147" y1="6.90451" x2="19.314" y2="40.4954" gradientUnits="userSpaceOnUse">
<stop stop-color="#7797CB"/>
<stop offset="1" stop-color="white"/>
</linearGradient>
<linearGradient id="paint3_linear_426_2080" x1="14.4999" y1="41.451" x2="5.49919" y2="7.86003" gradientUnits="userSpaceOnUse">
<stop stop-color="#7797CB"/>
<stop offset="1" stop-color="white"/>
</linearGradient>
</defs>
</svg>
